%TF.GenerationSoftware,KiCad,Pcbnew,8.0.5*%
%TF.CreationDate,2024-11-15T14:25:52-06:00*%
%TF.ProjectId,Hardware,48617264-7761-4726-952e-6b696361645f,rev?*%
%TF.SameCoordinates,Original*%
%TF.FileFunction,Legend,Bot*%
%TF.FilePolarity,Positive*%
%FSLAX46Y46*%
G04 Gerber Fmt 4.6, Leading zero omitted, Abs format (unit mm)*
G04 Created by KiCad (PCBNEW 8.0.5) date 2024-11-15 14:25:52*
%MOMM*%
%LPD*%
G01*
G04 APERTURE LIST*
%ADD10C,0.400000*%
%ADD11C,0.300000*%
%ADD12C,0.150000*%
%ADD13C,0.100000*%
%ADD14C,0.127000*%
%ADD15C,0.120000*%
G04 APERTURE END LIST*
D10*
X210820000Y-160020000D02*
X219710000Y-168910000D01*
X228600000Y-160020000D02*
X219710000Y-151130000D01*
X219710000Y-151130000D02*
X210820000Y-160020000D01*
X228600000Y-160020000D02*
X219710000Y-168910000D01*
D11*
G36*
X219673575Y-182854600D02*
G01*
X217890612Y-182854600D01*
X217270855Y-179876791D01*
X216759044Y-179876791D01*
X216469936Y-179933075D01*
X216157899Y-180170849D01*
X216050851Y-180333329D01*
X215902252Y-180685635D01*
X215787036Y-181069290D01*
X215688894Y-181479224D01*
X215635416Y-181722596D01*
X215550925Y-182099375D01*
X215459306Y-182491941D01*
X215366919Y-182854600D01*
X213407148Y-182854600D01*
X213437908Y-182732674D01*
X213530797Y-182361051D01*
X213624602Y-181980661D01*
X213719324Y-181591503D01*
X213814961Y-181193577D01*
X213911515Y-180786884D01*
X213997546Y-180465448D01*
X214137380Y-180086430D01*
X214350405Y-179720821D01*
X214661550Y-179459897D01*
X214266741Y-179264333D01*
X213925640Y-179038235D01*
X213638246Y-178781603D01*
X213364268Y-178433339D01*
X213167628Y-178041105D01*
X213062839Y-177680657D01*
X213023689Y-177326833D01*
X214903117Y-177326833D01*
X214905358Y-177727185D01*
X215033356Y-178064915D01*
X215298057Y-178348803D01*
X215317504Y-178362199D01*
X215666233Y-178518709D01*
X216057398Y-178566555D01*
X216999130Y-178566555D01*
X216652960Y-176898982D01*
X215752173Y-176898982D01*
X215516245Y-176911923D01*
X215155884Y-177015448D01*
X214903117Y-177326833D01*
X213023689Y-177326833D01*
X213016543Y-177262251D01*
X213058186Y-176876183D01*
X213187767Y-176522452D01*
X213405287Y-176201058D01*
X213507560Y-176091631D01*
X213824912Y-175852447D01*
X214207171Y-175689801D01*
X214594891Y-175610273D01*
X214966775Y-175588746D01*
X218162337Y-175588746D01*
X219673575Y-182854600D01*
G37*
G36*
X209240295Y-177854614D02*
G01*
X209665113Y-177895617D01*
X210072918Y-177985824D01*
X210463712Y-178125234D01*
X210837494Y-178313848D01*
X211194264Y-178551666D01*
X211307437Y-178640935D01*
X211614763Y-178930290D01*
X211873802Y-179251967D01*
X212084553Y-179605967D01*
X212247017Y-179992290D01*
X212361193Y-180410935D01*
X212414200Y-180755935D01*
X212422750Y-181142585D01*
X212356809Y-181555967D01*
X212209113Y-181928738D01*
X211979661Y-182260899D01*
X211727405Y-182503144D01*
X211381173Y-182722417D01*
X210979013Y-182873473D01*
X210589789Y-182948652D01*
X210159475Y-182973712D01*
X210021250Y-182971102D01*
X209614513Y-182931953D01*
X209219684Y-182845825D01*
X208836764Y-182712717D01*
X208465752Y-182532631D01*
X208106648Y-182305566D01*
X207935793Y-182175463D01*
X207630495Y-181886305D01*
X207373747Y-181558542D01*
X207165547Y-181192176D01*
X207005897Y-180787205D01*
X206909942Y-180420241D01*
X206853417Y-180054658D01*
X206843646Y-179650385D01*
X206849014Y-179617216D01*
X208457953Y-179617216D01*
X208469831Y-180008844D01*
X208529125Y-180377435D01*
X208626427Y-180762602D01*
X208780934Y-181171841D01*
X208971972Y-181500838D01*
X209249441Y-181789713D01*
X209579515Y-181963038D01*
X209962196Y-182020813D01*
X210095434Y-182014510D01*
X210472798Y-181893175D01*
X210734607Y-181565412D01*
X210812338Y-181187225D01*
X210799443Y-180785400D01*
X210738287Y-180407213D01*
X210717197Y-180312063D01*
X210601238Y-179918434D01*
X210431991Y-179547371D01*
X210196698Y-179219812D01*
X209997208Y-179038235D01*
X209665258Y-178863143D01*
X209294050Y-178804780D01*
X209163254Y-178810923D01*
X208792608Y-178929179D01*
X208534987Y-179248625D01*
X208457953Y-179617216D01*
X206849014Y-179617216D01*
X206912297Y-179226202D01*
X207067156Y-178853138D01*
X207308224Y-178531193D01*
X207568942Y-178300333D01*
X207916446Y-178091365D01*
X208310617Y-177947409D01*
X208685620Y-177875763D01*
X209094909Y-177851881D01*
X209240295Y-177854614D01*
G37*
G36*
X204885032Y-182854600D02*
G01*
X206102211Y-177970993D01*
X204473722Y-177970993D01*
X203984244Y-180539353D01*
X202411589Y-177970993D01*
X200797989Y-177970993D01*
X204036356Y-182854600D01*
X204885032Y-182854600D01*
G37*
G36*
X198187259Y-177854716D02*
G01*
X198590223Y-177897246D01*
X198975913Y-177990811D01*
X199344330Y-178135412D01*
X199695473Y-178331049D01*
X200029342Y-178577722D01*
X200135281Y-178670022D01*
X200423437Y-178965767D01*
X200667099Y-179289779D01*
X200866269Y-179642056D01*
X201020947Y-180022599D01*
X201131131Y-180431408D01*
X201185211Y-180779261D01*
X201194808Y-181167656D01*
X201129757Y-181580757D01*
X200982595Y-181950755D01*
X200753322Y-182277649D01*
X200713947Y-182320473D01*
X200402499Y-182582177D01*
X200028353Y-182777264D01*
X199657756Y-182891462D01*
X199241095Y-182956718D01*
X198858691Y-182973712D01*
X198699208Y-182970927D01*
X198309598Y-182939603D01*
X197932982Y-182873473D01*
X197569362Y-182772537D01*
X197218737Y-182636796D01*
X196881107Y-182466250D01*
X196556473Y-182260899D01*
X196333137Y-181187027D01*
X196400841Y-181230996D01*
X196732546Y-181429904D01*
X197115597Y-181622531D01*
X197482291Y-181764908D01*
X197889426Y-181867502D01*
X198274296Y-181901701D01*
X198605228Y-181882391D01*
X198989226Y-181792785D01*
X199337002Y-181592753D01*
X199455191Y-181467607D01*
X199613409Y-181103334D01*
X199618032Y-180710577D01*
X196145163Y-180710577D01*
X196126352Y-180629553D01*
X196057704Y-180239915D01*
X196035525Y-179876791D01*
X197313953Y-179876791D01*
X199413308Y-179876791D01*
X199372021Y-179761401D01*
X199189160Y-179416161D01*
X198907111Y-179133269D01*
X198547128Y-178969490D01*
X198168212Y-178923892D01*
X197855215Y-178957392D01*
X197517970Y-179133269D01*
X197339427Y-179459897D01*
X197313953Y-179876791D01*
X196035525Y-179876791D01*
X196031227Y-179806417D01*
X196065730Y-179410083D01*
X196183058Y-178994666D01*
X196383387Y-178629833D01*
X196569310Y-178405716D01*
X196875860Y-178155768D01*
X197236380Y-177980273D01*
X197650868Y-177879231D01*
X198049099Y-177851881D01*
X198187259Y-177854716D01*
G37*
G36*
X190649244Y-178263191D02*
G01*
X187792409Y-175588746D01*
X186242087Y-175588746D01*
X187753325Y-182854600D01*
X189536288Y-182854600D01*
X188588973Y-178298552D01*
X190993554Y-180591465D01*
X191265279Y-180591465D01*
X192718822Y-178298552D01*
X193666137Y-182854600D01*
X195449100Y-182854600D01*
X193937862Y-175588746D01*
X192385679Y-175588746D01*
X190649244Y-178263191D01*
G37*
G36*
X181137675Y-175487227D02*
G01*
X181574256Y-175540008D01*
X181996354Y-175627975D01*
X182403971Y-175751130D01*
X182797106Y-175909471D01*
X183175759Y-176103000D01*
X183539930Y-176331715D01*
X183889618Y-176595618D01*
X184215084Y-176882988D01*
X184507514Y-177182106D01*
X184766909Y-177492973D01*
X184993269Y-177815589D01*
X185186594Y-178149952D01*
X185346884Y-178496065D01*
X185474138Y-178853925D01*
X185568358Y-179223534D01*
X185603342Y-179413129D01*
X185648816Y-179872805D01*
X185634312Y-180312034D01*
X185559830Y-180730815D01*
X185425371Y-181129150D01*
X185230934Y-181507037D01*
X184976519Y-181864478D01*
X184918636Y-181932722D01*
X184602671Y-182241444D01*
X184242450Y-182496005D01*
X183837972Y-182696403D01*
X183482525Y-182817726D01*
X183098754Y-182904385D01*
X182686659Y-182956380D01*
X182246240Y-182973712D01*
X181803756Y-182956293D01*
X181374301Y-182904036D01*
X180957873Y-182816941D01*
X180554473Y-182695008D01*
X180164101Y-182538236D01*
X179786756Y-182346627D01*
X179422440Y-182120180D01*
X179071152Y-181858895D01*
X178742982Y-181573444D01*
X178448022Y-181275430D01*
X178186271Y-180964854D01*
X177957730Y-180641715D01*
X177762399Y-180306014D01*
X177600277Y-179957750D01*
X177471365Y-179596923D01*
X177375662Y-179223534D01*
X177341529Y-179037930D01*
X177318848Y-178805479D01*
X179157563Y-178805479D01*
X179214459Y-179221673D01*
X179274509Y-179462805D01*
X179420043Y-179856238D01*
X179617052Y-180213335D01*
X179865536Y-180534097D01*
X180165496Y-180818523D01*
X180355826Y-180960725D01*
X180709195Y-181163955D01*
X181088392Y-181309120D01*
X181493415Y-181396218D01*
X181924265Y-181425251D01*
X181987498Y-181424659D01*
X182401528Y-181387331D01*
X182813420Y-181273569D01*
X183159939Y-181083966D01*
X183441086Y-180818523D01*
X183500228Y-180740966D01*
X183681979Y-180401077D01*
X183776024Y-180013729D01*
X183786368Y-179635869D01*
X183729561Y-179221673D01*
X183669482Y-178979290D01*
X183523757Y-178584368D01*
X183326379Y-178226673D01*
X183077348Y-177906204D01*
X182776662Y-177622962D01*
X182536224Y-177448708D01*
X182177320Y-177254371D01*
X181792412Y-177117921D01*
X181381498Y-177039359D01*
X181008588Y-177018094D01*
X180945703Y-177018685D01*
X180534000Y-177055898D01*
X180124551Y-177169311D01*
X179780242Y-177358332D01*
X179501073Y-177622962D01*
X179442156Y-177700090D01*
X179261161Y-178038990D01*
X179167640Y-178426512D01*
X179157563Y-178805479D01*
X177318848Y-178805479D01*
X177297482Y-178586515D01*
X177312412Y-178153093D01*
X177386321Y-177737665D01*
X177519209Y-177340230D01*
X177711074Y-176960788D01*
X177961918Y-176599340D01*
X178018893Y-176529836D01*
X178331032Y-176215416D01*
X178688609Y-175956158D01*
X179091624Y-175752060D01*
X179446751Y-175628499D01*
X179830958Y-175540240D01*
X180244245Y-175487285D01*
X180686613Y-175469634D01*
X181137675Y-175487227D01*
G37*
D10*
X173853890Y-162104009D02*
X172901509Y-162104009D01*
X174044366Y-162675438D02*
X173377700Y-160675438D01*
X173377700Y-160675438D02*
X172711033Y-162675438D01*
X171187223Y-162580200D02*
X171377699Y-162675438D01*
X171377699Y-162675438D02*
X171758652Y-162675438D01*
X171758652Y-162675438D02*
X171949128Y-162580200D01*
X171949128Y-162580200D02*
X172044366Y-162484961D01*
X172044366Y-162484961D02*
X172139604Y-162294485D01*
X172139604Y-162294485D02*
X172139604Y-161723057D01*
X172139604Y-161723057D02*
X172044366Y-161532580D01*
X172044366Y-161532580D02*
X171949128Y-161437342D01*
X171949128Y-161437342D02*
X171758652Y-161342104D01*
X171758652Y-161342104D02*
X171377699Y-161342104D01*
X171377699Y-161342104D02*
X171187223Y-161437342D01*
X169472937Y-162580200D02*
X169663413Y-162675438D01*
X169663413Y-162675438D02*
X170044366Y-162675438D01*
X170044366Y-162675438D02*
X170234842Y-162580200D01*
X170234842Y-162580200D02*
X170330080Y-162484961D01*
X170330080Y-162484961D02*
X170425318Y-162294485D01*
X170425318Y-162294485D02*
X170425318Y-161723057D01*
X170425318Y-161723057D02*
X170330080Y-161532580D01*
X170330080Y-161532580D02*
X170234842Y-161437342D01*
X170234842Y-161437342D02*
X170044366Y-161342104D01*
X170044366Y-161342104D02*
X169663413Y-161342104D01*
X169663413Y-161342104D02*
X169472937Y-161437342D01*
X167853889Y-162580200D02*
X168044365Y-162675438D01*
X168044365Y-162675438D02*
X168425318Y-162675438D01*
X168425318Y-162675438D02*
X168615794Y-162580200D01*
X168615794Y-162580200D02*
X168711032Y-162389723D01*
X168711032Y-162389723D02*
X168711032Y-161627819D01*
X168711032Y-161627819D02*
X168615794Y-161437342D01*
X168615794Y-161437342D02*
X168425318Y-161342104D01*
X168425318Y-161342104D02*
X168044365Y-161342104D01*
X168044365Y-161342104D02*
X167853889Y-161437342D01*
X167853889Y-161437342D02*
X167758651Y-161627819D01*
X167758651Y-161627819D02*
X167758651Y-161818295D01*
X167758651Y-161818295D02*
X168711032Y-162008771D01*
X166901508Y-161342104D02*
X166901508Y-163342104D01*
X166901508Y-161437342D02*
X166711032Y-161342104D01*
X166711032Y-161342104D02*
X166330079Y-161342104D01*
X166330079Y-161342104D02*
X166139603Y-161437342D01*
X166139603Y-161437342D02*
X166044365Y-161532580D01*
X166044365Y-161532580D02*
X165949127Y-161723057D01*
X165949127Y-161723057D02*
X165949127Y-162294485D01*
X165949127Y-162294485D02*
X166044365Y-162484961D01*
X166044365Y-162484961D02*
X166139603Y-162580200D01*
X166139603Y-162580200D02*
X166330079Y-162675438D01*
X166330079Y-162675438D02*
X166711032Y-162675438D01*
X166711032Y-162675438D02*
X166901508Y-162580200D01*
X165377698Y-161342104D02*
X164615794Y-161342104D01*
X165091984Y-160675438D02*
X165091984Y-162389723D01*
X165091984Y-162389723D02*
X164996746Y-162580200D01*
X164996746Y-162580200D02*
X164806270Y-162675438D01*
X164806270Y-162675438D02*
X164615794Y-162675438D01*
X186426985Y-169628819D02*
X186141271Y-169724057D01*
X186141271Y-169724057D02*
X186046033Y-169819295D01*
X186046033Y-169819295D02*
X185950795Y-170009771D01*
X185950795Y-170009771D02*
X185950795Y-170295485D01*
X185950795Y-170295485D02*
X186046033Y-170485961D01*
X186046033Y-170485961D02*
X186141271Y-170581200D01*
X186141271Y-170581200D02*
X186331747Y-170676438D01*
X186331747Y-170676438D02*
X187093652Y-170676438D01*
X187093652Y-170676438D02*
X187093652Y-168676438D01*
X187093652Y-168676438D02*
X186426985Y-168676438D01*
X186426985Y-168676438D02*
X186236509Y-168771676D01*
X186236509Y-168771676D02*
X186141271Y-168866914D01*
X186141271Y-168866914D02*
X186046033Y-169057390D01*
X186046033Y-169057390D02*
X186046033Y-169247866D01*
X186046033Y-169247866D02*
X186141271Y-169438342D01*
X186141271Y-169438342D02*
X186236509Y-169533580D01*
X186236509Y-169533580D02*
X186426985Y-169628819D01*
X186426985Y-169628819D02*
X187093652Y-169628819D01*
X184236509Y-170676438D02*
X184236509Y-169628819D01*
X184236509Y-169628819D02*
X184331747Y-169438342D01*
X184331747Y-169438342D02*
X184522223Y-169343104D01*
X184522223Y-169343104D02*
X184903176Y-169343104D01*
X184903176Y-169343104D02*
X185093652Y-169438342D01*
X184236509Y-170581200D02*
X184426985Y-170676438D01*
X184426985Y-170676438D02*
X184903176Y-170676438D01*
X184903176Y-170676438D02*
X185093652Y-170581200D01*
X185093652Y-170581200D02*
X185188890Y-170390723D01*
X185188890Y-170390723D02*
X185188890Y-170200247D01*
X185188890Y-170200247D02*
X185093652Y-170009771D01*
X185093652Y-170009771D02*
X184903176Y-169914533D01*
X184903176Y-169914533D02*
X184426985Y-169914533D01*
X184426985Y-169914533D02*
X184236509Y-169819295D01*
X182426985Y-170581200D02*
X182617461Y-170676438D01*
X182617461Y-170676438D02*
X182998414Y-170676438D01*
X182998414Y-170676438D02*
X183188890Y-170581200D01*
X183188890Y-170581200D02*
X183284128Y-170485961D01*
X183284128Y-170485961D02*
X183379366Y-170295485D01*
X183379366Y-170295485D02*
X183379366Y-169724057D01*
X183379366Y-169724057D02*
X183284128Y-169533580D01*
X183284128Y-169533580D02*
X183188890Y-169438342D01*
X183188890Y-169438342D02*
X182998414Y-169343104D01*
X182998414Y-169343104D02*
X182617461Y-169343104D01*
X182617461Y-169343104D02*
X182426985Y-169438342D01*
X181569842Y-170676438D02*
X181569842Y-168676438D01*
X181379366Y-169914533D02*
X180807937Y-170676438D01*
X180807937Y-169343104D02*
X181569842Y-170105009D01*
D12*
X171514457Y-152807550D02*
X171371479Y-152855209D01*
X171371479Y-152855209D02*
X171133183Y-152855209D01*
X171133183Y-152855209D02*
X171037865Y-152807550D01*
X171037865Y-152807550D02*
X170990206Y-152759890D01*
X170990206Y-152759890D02*
X170942546Y-152664572D01*
X170942546Y-152664572D02*
X170942546Y-152569254D01*
X170942546Y-152569254D02*
X170990206Y-152473935D01*
X170990206Y-152473935D02*
X171037865Y-152426276D01*
X171037865Y-152426276D02*
X171133183Y-152378617D01*
X171133183Y-152378617D02*
X171323820Y-152330958D01*
X171323820Y-152330958D02*
X171419138Y-152283298D01*
X171419138Y-152283298D02*
X171466798Y-152235639D01*
X171466798Y-152235639D02*
X171514457Y-152140321D01*
X171514457Y-152140321D02*
X171514457Y-152045002D01*
X171514457Y-152045002D02*
X171466798Y-151949684D01*
X171466798Y-151949684D02*
X171419138Y-151902025D01*
X171419138Y-151902025D02*
X171323820Y-151854366D01*
X171323820Y-151854366D02*
X171085524Y-151854366D01*
X171085524Y-151854366D02*
X170942546Y-151902025D01*
X170608932Y-151854366D02*
X170370636Y-152855209D01*
X170370636Y-152855209D02*
X170179999Y-152140321D01*
X170179999Y-152140321D02*
X169989362Y-152855209D01*
X169989362Y-152855209D02*
X169751067Y-151854366D01*
X169417452Y-151949684D02*
X169369793Y-151902025D01*
X169369793Y-151902025D02*
X169274474Y-151854366D01*
X169274474Y-151854366D02*
X169036178Y-151854366D01*
X169036178Y-151854366D02*
X168940860Y-151902025D01*
X168940860Y-151902025D02*
X168893201Y-151949684D01*
X168893201Y-151949684D02*
X168845541Y-152045002D01*
X168845541Y-152045002D02*
X168845541Y-152140321D01*
X168845541Y-152140321D02*
X168893201Y-152283298D01*
X168893201Y-152283298D02*
X169465111Y-152855209D01*
X169465111Y-152855209D02*
X168845541Y-152855209D01*
X185357457Y-160046550D02*
X185214479Y-160094209D01*
X185214479Y-160094209D02*
X184976183Y-160094209D01*
X184976183Y-160094209D02*
X184880865Y-160046550D01*
X184880865Y-160046550D02*
X184833206Y-159998890D01*
X184833206Y-159998890D02*
X184785546Y-159903572D01*
X184785546Y-159903572D02*
X184785546Y-159808254D01*
X184785546Y-159808254D02*
X184833206Y-159712935D01*
X184833206Y-159712935D02*
X184880865Y-159665276D01*
X184880865Y-159665276D02*
X184976183Y-159617617D01*
X184976183Y-159617617D02*
X185166820Y-159569958D01*
X185166820Y-159569958D02*
X185262138Y-159522298D01*
X185262138Y-159522298D02*
X185309798Y-159474639D01*
X185309798Y-159474639D02*
X185357457Y-159379321D01*
X185357457Y-159379321D02*
X185357457Y-159284002D01*
X185357457Y-159284002D02*
X185309798Y-159188684D01*
X185309798Y-159188684D02*
X185262138Y-159141025D01*
X185262138Y-159141025D02*
X185166820Y-159093366D01*
X185166820Y-159093366D02*
X184928524Y-159093366D01*
X184928524Y-159093366D02*
X184785546Y-159141025D01*
X184451932Y-159093366D02*
X184213636Y-160094209D01*
X184213636Y-160094209D02*
X184022999Y-159379321D01*
X184022999Y-159379321D02*
X183832362Y-160094209D01*
X183832362Y-160094209D02*
X183594067Y-159093366D01*
X183308111Y-159093366D02*
X182688541Y-159093366D01*
X182688541Y-159093366D02*
X183022156Y-159474639D01*
X183022156Y-159474639D02*
X182879178Y-159474639D01*
X182879178Y-159474639D02*
X182783860Y-159522298D01*
X182783860Y-159522298D02*
X182736201Y-159569958D01*
X182736201Y-159569958D02*
X182688541Y-159665276D01*
X182688541Y-159665276D02*
X182688541Y-159903572D01*
X182688541Y-159903572D02*
X182736201Y-159998890D01*
X182736201Y-159998890D02*
X182783860Y-160046550D01*
X182783860Y-160046550D02*
X182879178Y-160094209D01*
X182879178Y-160094209D02*
X183165133Y-160094209D01*
X183165133Y-160094209D02*
X183260452Y-160046550D01*
X183260452Y-160046550D02*
X183308111Y-159998890D01*
X220917457Y-147473550D02*
X220774479Y-147521209D01*
X220774479Y-147521209D02*
X220536183Y-147521209D01*
X220536183Y-147521209D02*
X220440865Y-147473550D01*
X220440865Y-147473550D02*
X220393206Y-147425890D01*
X220393206Y-147425890D02*
X220345546Y-147330572D01*
X220345546Y-147330572D02*
X220345546Y-147235254D01*
X220345546Y-147235254D02*
X220393206Y-147139935D01*
X220393206Y-147139935D02*
X220440865Y-147092276D01*
X220440865Y-147092276D02*
X220536183Y-147044617D01*
X220536183Y-147044617D02*
X220726820Y-146996958D01*
X220726820Y-146996958D02*
X220822138Y-146949298D01*
X220822138Y-146949298D02*
X220869798Y-146901639D01*
X220869798Y-146901639D02*
X220917457Y-146806321D01*
X220917457Y-146806321D02*
X220917457Y-146711002D01*
X220917457Y-146711002D02*
X220869798Y-146615684D01*
X220869798Y-146615684D02*
X220822138Y-146568025D01*
X220822138Y-146568025D02*
X220726820Y-146520366D01*
X220726820Y-146520366D02*
X220488524Y-146520366D01*
X220488524Y-146520366D02*
X220345546Y-146568025D01*
X220011932Y-146520366D02*
X219773636Y-147521209D01*
X219773636Y-147521209D02*
X219582999Y-146806321D01*
X219582999Y-146806321D02*
X219392362Y-147521209D01*
X219392362Y-147521209D02*
X219154067Y-146520366D01*
X218296201Y-146520366D02*
X218772793Y-146520366D01*
X218772793Y-146520366D02*
X218820452Y-146996958D01*
X218820452Y-146996958D02*
X218772793Y-146949298D01*
X218772793Y-146949298D02*
X218677474Y-146901639D01*
X218677474Y-146901639D02*
X218439178Y-146901639D01*
X218439178Y-146901639D02*
X218343860Y-146949298D01*
X218343860Y-146949298D02*
X218296201Y-146996958D01*
X218296201Y-146996958D02*
X218248541Y-147092276D01*
X218248541Y-147092276D02*
X218248541Y-147330572D01*
X218248541Y-147330572D02*
X218296201Y-147425890D01*
X218296201Y-147425890D02*
X218343860Y-147473550D01*
X218343860Y-147473550D02*
X218439178Y-147521209D01*
X218439178Y-147521209D02*
X218677474Y-147521209D01*
X218677474Y-147521209D02*
X218772793Y-147473550D01*
X218772793Y-147473550D02*
X218820452Y-147425890D01*
X212029342Y-156236550D02*
X211886364Y-156284209D01*
X211886364Y-156284209D02*
X211648068Y-156284209D01*
X211648068Y-156284209D02*
X211552750Y-156236550D01*
X211552750Y-156236550D02*
X211505091Y-156188890D01*
X211505091Y-156188890D02*
X211457431Y-156093572D01*
X211457431Y-156093572D02*
X211457431Y-155998254D01*
X211457431Y-155998254D02*
X211505091Y-155902935D01*
X211505091Y-155902935D02*
X211552750Y-155855276D01*
X211552750Y-155855276D02*
X211648068Y-155807617D01*
X211648068Y-155807617D02*
X211838705Y-155759958D01*
X211838705Y-155759958D02*
X211934023Y-155712298D01*
X211934023Y-155712298D02*
X211981683Y-155664639D01*
X211981683Y-155664639D02*
X212029342Y-155569321D01*
X212029342Y-155569321D02*
X212029342Y-155474002D01*
X212029342Y-155474002D02*
X211981683Y-155378684D01*
X211981683Y-155378684D02*
X211934023Y-155331025D01*
X211934023Y-155331025D02*
X211838705Y-155283366D01*
X211838705Y-155283366D02*
X211600409Y-155283366D01*
X211600409Y-155283366D02*
X211457431Y-155331025D01*
X211123817Y-155283366D02*
X210885521Y-156284209D01*
X210885521Y-156284209D02*
X210694884Y-155569321D01*
X210694884Y-155569321D02*
X210504247Y-156284209D01*
X210504247Y-156284209D02*
X210265952Y-155283366D01*
X209455745Y-155616980D02*
X209455745Y-156284209D01*
X209694041Y-155235707D02*
X209932337Y-155950594D01*
X209932337Y-155950594D02*
X209312767Y-155950594D01*
X229934457Y-156236550D02*
X229791479Y-156284209D01*
X229791479Y-156284209D02*
X229553183Y-156284209D01*
X229553183Y-156284209D02*
X229457865Y-156236550D01*
X229457865Y-156236550D02*
X229410206Y-156188890D01*
X229410206Y-156188890D02*
X229362546Y-156093572D01*
X229362546Y-156093572D02*
X229362546Y-155998254D01*
X229362546Y-155998254D02*
X229410206Y-155902935D01*
X229410206Y-155902935D02*
X229457865Y-155855276D01*
X229457865Y-155855276D02*
X229553183Y-155807617D01*
X229553183Y-155807617D02*
X229743820Y-155759958D01*
X229743820Y-155759958D02*
X229839138Y-155712298D01*
X229839138Y-155712298D02*
X229886798Y-155664639D01*
X229886798Y-155664639D02*
X229934457Y-155569321D01*
X229934457Y-155569321D02*
X229934457Y-155474002D01*
X229934457Y-155474002D02*
X229886798Y-155378684D01*
X229886798Y-155378684D02*
X229839138Y-155331025D01*
X229839138Y-155331025D02*
X229743820Y-155283366D01*
X229743820Y-155283366D02*
X229505524Y-155283366D01*
X229505524Y-155283366D02*
X229362546Y-155331025D01*
X229028932Y-155283366D02*
X228790636Y-156284209D01*
X228790636Y-156284209D02*
X228599999Y-155569321D01*
X228599999Y-155569321D02*
X228409362Y-156284209D01*
X228409362Y-156284209D02*
X228171067Y-155283366D01*
X227885111Y-155283366D02*
X227217882Y-155283366D01*
X227217882Y-155283366D02*
X227646815Y-156284209D01*
X221044457Y-165253550D02*
X220901479Y-165301209D01*
X220901479Y-165301209D02*
X220663183Y-165301209D01*
X220663183Y-165301209D02*
X220567865Y-165253550D01*
X220567865Y-165253550D02*
X220520206Y-165205890D01*
X220520206Y-165205890D02*
X220472546Y-165110572D01*
X220472546Y-165110572D02*
X220472546Y-165015254D01*
X220472546Y-165015254D02*
X220520206Y-164919935D01*
X220520206Y-164919935D02*
X220567865Y-164872276D01*
X220567865Y-164872276D02*
X220663183Y-164824617D01*
X220663183Y-164824617D02*
X220853820Y-164776958D01*
X220853820Y-164776958D02*
X220949138Y-164729298D01*
X220949138Y-164729298D02*
X220996798Y-164681639D01*
X220996798Y-164681639D02*
X221044457Y-164586321D01*
X221044457Y-164586321D02*
X221044457Y-164491002D01*
X221044457Y-164491002D02*
X220996798Y-164395684D01*
X220996798Y-164395684D02*
X220949138Y-164348025D01*
X220949138Y-164348025D02*
X220853820Y-164300366D01*
X220853820Y-164300366D02*
X220615524Y-164300366D01*
X220615524Y-164300366D02*
X220472546Y-164348025D01*
X220138932Y-164300366D02*
X219900636Y-165301209D01*
X219900636Y-165301209D02*
X219709999Y-164586321D01*
X219709999Y-164586321D02*
X219519362Y-165301209D01*
X219519362Y-165301209D02*
X219281067Y-164300366D01*
X218470860Y-164300366D02*
X218661497Y-164300366D01*
X218661497Y-164300366D02*
X218756815Y-164348025D01*
X218756815Y-164348025D02*
X218804474Y-164395684D01*
X218804474Y-164395684D02*
X218899793Y-164538662D01*
X218899793Y-164538662D02*
X218947452Y-164729298D01*
X218947452Y-164729298D02*
X218947452Y-165110572D01*
X218947452Y-165110572D02*
X218899793Y-165205890D01*
X218899793Y-165205890D02*
X218852133Y-165253550D01*
X218852133Y-165253550D02*
X218756815Y-165301209D01*
X218756815Y-165301209D02*
X218566178Y-165301209D01*
X218566178Y-165301209D02*
X218470860Y-165253550D01*
X218470860Y-165253550D02*
X218423201Y-165205890D01*
X218423201Y-165205890D02*
X218375541Y-165110572D01*
X218375541Y-165110572D02*
X218375541Y-164872276D01*
X218375541Y-164872276D02*
X218423201Y-164776958D01*
X218423201Y-164776958D02*
X218470860Y-164729298D01*
X218470860Y-164729298D02*
X218566178Y-164681639D01*
X218566178Y-164681639D02*
X218756815Y-164681639D01*
X218756815Y-164681639D02*
X218852133Y-164729298D01*
X218852133Y-164729298D02*
X218899793Y-164776958D01*
X218899793Y-164776958D02*
X218947452Y-164872276D01*
D13*
X243077904Y-117313419D02*
X243077904Y-118122942D01*
X243077904Y-118122942D02*
X243030285Y-118218180D01*
X243030285Y-118218180D02*
X242982666Y-118265800D01*
X242982666Y-118265800D02*
X242887428Y-118313419D01*
X242887428Y-118313419D02*
X242696952Y-118313419D01*
X242696952Y-118313419D02*
X242601714Y-118265800D01*
X242601714Y-118265800D02*
X242554095Y-118218180D01*
X242554095Y-118218180D02*
X242506476Y-118122942D01*
X242506476Y-118122942D02*
X242506476Y-117313419D01*
X242125523Y-117313419D02*
X241458857Y-117313419D01*
X241458857Y-117313419D02*
X241887428Y-118313419D01*
D14*
%TO.C,SW2*%
X167180000Y-153500000D02*
X167180000Y-159500000D01*
X173180000Y-153500000D02*
X167180000Y-153500000D01*
X173180000Y-153500000D02*
X173180000Y-159500000D01*
X173180000Y-159500000D02*
X167180000Y-159500000D01*
%TO.C,SW3*%
X181150000Y-161120000D02*
X181150000Y-167120000D01*
X187150000Y-161120000D02*
X181150000Y-161120000D01*
X187150000Y-161120000D02*
X187150000Y-167120000D01*
X187150000Y-167120000D02*
X181150000Y-167120000D01*
%TO.C,SW5*%
X216710000Y-148130000D02*
X216710000Y-154130000D01*
X222710000Y-148130000D02*
X216710000Y-148130000D01*
X222710000Y-148130000D02*
X222710000Y-154130000D01*
X222710000Y-154130000D02*
X216710000Y-154130000D01*
%TO.C,SW4*%
X207820000Y-157020000D02*
X207820000Y-163020000D01*
X213820000Y-157020000D02*
X207820000Y-157020000D01*
X213820000Y-157020000D02*
X213820000Y-163020000D01*
X213820000Y-163020000D02*
X207820000Y-163020000D01*
%TO.C,SW7*%
X225600000Y-157020000D02*
X225600000Y-163020000D01*
X231600000Y-157020000D02*
X225600000Y-157020000D01*
X231600000Y-157020000D02*
X231600000Y-163020000D01*
X231600000Y-163020000D02*
X225600000Y-163020000D01*
%TO.C,SW6*%
X216710000Y-165910000D02*
X216710000Y-171910000D01*
X222710000Y-165910000D02*
X216710000Y-165910000D01*
X222710000Y-165910000D02*
X222710000Y-171910000D01*
X222710000Y-171910000D02*
X216710000Y-171910000D01*
D15*
%TO.C,U7*%
X240820000Y-82804000D02*
X243480000Y-82804000D01*
X240820000Y-115884000D02*
X240820000Y-82804000D01*
X240820000Y-115884000D02*
X243480000Y-115884000D01*
X242150000Y-80204000D02*
X243480000Y-80204000D01*
X243480000Y-80204000D02*
X243480000Y-81534000D01*
X243480000Y-115884000D02*
X243480000Y-82804000D01*
D13*
X154850000Y-70524000D02*
X244150000Y-70524000D01*
X244150000Y-125564000D01*
X154850000Y-125564000D01*
X154850000Y-70524000D01*
X160650000Y-70524000D02*
X238350000Y-70524000D01*
X238350000Y-125564000D01*
X160650000Y-125564000D01*
X160650000Y-70524000D01*
X160850000Y-73524000D02*
G75*
G02*
X154850000Y-73524000I-3000000J0D01*
G01*
X154850000Y-73524000D02*
G75*
G02*
X160850000Y-73524000I3000000J0D01*
G01*
X160850000Y-122564000D02*
G75*
G02*
X154850000Y-122564000I-3000000J0D01*
G01*
X154850000Y-122564000D02*
G75*
G02*
X160850000Y-122564000I3000000J0D01*
G01*
X244150000Y-73524000D02*
G75*
G02*
X238150000Y-73524000I-3000000J0D01*
G01*
X238150000Y-73524000D02*
G75*
G02*
X244150000Y-73524000I3000000J0D01*
G01*
X244150000Y-122564000D02*
G75*
G02*
X238150000Y-122564000I-3000000J0D01*
G01*
X238150000Y-122564000D02*
G75*
G02*
X244150000Y-122564000I3000000J0D01*
G01*
%TD*%
M02*
