%TF.GenerationSoftware,KiCad,Pcbnew,8.0.5*%
%TF.CreationDate,2024-11-15T14:25:53-06:00*%
%TF.ProjectId,Hardware,48617264-7761-4726-952e-6b696361645f,rev?*%
%TF.SameCoordinates,Original*%
%TF.FileFunction,Profile,NP*%
%FSLAX46Y46*%
G04 Gerber Fmt 4.6, Leading zero omitted, Abs format (unit mm)*
G04 Created by KiCad (PCBNEW 8.0.5) date 2024-11-15 14:25:53*
%MOMM*%
%LPD*%
G01*
G04 APERTURE LIST*
%TA.AperFunction,Profile*%
%ADD10C,0.100000*%
%TD*%
G04 APERTURE END LIST*
D10*
X157734000Y-134619999D02*
G75*
G02*
X153670001Y-130556000I47400J4111399D01*
G01*
X199390000Y-61722000D02*
G75*
G02*
X200152000Y-60960000I762000J0D01*
G01*
X162560000Y-73660000D02*
G75*
G02*
X161798000Y-72898000I0J762000D01*
G01*
X198628000Y-73660000D02*
X162560000Y-73660000D01*
X153670000Y-65024000D02*
G75*
G02*
X161798000Y-65024000I4064000J0D01*
G01*
X241046000Y-60960000D02*
G75*
G02*
X245110000Y-65024000I0J-4064000D01*
G01*
X235966000Y-199136000D02*
G75*
G02*
X231902000Y-203200000I-4064000J0D01*
G01*
X241046000Y-60960000D02*
X200152000Y-60960000D01*
X161798000Y-72898000D02*
X161798000Y-65024000D01*
X162814000Y-135382000D02*
X162814000Y-199136000D01*
X235966000Y-135382000D02*
G75*
G02*
X236728000Y-134620000I762000J0D01*
G01*
X199390000Y-72898000D02*
G75*
G02*
X198628000Y-73660000I-762000J0D01*
G01*
X235966000Y-135382000D02*
X235966000Y-199136000D01*
X153670000Y-65024000D02*
X153670001Y-130556000D01*
X162052000Y-134620000D02*
G75*
G02*
X162814000Y-135382000I0J-762000D01*
G01*
X157734000Y-134619999D02*
X162052000Y-134620000D01*
X166878000Y-203200000D02*
X231902000Y-203200000D01*
X236728000Y-134620000D02*
X241046000Y-134620000D01*
X199390000Y-61722000D02*
X199390000Y-72898000D01*
X245110000Y-130556000D02*
X245110000Y-65024000D01*
X245110000Y-130556000D02*
G75*
G02*
X241046000Y-134620000I-4064000J0D01*
G01*
X166878000Y-203200000D02*
G75*
G02*
X162814000Y-199136000I0J4064000D01*
G01*
M02*
