%TF.GenerationSoftware,KiCad,Pcbnew,8.0.5*%
%TF.CreationDate,2024-11-15T14:25:52-06:00*%
%TF.ProjectId,Hardware,48617264-7761-4726-952e-6b696361645f,rev?*%
%TF.SameCoordinates,Original*%
%TF.FileFunction,Soldermask,Top*%
%TF.FilePolarity,Negative*%
%FSLAX46Y46*%
G04 Gerber Fmt 4.6, Leading zero omitted, Abs format (unit mm)*
G04 Created by KiCad (PCBNEW 8.0.5) date 2024-11-15 14:25:52*
%MOMM*%
%LPD*%
G01*
G04 APERTURE LIST*
G04 Aperture macros list*
%AMRoundRect*
0 Rectangle with rounded corners*
0 $1 Rounding radius*
0 $2 $3 $4 $5 $6 $7 $8 $9 X,Y pos of 4 corners*
0 Add a 4 corners polygon primitive as box body*
4,1,4,$2,$3,$4,$5,$6,$7,$8,$9,$2,$3,0*
0 Add four circle primitives for the rounded corners*
1,1,$1+$1,$2,$3*
1,1,$1+$1,$4,$5*
1,1,$1+$1,$6,$7*
1,1,$1+$1,$8,$9*
0 Add four rect primitives between the rounded corners*
20,1,$1+$1,$2,$3,$4,$5,0*
20,1,$1+$1,$4,$5,$6,$7,0*
20,1,$1+$1,$6,$7,$8,$9,0*
20,1,$1+$1,$8,$9,$2,$3,0*%
G04 Aperture macros list end*
%ADD10C,1.100000*%
%ADD11C,1.400000*%
%ADD12C,4.000000*%
%ADD13C,2.000000*%
%ADD14RoundRect,0.237500X0.237500X-0.250000X0.237500X0.250000X-0.237500X0.250000X-0.237500X-0.250000X0*%
%ADD15RoundRect,0.237500X-0.250000X-0.237500X0.250000X-0.237500X0.250000X0.237500X-0.250000X0.237500X0*%
%ADD16C,1.308000*%
%ADD17C,1.258000*%
%ADD18C,1.208000*%
%ADD19RoundRect,0.237500X-0.300000X-0.237500X0.300000X-0.237500X0.300000X0.237500X-0.300000X0.237500X0*%
%ADD20R,0.800000X1.200000*%
%ADD21RoundRect,0.237500X0.300000X0.237500X-0.300000X0.237500X-0.300000X-0.237500X0.300000X-0.237500X0*%
%ADD22C,2.946400*%
%ADD23R,1.500000X0.900000*%
%ADD24R,0.900000X1.500000*%
%ADD25C,0.600000*%
%ADD26R,3.800000X3.800000*%
%ADD27RoundRect,0.150000X-0.150000X0.587500X-0.150000X-0.587500X0.150000X-0.587500X0.150000X0.587500X0*%
%ADD28RoundRect,0.237500X0.250000X0.237500X-0.250000X0.237500X-0.250000X-0.237500X0.250000X-0.237500X0*%
%ADD29RoundRect,0.250000X-0.350000X-0.625000X0.350000X-0.625000X0.350000X0.625000X-0.350000X0.625000X0*%
%ADD30O,1.200000X1.750000*%
%ADD31C,1.800000*%
%ADD32R,3.000000X1.500000*%
%ADD33O,3.000000X1.500000*%
%ADD34RoundRect,0.237500X-0.237500X0.300000X-0.237500X-0.300000X0.237500X-0.300000X0.237500X0.300000X0*%
%ADD35O,3.500000X2.200000*%
%ADD36R,2.500000X1.500000*%
%ADD37O,2.500000X1.500000*%
%ADD38R,1.700000X1.700000*%
%ADD39O,1.700000X1.700000*%
%ADD40R,1.600000X1.500000*%
%ADD41C,1.600000*%
%ADD42C,3.000000*%
%ADD43RoundRect,0.150000X0.825000X0.150000X-0.825000X0.150000X-0.825000X-0.150000X0.825000X-0.150000X0*%
%ADD44RoundRect,0.237500X-0.237500X0.250000X-0.237500X-0.250000X0.237500X-0.250000X0.237500X0.250000X0*%
%ADD45R,1.800000X1.800000*%
%ADD46R,1.400000X1.600000*%
%ADD47RoundRect,0.150000X-0.587500X-0.150000X0.587500X-0.150000X0.587500X0.150000X-0.587500X0.150000X0*%
G04 APERTURE END LIST*
D10*
%TO.C,J2*%
X214882000Y-74468000D03*
X213612000Y-77008000D03*
X212342000Y-74468000D03*
X211072000Y-77008000D03*
X209802000Y-74468000D03*
X208532000Y-77008000D03*
X207262000Y-74468000D03*
X205992000Y-77008000D03*
D11*
X216762000Y-63038000D03*
X214222000Y-64828000D03*
X206652000Y-63038000D03*
X204112000Y-64828000D03*
D12*
X216152000Y-68118000D03*
X204722000Y-68118000D03*
D13*
X218312000Y-71168000D03*
X202562000Y-71168000D03*
%TD*%
D14*
%TO.C,R1*%
X238760000Y-99210500D03*
X238760000Y-97385500D03*
%TD*%
D15*
%TO.C,R9*%
X206859500Y-107188000D03*
X208684500Y-107188000D03*
%TD*%
D16*
%TO.C,U3*%
X232918000Y-82042000D03*
X230378000Y-82042000D03*
X227838000Y-82042000D03*
X225298000Y-82042000D03*
X199898000Y-82042000D03*
X230378000Y-97282000D03*
X189738000Y-87122000D03*
X222758000Y-82042000D03*
X220218000Y-82042000D03*
D17*
X229108000Y-85092000D03*
D16*
X217678000Y-82042000D03*
X215138000Y-82042000D03*
X212598000Y-82042000D03*
X210058000Y-82042000D03*
X207518000Y-82042000D03*
X204978000Y-82042000D03*
X202438000Y-82042000D03*
X202438000Y-97282000D03*
X204978000Y-97282000D03*
X207518000Y-97282000D03*
X210058000Y-97282000D03*
X212598000Y-97282000D03*
X215138000Y-97282000D03*
X217678000Y-97282000D03*
X220218000Y-97282000D03*
X222758000Y-97282000D03*
X225298000Y-97282000D03*
X227838000Y-97282000D03*
X197358000Y-82042000D03*
X194818000Y-82042000D03*
X192278000Y-82042000D03*
X189738000Y-82042000D03*
X187198000Y-82042000D03*
X184658000Y-82042000D03*
X182118000Y-82042000D03*
X179578000Y-82042000D03*
X177038000Y-82042000D03*
X177038000Y-97282000D03*
X179578000Y-97282000D03*
X182118000Y-97282000D03*
X184658000Y-97282000D03*
X187198000Y-97282000D03*
X189738000Y-97282000D03*
X192278000Y-97282000D03*
X194818000Y-97282000D03*
X197358000Y-97282000D03*
D17*
X224028000Y-85092000D03*
X226568000Y-85092000D03*
D16*
X235458000Y-82042000D03*
X199898000Y-97282000D03*
X232918000Y-97282000D03*
X189738000Y-89662000D03*
D18*
X220488000Y-92832000D03*
X222488000Y-92832000D03*
D16*
X189738000Y-94742000D03*
X189738000Y-92202000D03*
D18*
X222488000Y-94832000D03*
X220488000Y-94832000D03*
X220488000Y-90832000D03*
X222488000Y-90832000D03*
D17*
X221488000Y-85092000D03*
X218948000Y-85092000D03*
D16*
X189738000Y-84582000D03*
X235458000Y-97282000D03*
X232918000Y-94742000D03*
%TD*%
D19*
%TO.C,C6*%
X206909500Y-109982000D03*
X208634500Y-109982000D03*
%TD*%
D20*
%TO.C,U6*%
X166497000Y-100980500D03*
X169037000Y-100980500D03*
X169037000Y-94980500D03*
X166497000Y-94980500D03*
%TD*%
D21*
%TO.C,C4*%
X177900500Y-75946000D03*
X176175500Y-75946000D03*
%TD*%
D22*
%TO.C,H5*%
X166878000Y-199136000D03*
%TD*%
D23*
%TO.C,U4*%
X230746000Y-123040000D03*
X230746000Y-121770000D03*
X230746000Y-120500000D03*
X230746000Y-119230000D03*
X230746000Y-117960000D03*
X230746000Y-116690000D03*
X230746000Y-115420000D03*
X230746000Y-114150000D03*
X230746000Y-112880000D03*
X230746000Y-111610000D03*
X230746000Y-110340000D03*
X230746000Y-109070000D03*
X230746000Y-107800000D03*
X230746000Y-106530000D03*
D24*
X227711000Y-105280000D03*
X226441000Y-105280000D03*
X225171000Y-105280000D03*
X223901000Y-105280000D03*
X222631000Y-105280000D03*
X221361000Y-105280000D03*
X220091000Y-105280000D03*
X218821000Y-105280000D03*
X217551000Y-105280000D03*
X216281000Y-105280000D03*
D23*
X213246000Y-106530000D03*
X213246000Y-107800000D03*
X213246000Y-109070000D03*
X213246000Y-110340000D03*
X213246000Y-111610000D03*
X213246000Y-112880000D03*
X213246000Y-114150000D03*
X213246000Y-115420000D03*
X213246000Y-116690000D03*
X213246000Y-117960000D03*
X213246000Y-119230000D03*
X213246000Y-120500000D03*
X213246000Y-121770000D03*
X213246000Y-123040000D03*
D25*
X224896000Y-116400000D03*
X224896000Y-115000000D03*
X224196000Y-117100000D03*
X224196000Y-115700000D03*
X224196000Y-114300000D03*
X223496000Y-116400000D03*
D26*
X223496000Y-115700000D03*
D25*
X223496000Y-115000000D03*
X222796000Y-117100000D03*
X222796000Y-115700000D03*
X222796000Y-114300000D03*
X222096000Y-116400000D03*
X222096000Y-115000000D03*
%TD*%
D15*
%TO.C,R10*%
X206859500Y-104394000D03*
X208684500Y-104394000D03*
%TD*%
D14*
%TO.C,R4*%
X158496000Y-95400500D03*
X158496000Y-93575500D03*
%TD*%
D27*
%TO.C,D2*%
X231902000Y-78153500D03*
X230952000Y-76278500D03*
X232852000Y-76278500D03*
%TD*%
D28*
%TO.C,R8*%
X164488500Y-78232000D03*
X162663500Y-78232000D03*
%TD*%
D15*
%TO.C,R2*%
X176175500Y-78232000D03*
X178000500Y-78232000D03*
%TD*%
D29*
%TO.C,Conn1*%
X169688000Y-76454000D03*
D30*
X171688000Y-76454000D03*
%TD*%
D22*
%TO.C,H4*%
X157781355Y-130508645D03*
%TD*%
%TO.C,H3*%
X241046000Y-130556000D03*
%TD*%
%TO.C,BT1*%
X199390000Y-128746000D03*
X199390000Y-187196000D03*
D31*
X172790000Y-136446000D03*
X172790000Y-149146000D03*
%TD*%
D32*
%TO.C,U1*%
X182372000Y-120650000D03*
D33*
X182372000Y-118110000D03*
X182372000Y-115570000D03*
X182372000Y-110490000D03*
X182372000Y-107950000D03*
X182372000Y-105410000D03*
X182372000Y-102870000D03*
%TD*%
D34*
%TO.C,C1*%
X223520000Y-75845500D03*
X223520000Y-77570500D03*
%TD*%
D19*
%TO.C,C5*%
X162713500Y-75946000D03*
X164438500Y-75946000D03*
%TD*%
D22*
%TO.C,H6*%
X231902000Y-199136000D03*
%TD*%
D35*
%TO.C,SW1*%
X157226000Y-79942000D03*
X157226000Y-88142000D03*
D36*
X157226000Y-82042000D03*
D37*
X157226000Y-84042000D03*
X157226000Y-86042000D03*
%TD*%
D38*
%TO.C,J1*%
X207518000Y-114046000D03*
D39*
X207518000Y-116586000D03*
X207518000Y-119126000D03*
X207518000Y-121666000D03*
%TD*%
D22*
%TO.C,H1*%
X241046000Y-65024000D03*
%TD*%
D40*
%TO.C,J3*%
X231846000Y-70130000D03*
D41*
X229346000Y-70130000D03*
X227346000Y-70130000D03*
X224846000Y-70130000D03*
D42*
X234916000Y-67420000D03*
X221776000Y-67420000D03*
%TD*%
D22*
%TO.C,H2*%
X157734000Y-65024000D03*
%TD*%
D29*
%TO.C,Conn2*%
X186976000Y-76454000D03*
D30*
X188976000Y-76454000D03*
X190976000Y-76454000D03*
%TD*%
D43*
%TO.C,U2*%
X170242000Y-107823000D03*
X170242000Y-106553000D03*
X170242000Y-105283000D03*
X170242000Y-104013000D03*
X165292000Y-104013000D03*
X165292000Y-105283000D03*
X165292000Y-106553000D03*
X165292000Y-107823000D03*
%TD*%
D44*
%TO.C,R3*%
X171831000Y-86296500D03*
X171831000Y-88121500D03*
%TD*%
D19*
%TO.C,C3*%
X169190500Y-111506000D03*
X170915500Y-111506000D03*
%TD*%
D44*
%TO.C,R6*%
X171831000Y-95036000D03*
X171831000Y-96861000D03*
%TD*%
%TO.C,R7*%
X163703000Y-90567500D03*
X163703000Y-92392500D03*
%TD*%
D20*
%TO.C,U5*%
X166497000Y-92344500D03*
X169037000Y-92344500D03*
X169037000Y-86344500D03*
X166497000Y-86344500D03*
%TD*%
D45*
%TO.C,D3*%
X158496000Y-100838000D03*
D31*
X158496000Y-103378000D03*
%TD*%
D44*
%TO.C,R5*%
X163703000Y-99203500D03*
X163703000Y-101028500D03*
%TD*%
D46*
%TO.C,SW9*%
X199596000Y-102782000D03*
X199596000Y-109982000D03*
X196596000Y-102782000D03*
X196596000Y-109982000D03*
%TD*%
%TO.C,SW8*%
X199596000Y-115316000D03*
X199596000Y-122516000D03*
X196596000Y-115316000D03*
X196596000Y-122516000D03*
%TD*%
D21*
%TO.C,C2*%
X166597500Y-111506000D03*
X164872500Y-111506000D03*
%TD*%
D47*
%TO.C,D1*%
X175006000Y-118110000D03*
X173131000Y-119060000D03*
X173131000Y-117160000D03*
%TD*%
D22*
%TO.C,U7*%
X241150000Y-73524000D03*
X157850000Y-73524000D03*
X241150000Y-122564000D03*
X157850000Y-122564000D03*
D38*
X242150000Y-81534000D03*
D39*
X242150000Y-84074000D03*
X242150000Y-86614000D03*
X242150000Y-89154000D03*
X242150000Y-91694000D03*
X242150000Y-94234000D03*
X242150000Y-96774000D03*
X242150000Y-99314000D03*
X242150000Y-101854000D03*
X242150000Y-104394000D03*
X242150000Y-106934000D03*
X242150000Y-109474000D03*
X242150000Y-112014000D03*
X242150000Y-114554000D03*
%TD*%
M02*
