%TF.GenerationSoftware,KiCad,Pcbnew,8.0.5*%
%TF.CreationDate,2024-11-15T14:25:52-06:00*%
%TF.ProjectId,Hardware,48617264-7761-4726-952e-6b696361645f,rev?*%
%TF.SameCoordinates,Original*%
%TF.FileFunction,Legend,Top*%
%TF.FilePolarity,Positive*%
%FSLAX46Y46*%
G04 Gerber Fmt 4.6, Leading zero omitted, Abs format (unit mm)*
G04 Created by KiCad (PCBNEW 8.0.5) date 2024-11-15 14:25:52*
%MOMM*%
%LPD*%
G01*
G04 APERTURE LIST*
%ADD10C,0.150000*%
%ADD11C,0.203200*%
%ADD12C,0.200000*%
%ADD13C,0.254000*%
%ADD14C,0.100000*%
%ADD15C,0.120000*%
%ADD16C,0.127000*%
%ADD17C,0.000000*%
G04 APERTURE END LIST*
D10*
X198120000Y-74676000D02*
X198120000Y-79248000D01*
X193036000Y-74644000D02*
X200660000Y-74644000D01*
X200660000Y-79364000D01*
X193036000Y-79364000D01*
X193036000Y-74644000D01*
X195580000Y-74676000D02*
X195580000Y-79248000D01*
X196846866Y-78403220D02*
X196846866Y-77641316D01*
X197227819Y-78022268D02*
X196465914Y-78022268D01*
X196227819Y-76688935D02*
X196227819Y-77165125D01*
X196227819Y-77165125D02*
X196704009Y-77212744D01*
X196704009Y-77212744D02*
X196656390Y-77165125D01*
X196656390Y-77165125D02*
X196608771Y-77069887D01*
X196608771Y-77069887D02*
X196608771Y-76831792D01*
X196608771Y-76831792D02*
X196656390Y-76736554D01*
X196656390Y-76736554D02*
X196704009Y-76688935D01*
X196704009Y-76688935D02*
X196799247Y-76641316D01*
X196799247Y-76641316D02*
X197037342Y-76641316D01*
X197037342Y-76641316D02*
X197132580Y-76688935D01*
X197132580Y-76688935D02*
X197180200Y-76736554D01*
X197180200Y-76736554D02*
X197227819Y-76831792D01*
X197227819Y-76831792D02*
X197227819Y-77069887D01*
X197227819Y-77069887D02*
X197180200Y-77165125D01*
X197180200Y-77165125D02*
X197132580Y-77212744D01*
X196227819Y-76355601D02*
X197227819Y-76022268D01*
X197227819Y-76022268D02*
X196227819Y-75688935D01*
D11*
X170071779Y-82771056D02*
X170011303Y-82831533D01*
X170011303Y-82831533D02*
X169829874Y-82892009D01*
X169829874Y-82892009D02*
X169708922Y-82892009D01*
X169708922Y-82892009D02*
X169527493Y-82831533D01*
X169527493Y-82831533D02*
X169406541Y-82710580D01*
X169406541Y-82710580D02*
X169346064Y-82589628D01*
X169346064Y-82589628D02*
X169285588Y-82347723D01*
X169285588Y-82347723D02*
X169285588Y-82166294D01*
X169285588Y-82166294D02*
X169346064Y-81924390D01*
X169346064Y-81924390D02*
X169406541Y-81803437D01*
X169406541Y-81803437D02*
X169527493Y-81682485D01*
X169527493Y-81682485D02*
X169708922Y-81622009D01*
X169708922Y-81622009D02*
X169829874Y-81622009D01*
X169829874Y-81622009D02*
X170011303Y-81682485D01*
X170011303Y-81682485D02*
X170071779Y-81742961D01*
X170555588Y-82529152D02*
X171160350Y-82529152D01*
X170434636Y-82892009D02*
X170857969Y-81622009D01*
X170857969Y-81622009D02*
X171281303Y-82892009D01*
X171704635Y-82892009D02*
X171704635Y-81622009D01*
X171704635Y-81622009D02*
X172430350Y-82892009D01*
X172430350Y-82892009D02*
X172430350Y-81622009D01*
D10*
X203187541Y-113677819D02*
X203806588Y-113677819D01*
X203806588Y-113677819D02*
X203473255Y-114058771D01*
X203473255Y-114058771D02*
X203616112Y-114058771D01*
X203616112Y-114058771D02*
X203711350Y-114106390D01*
X203711350Y-114106390D02*
X203758969Y-114154009D01*
X203758969Y-114154009D02*
X203806588Y-114249247D01*
X203806588Y-114249247D02*
X203806588Y-114487342D01*
X203806588Y-114487342D02*
X203758969Y-114582580D01*
X203758969Y-114582580D02*
X203711350Y-114630200D01*
X203711350Y-114630200D02*
X203616112Y-114677819D01*
X203616112Y-114677819D02*
X203330398Y-114677819D01*
X203330398Y-114677819D02*
X203235160Y-114630200D01*
X203235160Y-114630200D02*
X203187541Y-114582580D01*
X204139922Y-114011152D02*
X204378017Y-114677819D01*
X204378017Y-114677819D02*
X204616112Y-114011152D01*
X204901827Y-113677819D02*
X205520874Y-113677819D01*
X205520874Y-113677819D02*
X205187541Y-114058771D01*
X205187541Y-114058771D02*
X205330398Y-114058771D01*
X205330398Y-114058771D02*
X205425636Y-114106390D01*
X205425636Y-114106390D02*
X205473255Y-114154009D01*
X205473255Y-114154009D02*
X205520874Y-114249247D01*
X205520874Y-114249247D02*
X205520874Y-114487342D01*
X205520874Y-114487342D02*
X205473255Y-114582580D01*
X205473255Y-114582580D02*
X205425636Y-114630200D01*
X205425636Y-114630200D02*
X205330398Y-114677819D01*
X205330398Y-114677819D02*
X205044684Y-114677819D01*
X205044684Y-114677819D02*
X204949446Y-114630200D01*
X204949446Y-114630200D02*
X204901827Y-114582580D01*
X193989438Y-77625411D02*
X193941819Y-77720649D01*
X193941819Y-77720649D02*
X193941819Y-77863506D01*
X193941819Y-77863506D02*
X193989438Y-78006363D01*
X193989438Y-78006363D02*
X194084676Y-78101601D01*
X194084676Y-78101601D02*
X194179914Y-78149220D01*
X194179914Y-78149220D02*
X194370390Y-78196839D01*
X194370390Y-78196839D02*
X194513247Y-78196839D01*
X194513247Y-78196839D02*
X194703723Y-78149220D01*
X194703723Y-78149220D02*
X194798961Y-78101601D01*
X194798961Y-78101601D02*
X194894200Y-78006363D01*
X194894200Y-78006363D02*
X194941819Y-77863506D01*
X194941819Y-77863506D02*
X194941819Y-77768268D01*
X194941819Y-77768268D02*
X194894200Y-77625411D01*
X194894200Y-77625411D02*
X194846580Y-77577792D01*
X194846580Y-77577792D02*
X194513247Y-77577792D01*
X194513247Y-77577792D02*
X194513247Y-77768268D01*
X194941819Y-77149220D02*
X193941819Y-77149220D01*
X193941819Y-77149220D02*
X194941819Y-76577792D01*
X194941819Y-76577792D02*
X193941819Y-76577792D01*
X194941819Y-76101601D02*
X193941819Y-76101601D01*
X193941819Y-76101601D02*
X193941819Y-75863506D01*
X193941819Y-75863506D02*
X193989438Y-75720649D01*
X193989438Y-75720649D02*
X194084676Y-75625411D01*
X194084676Y-75625411D02*
X194179914Y-75577792D01*
X194179914Y-75577792D02*
X194370390Y-75530173D01*
X194370390Y-75530173D02*
X194513247Y-75530173D01*
X194513247Y-75530173D02*
X194703723Y-75577792D01*
X194703723Y-75577792D02*
X194798961Y-75625411D01*
X194798961Y-75625411D02*
X194894200Y-75720649D01*
X194894200Y-75720649D02*
X194941819Y-75863506D01*
X194941819Y-75863506D02*
X194941819Y-76101601D01*
D12*
X168263673Y-136392266D02*
X169025578Y-136392266D01*
X168644625Y-136773219D02*
X168644625Y-136011314D01*
D10*
X173786969Y-80895819D02*
X173310779Y-80895819D01*
X173310779Y-80895819D02*
X173310779Y-79895819D01*
X203806588Y-121091438D02*
X203711350Y-121043819D01*
X203711350Y-121043819D02*
X203568493Y-121043819D01*
X203568493Y-121043819D02*
X203425636Y-121091438D01*
X203425636Y-121091438D02*
X203330398Y-121186676D01*
X203330398Y-121186676D02*
X203282779Y-121281914D01*
X203282779Y-121281914D02*
X203235160Y-121472390D01*
X203235160Y-121472390D02*
X203235160Y-121615247D01*
X203235160Y-121615247D02*
X203282779Y-121805723D01*
X203282779Y-121805723D02*
X203330398Y-121900961D01*
X203330398Y-121900961D02*
X203425636Y-121996200D01*
X203425636Y-121996200D02*
X203568493Y-122043819D01*
X203568493Y-122043819D02*
X203663731Y-122043819D01*
X203663731Y-122043819D02*
X203806588Y-121996200D01*
X203806588Y-121996200D02*
X203854207Y-121948580D01*
X203854207Y-121948580D02*
X203854207Y-121615247D01*
X203854207Y-121615247D02*
X203663731Y-121615247D01*
X204282779Y-122043819D02*
X204282779Y-121043819D01*
X204282779Y-121043819D02*
X204854207Y-122043819D01*
X204854207Y-122043819D02*
X204854207Y-121043819D01*
X205330398Y-122043819D02*
X205330398Y-121043819D01*
X205330398Y-121043819D02*
X205568493Y-121043819D01*
X205568493Y-121043819D02*
X205711350Y-121091438D01*
X205711350Y-121091438D02*
X205806588Y-121186676D01*
X205806588Y-121186676D02*
X205854207Y-121281914D01*
X205854207Y-121281914D02*
X205901826Y-121472390D01*
X205901826Y-121472390D02*
X205901826Y-121615247D01*
X205901826Y-121615247D02*
X205854207Y-121805723D01*
X205854207Y-121805723D02*
X205806588Y-121900961D01*
X205806588Y-121900961D02*
X205711350Y-121996200D01*
X205711350Y-121996200D02*
X205568493Y-122043819D01*
X205568493Y-122043819D02*
X205330398Y-122043819D01*
X167722779Y-80895819D02*
X167722779Y-79895819D01*
X167722779Y-80372009D02*
X168294207Y-80372009D01*
X168294207Y-80895819D02*
X168294207Y-79895819D01*
X194418009Y-119551220D02*
X194418009Y-119217887D01*
X194941819Y-119075030D02*
X194941819Y-119551220D01*
X194941819Y-119551220D02*
X193941819Y-119551220D01*
X193941819Y-119551220D02*
X193941819Y-119075030D01*
X194941819Y-118646458D02*
X193941819Y-118646458D01*
X193941819Y-118646458D02*
X194941819Y-118075030D01*
X194941819Y-118075030D02*
X193941819Y-118075030D01*
X203854207Y-116963819D02*
X203520874Y-116487628D01*
X203282779Y-116963819D02*
X203282779Y-115963819D01*
X203282779Y-115963819D02*
X203663731Y-115963819D01*
X203663731Y-115963819D02*
X203758969Y-116011438D01*
X203758969Y-116011438D02*
X203806588Y-116059057D01*
X203806588Y-116059057D02*
X203854207Y-116154295D01*
X203854207Y-116154295D02*
X203854207Y-116297152D01*
X203854207Y-116297152D02*
X203806588Y-116392390D01*
X203806588Y-116392390D02*
X203758969Y-116440009D01*
X203758969Y-116440009D02*
X203663731Y-116487628D01*
X203663731Y-116487628D02*
X203282779Y-116487628D01*
X204187541Y-115963819D02*
X204854207Y-116963819D01*
X204854207Y-115963819D02*
X204187541Y-116963819D01*
D13*
X173011676Y-193369296D02*
X173759105Y-193369296D01*
X173385390Y-194677296D02*
X173385390Y-193369296D01*
X174693390Y-194615011D02*
X174568818Y-194677296D01*
X174568818Y-194677296D02*
X174319676Y-194677296D01*
X174319676Y-194677296D02*
X174195104Y-194615011D01*
X174195104Y-194615011D02*
X174132818Y-194490439D01*
X174132818Y-194490439D02*
X174132818Y-193992153D01*
X174132818Y-193992153D02*
X174195104Y-193867582D01*
X174195104Y-193867582D02*
X174319676Y-193805296D01*
X174319676Y-193805296D02*
X174568818Y-193805296D01*
X174568818Y-193805296D02*
X174693390Y-193867582D01*
X174693390Y-193867582D02*
X174755676Y-193992153D01*
X174755676Y-193992153D02*
X174755676Y-194116725D01*
X174755676Y-194116725D02*
X174132818Y-194241296D01*
X175253961Y-194615011D02*
X175378533Y-194677296D01*
X175378533Y-194677296D02*
X175627676Y-194677296D01*
X175627676Y-194677296D02*
X175752247Y-194615011D01*
X175752247Y-194615011D02*
X175814533Y-194490439D01*
X175814533Y-194490439D02*
X175814533Y-194428153D01*
X175814533Y-194428153D02*
X175752247Y-194303582D01*
X175752247Y-194303582D02*
X175627676Y-194241296D01*
X175627676Y-194241296D02*
X175440819Y-194241296D01*
X175440819Y-194241296D02*
X175316247Y-194179011D01*
X175316247Y-194179011D02*
X175253961Y-194054439D01*
X175253961Y-194054439D02*
X175253961Y-193992153D01*
X175253961Y-193992153D02*
X175316247Y-193867582D01*
X175316247Y-193867582D02*
X175440819Y-193805296D01*
X175440819Y-193805296D02*
X175627676Y-193805296D01*
X175627676Y-193805296D02*
X175752247Y-193867582D01*
X176188247Y-193805296D02*
X176686533Y-193805296D01*
X176375104Y-193369296D02*
X176375104Y-194490439D01*
X176375104Y-194490439D02*
X176437390Y-194615011D01*
X176437390Y-194615011D02*
X176561961Y-194677296D01*
X176561961Y-194677296D02*
X176686533Y-194677296D01*
X177620819Y-194615011D02*
X177496247Y-194677296D01*
X177496247Y-194677296D02*
X177247105Y-194677296D01*
X177247105Y-194677296D02*
X177122533Y-194615011D01*
X177122533Y-194615011D02*
X177060247Y-194490439D01*
X177060247Y-194490439D02*
X177060247Y-193992153D01*
X177060247Y-193992153D02*
X177122533Y-193867582D01*
X177122533Y-193867582D02*
X177247105Y-193805296D01*
X177247105Y-193805296D02*
X177496247Y-193805296D01*
X177496247Y-193805296D02*
X177620819Y-193867582D01*
X177620819Y-193867582D02*
X177683105Y-193992153D01*
X177683105Y-193992153D02*
X177683105Y-194116725D01*
X177683105Y-194116725D02*
X177060247Y-194241296D01*
X178243676Y-194677296D02*
X178243676Y-193805296D01*
X178243676Y-194054439D02*
X178305962Y-193929868D01*
X178305962Y-193929868D02*
X178368248Y-193867582D01*
X178368248Y-193867582D02*
X178492819Y-193805296D01*
X178492819Y-193805296D02*
X178617390Y-193805296D01*
X180485961Y-193992153D02*
X180672818Y-194054439D01*
X180672818Y-194054439D02*
X180735104Y-194116725D01*
X180735104Y-194116725D02*
X180797390Y-194241296D01*
X180797390Y-194241296D02*
X180797390Y-194428153D01*
X180797390Y-194428153D02*
X180735104Y-194552725D01*
X180735104Y-194552725D02*
X180672818Y-194615011D01*
X180672818Y-194615011D02*
X180548247Y-194677296D01*
X180548247Y-194677296D02*
X180049961Y-194677296D01*
X180049961Y-194677296D02*
X180049961Y-193369296D01*
X180049961Y-193369296D02*
X180485961Y-193369296D01*
X180485961Y-193369296D02*
X180610533Y-193431582D01*
X180610533Y-193431582D02*
X180672818Y-193493868D01*
X180672818Y-193493868D02*
X180735104Y-193618439D01*
X180735104Y-193618439D02*
X180735104Y-193743011D01*
X180735104Y-193743011D02*
X180672818Y-193867582D01*
X180672818Y-193867582D02*
X180610533Y-193929868D01*
X180610533Y-193929868D02*
X180485961Y-193992153D01*
X180485961Y-193992153D02*
X180049961Y-193992153D01*
X181544818Y-194677296D02*
X181420247Y-194615011D01*
X181420247Y-194615011D02*
X181357961Y-194552725D01*
X181357961Y-194552725D02*
X181295675Y-194428153D01*
X181295675Y-194428153D02*
X181295675Y-194054439D01*
X181295675Y-194054439D02*
X181357961Y-193929868D01*
X181357961Y-193929868D02*
X181420247Y-193867582D01*
X181420247Y-193867582D02*
X181544818Y-193805296D01*
X181544818Y-193805296D02*
X181731675Y-193805296D01*
X181731675Y-193805296D02*
X181856247Y-193867582D01*
X181856247Y-193867582D02*
X181918533Y-193929868D01*
X181918533Y-193929868D02*
X181980818Y-194054439D01*
X181980818Y-194054439D02*
X181980818Y-194428153D01*
X181980818Y-194428153D02*
X181918533Y-194552725D01*
X181918533Y-194552725D02*
X181856247Y-194615011D01*
X181856247Y-194615011D02*
X181731675Y-194677296D01*
X181731675Y-194677296D02*
X181544818Y-194677296D01*
X183101962Y-194677296D02*
X183101962Y-193992153D01*
X183101962Y-193992153D02*
X183039676Y-193867582D01*
X183039676Y-193867582D02*
X182915104Y-193805296D01*
X182915104Y-193805296D02*
X182665962Y-193805296D01*
X182665962Y-193805296D02*
X182541390Y-193867582D01*
X183101962Y-194615011D02*
X182977390Y-194677296D01*
X182977390Y-194677296D02*
X182665962Y-194677296D01*
X182665962Y-194677296D02*
X182541390Y-194615011D01*
X182541390Y-194615011D02*
X182479104Y-194490439D01*
X182479104Y-194490439D02*
X182479104Y-194365868D01*
X182479104Y-194365868D02*
X182541390Y-194241296D01*
X182541390Y-194241296D02*
X182665962Y-194179011D01*
X182665962Y-194179011D02*
X182977390Y-194179011D01*
X182977390Y-194179011D02*
X183101962Y-194116725D01*
X183724819Y-194677296D02*
X183724819Y-193805296D01*
X183724819Y-194054439D02*
X183787105Y-193929868D01*
X183787105Y-193929868D02*
X183849391Y-193867582D01*
X183849391Y-193867582D02*
X183973962Y-193805296D01*
X183973962Y-193805296D02*
X184098533Y-193805296D01*
X185095105Y-194677296D02*
X185095105Y-193369296D01*
X185095105Y-194615011D02*
X184970533Y-194677296D01*
X184970533Y-194677296D02*
X184721390Y-194677296D01*
X184721390Y-194677296D02*
X184596819Y-194615011D01*
X184596819Y-194615011D02*
X184534533Y-194552725D01*
X184534533Y-194552725D02*
X184472247Y-194428153D01*
X184472247Y-194428153D02*
X184472247Y-194054439D01*
X184472247Y-194054439D02*
X184534533Y-193929868D01*
X184534533Y-193929868D02*
X184596819Y-193867582D01*
X184596819Y-193867582D02*
X184721390Y-193805296D01*
X184721390Y-193805296D02*
X184970533Y-193805296D01*
X184970533Y-193805296D02*
X185095105Y-193867582D01*
X185780248Y-194615011D02*
X185780248Y-194677296D01*
X185780248Y-194677296D02*
X185717962Y-194801868D01*
X185717962Y-194801868D02*
X185655676Y-194864153D01*
X188084819Y-194677296D02*
X187648819Y-194054439D01*
X187337390Y-194677296D02*
X187337390Y-193369296D01*
X187337390Y-193369296D02*
X187835676Y-193369296D01*
X187835676Y-193369296D02*
X187960247Y-193431582D01*
X187960247Y-193431582D02*
X188022533Y-193493868D01*
X188022533Y-193493868D02*
X188084819Y-193618439D01*
X188084819Y-193618439D02*
X188084819Y-193805296D01*
X188084819Y-193805296D02*
X188022533Y-193929868D01*
X188022533Y-193929868D02*
X187960247Y-193992153D01*
X187960247Y-193992153D02*
X187835676Y-194054439D01*
X187835676Y-194054439D02*
X187337390Y-194054439D01*
X189143676Y-194615011D02*
X189019104Y-194677296D01*
X189019104Y-194677296D02*
X188769962Y-194677296D01*
X188769962Y-194677296D02*
X188645390Y-194615011D01*
X188645390Y-194615011D02*
X188583104Y-194490439D01*
X188583104Y-194490439D02*
X188583104Y-193992153D01*
X188583104Y-193992153D02*
X188645390Y-193867582D01*
X188645390Y-193867582D02*
X188769962Y-193805296D01*
X188769962Y-193805296D02*
X189019104Y-193805296D01*
X189019104Y-193805296D02*
X189143676Y-193867582D01*
X189143676Y-193867582D02*
X189205962Y-193992153D01*
X189205962Y-193992153D02*
X189205962Y-194116725D01*
X189205962Y-194116725D02*
X188583104Y-194241296D01*
X189641962Y-193805296D02*
X189953390Y-194677296D01*
X189953390Y-194677296D02*
X190264819Y-193805296D01*
X192444818Y-194677296D02*
X191697389Y-194677296D01*
X192071104Y-194677296D02*
X192071104Y-193369296D01*
X192071104Y-193369296D02*
X191946532Y-193556153D01*
X191946532Y-193556153D02*
X191821961Y-193680725D01*
X191821961Y-193680725D02*
X191697389Y-193743011D01*
X173198533Y-196783103D02*
X173198533Y-195475103D01*
X173198533Y-195475103D02*
X173634533Y-196409389D01*
X173634533Y-196409389D02*
X174070533Y-195475103D01*
X174070533Y-195475103D02*
X174070533Y-196783103D01*
X175253962Y-196783103D02*
X175253962Y-196097960D01*
X175253962Y-196097960D02*
X175191676Y-195973389D01*
X175191676Y-195973389D02*
X175067104Y-195911103D01*
X175067104Y-195911103D02*
X174817962Y-195911103D01*
X174817962Y-195911103D02*
X174693390Y-195973389D01*
X175253962Y-196720818D02*
X175129390Y-196783103D01*
X175129390Y-196783103D02*
X174817962Y-196783103D01*
X174817962Y-196783103D02*
X174693390Y-196720818D01*
X174693390Y-196720818D02*
X174631104Y-196596246D01*
X174631104Y-196596246D02*
X174631104Y-196471675D01*
X174631104Y-196471675D02*
X174693390Y-196347103D01*
X174693390Y-196347103D02*
X174817962Y-196284818D01*
X174817962Y-196284818D02*
X175129390Y-196284818D01*
X175129390Y-196284818D02*
X175253962Y-196222532D01*
X175876819Y-196783103D02*
X175876819Y-195911103D01*
X175876819Y-196160246D02*
X175939105Y-196035675D01*
X175939105Y-196035675D02*
X176001391Y-195973389D01*
X176001391Y-195973389D02*
X176125962Y-195911103D01*
X176125962Y-195911103D02*
X176250533Y-195911103D01*
X176624247Y-196720818D02*
X176748819Y-196783103D01*
X176748819Y-196783103D02*
X176997962Y-196783103D01*
X176997962Y-196783103D02*
X177122533Y-196720818D01*
X177122533Y-196720818D02*
X177184819Y-196596246D01*
X177184819Y-196596246D02*
X177184819Y-196533960D01*
X177184819Y-196533960D02*
X177122533Y-196409389D01*
X177122533Y-196409389D02*
X176997962Y-196347103D01*
X176997962Y-196347103D02*
X176811105Y-196347103D01*
X176811105Y-196347103D02*
X176686533Y-196284818D01*
X176686533Y-196284818D02*
X176624247Y-196160246D01*
X176624247Y-196160246D02*
X176624247Y-196097960D01*
X176624247Y-196097960D02*
X176686533Y-195973389D01*
X176686533Y-195973389D02*
X176811105Y-195911103D01*
X176811105Y-195911103D02*
X176997962Y-195911103D01*
X176997962Y-195911103D02*
X177122533Y-195973389D01*
X179489390Y-196783103D02*
X179053390Y-196160246D01*
X178741961Y-196783103D02*
X178741961Y-195475103D01*
X178741961Y-195475103D02*
X179240247Y-195475103D01*
X179240247Y-195475103D02*
X179364818Y-195537389D01*
X179364818Y-195537389D02*
X179427104Y-195599675D01*
X179427104Y-195599675D02*
X179489390Y-195724246D01*
X179489390Y-195724246D02*
X179489390Y-195911103D01*
X179489390Y-195911103D02*
X179427104Y-196035675D01*
X179427104Y-196035675D02*
X179364818Y-196097960D01*
X179364818Y-196097960D02*
X179240247Y-196160246D01*
X179240247Y-196160246D02*
X178741961Y-196160246D01*
X180236818Y-196783103D02*
X180112247Y-196720818D01*
X180112247Y-196720818D02*
X180049961Y-196658532D01*
X180049961Y-196658532D02*
X179987675Y-196533960D01*
X179987675Y-196533960D02*
X179987675Y-196160246D01*
X179987675Y-196160246D02*
X180049961Y-196035675D01*
X180049961Y-196035675D02*
X180112247Y-195973389D01*
X180112247Y-195973389D02*
X180236818Y-195911103D01*
X180236818Y-195911103D02*
X180423675Y-195911103D01*
X180423675Y-195911103D02*
X180548247Y-195973389D01*
X180548247Y-195973389D02*
X180610533Y-196035675D01*
X180610533Y-196035675D02*
X180672818Y-196160246D01*
X180672818Y-196160246D02*
X180672818Y-196533960D01*
X180672818Y-196533960D02*
X180610533Y-196658532D01*
X180610533Y-196658532D02*
X180548247Y-196720818D01*
X180548247Y-196720818D02*
X180423675Y-196783103D01*
X180423675Y-196783103D02*
X180236818Y-196783103D01*
X181108819Y-195911103D02*
X181420247Y-196783103D01*
X181420247Y-196783103D02*
X181731676Y-195911103D01*
X182728247Y-196720818D02*
X182603675Y-196783103D01*
X182603675Y-196783103D02*
X182354533Y-196783103D01*
X182354533Y-196783103D02*
X182229961Y-196720818D01*
X182229961Y-196720818D02*
X182167675Y-196596246D01*
X182167675Y-196596246D02*
X182167675Y-196097960D01*
X182167675Y-196097960D02*
X182229961Y-195973389D01*
X182229961Y-195973389D02*
X182354533Y-195911103D01*
X182354533Y-195911103D02*
X182603675Y-195911103D01*
X182603675Y-195911103D02*
X182728247Y-195973389D01*
X182728247Y-195973389D02*
X182790533Y-196097960D01*
X182790533Y-196097960D02*
X182790533Y-196222532D01*
X182790533Y-196222532D02*
X182167675Y-196347103D01*
X183351104Y-196783103D02*
X183351104Y-195911103D01*
X183351104Y-196160246D02*
X183413390Y-196035675D01*
X183413390Y-196035675D02*
X183475676Y-195973389D01*
X183475676Y-195973389D02*
X183600247Y-195911103D01*
X183600247Y-195911103D02*
X183724818Y-195911103D01*
X185157389Y-196783103D02*
X185157389Y-195475103D01*
X185157389Y-195475103D02*
X185468818Y-195475103D01*
X185468818Y-195475103D02*
X185655675Y-195537389D01*
X185655675Y-195537389D02*
X185780246Y-195661960D01*
X185780246Y-195661960D02*
X185842532Y-195786532D01*
X185842532Y-195786532D02*
X185904818Y-196035675D01*
X185904818Y-196035675D02*
X185904818Y-196222532D01*
X185904818Y-196222532D02*
X185842532Y-196471675D01*
X185842532Y-196471675D02*
X185780246Y-196596246D01*
X185780246Y-196596246D02*
X185655675Y-196720818D01*
X185655675Y-196720818D02*
X185468818Y-196783103D01*
X185468818Y-196783103D02*
X185157389Y-196783103D01*
X186963675Y-196720818D02*
X186839103Y-196783103D01*
X186839103Y-196783103D02*
X186589961Y-196783103D01*
X186589961Y-196783103D02*
X186465389Y-196720818D01*
X186465389Y-196720818D02*
X186403103Y-196596246D01*
X186403103Y-196596246D02*
X186403103Y-196097960D01*
X186403103Y-196097960D02*
X186465389Y-195973389D01*
X186465389Y-195973389D02*
X186589961Y-195911103D01*
X186589961Y-195911103D02*
X186839103Y-195911103D01*
X186839103Y-195911103D02*
X186963675Y-195973389D01*
X186963675Y-195973389D02*
X187025961Y-196097960D01*
X187025961Y-196097960D02*
X187025961Y-196222532D01*
X187025961Y-196222532D02*
X186403103Y-196347103D01*
X187524246Y-196720818D02*
X187648818Y-196783103D01*
X187648818Y-196783103D02*
X187897961Y-196783103D01*
X187897961Y-196783103D02*
X188022532Y-196720818D01*
X188022532Y-196720818D02*
X188084818Y-196596246D01*
X188084818Y-196596246D02*
X188084818Y-196533960D01*
X188084818Y-196533960D02*
X188022532Y-196409389D01*
X188022532Y-196409389D02*
X187897961Y-196347103D01*
X187897961Y-196347103D02*
X187711104Y-196347103D01*
X187711104Y-196347103D02*
X187586532Y-196284818D01*
X187586532Y-196284818D02*
X187524246Y-196160246D01*
X187524246Y-196160246D02*
X187524246Y-196097960D01*
X187524246Y-196097960D02*
X187586532Y-195973389D01*
X187586532Y-195973389D02*
X187711104Y-195911103D01*
X187711104Y-195911103D02*
X187897961Y-195911103D01*
X187897961Y-195911103D02*
X188022532Y-195973389D01*
X188645389Y-196783103D02*
X188645389Y-195911103D01*
X188645389Y-195475103D02*
X188583103Y-195537389D01*
X188583103Y-195537389D02*
X188645389Y-195599675D01*
X188645389Y-195599675D02*
X188707675Y-195537389D01*
X188707675Y-195537389D02*
X188645389Y-195475103D01*
X188645389Y-195475103D02*
X188645389Y-195599675D01*
X189828818Y-195911103D02*
X189828818Y-196969960D01*
X189828818Y-196969960D02*
X189766532Y-197094532D01*
X189766532Y-197094532D02*
X189704246Y-197156818D01*
X189704246Y-197156818D02*
X189579675Y-197219103D01*
X189579675Y-197219103D02*
X189392818Y-197219103D01*
X189392818Y-197219103D02*
X189268246Y-197156818D01*
X189828818Y-196720818D02*
X189704246Y-196783103D01*
X189704246Y-196783103D02*
X189455103Y-196783103D01*
X189455103Y-196783103D02*
X189330532Y-196720818D01*
X189330532Y-196720818D02*
X189268246Y-196658532D01*
X189268246Y-196658532D02*
X189205960Y-196533960D01*
X189205960Y-196533960D02*
X189205960Y-196160246D01*
X189205960Y-196160246D02*
X189268246Y-196035675D01*
X189268246Y-196035675D02*
X189330532Y-195973389D01*
X189330532Y-195973389D02*
X189455103Y-195911103D01*
X189455103Y-195911103D02*
X189704246Y-195911103D01*
X189704246Y-195911103D02*
X189828818Y-195973389D01*
X190451675Y-195911103D02*
X190451675Y-196783103D01*
X190451675Y-196035675D02*
X190513961Y-195973389D01*
X190513961Y-195973389D02*
X190638532Y-195911103D01*
X190638532Y-195911103D02*
X190825389Y-195911103D01*
X190825389Y-195911103D02*
X190949961Y-195973389D01*
X190949961Y-195973389D02*
X191012247Y-196097960D01*
X191012247Y-196097960D02*
X191012247Y-196783103D01*
X192444818Y-195475103D02*
X193192247Y-195475103D01*
X192818532Y-196783103D02*
X192818532Y-195475103D01*
X194126532Y-196720818D02*
X194001960Y-196783103D01*
X194001960Y-196783103D02*
X193752818Y-196783103D01*
X193752818Y-196783103D02*
X193628246Y-196720818D01*
X193628246Y-196720818D02*
X193565960Y-196596246D01*
X193565960Y-196596246D02*
X193565960Y-196097960D01*
X193565960Y-196097960D02*
X193628246Y-195973389D01*
X193628246Y-195973389D02*
X193752818Y-195911103D01*
X193752818Y-195911103D02*
X194001960Y-195911103D01*
X194001960Y-195911103D02*
X194126532Y-195973389D01*
X194126532Y-195973389D02*
X194188818Y-196097960D01*
X194188818Y-196097960D02*
X194188818Y-196222532D01*
X194188818Y-196222532D02*
X193565960Y-196347103D01*
X195309961Y-196783103D02*
X195309961Y-196097960D01*
X195309961Y-196097960D02*
X195247675Y-195973389D01*
X195247675Y-195973389D02*
X195123103Y-195911103D01*
X195123103Y-195911103D02*
X194873961Y-195911103D01*
X194873961Y-195911103D02*
X194749389Y-195973389D01*
X195309961Y-196720818D02*
X195185389Y-196783103D01*
X195185389Y-196783103D02*
X194873961Y-196783103D01*
X194873961Y-196783103D02*
X194749389Y-196720818D01*
X194749389Y-196720818D02*
X194687103Y-196596246D01*
X194687103Y-196596246D02*
X194687103Y-196471675D01*
X194687103Y-196471675D02*
X194749389Y-196347103D01*
X194749389Y-196347103D02*
X194873961Y-196284818D01*
X194873961Y-196284818D02*
X195185389Y-196284818D01*
X195185389Y-196284818D02*
X195309961Y-196222532D01*
X195932818Y-196783103D02*
X195932818Y-195911103D01*
X195932818Y-196035675D02*
X195995104Y-195973389D01*
X195995104Y-195973389D02*
X196119675Y-195911103D01*
X196119675Y-195911103D02*
X196306532Y-195911103D01*
X196306532Y-195911103D02*
X196431104Y-195973389D01*
X196431104Y-195973389D02*
X196493390Y-196097960D01*
X196493390Y-196097960D02*
X196493390Y-196783103D01*
X196493390Y-196097960D02*
X196555675Y-195973389D01*
X196555675Y-195973389D02*
X196680247Y-195911103D01*
X196680247Y-195911103D02*
X196867104Y-195911103D01*
X196867104Y-195911103D02*
X196991675Y-195973389D01*
X196991675Y-195973389D02*
X197053961Y-196097960D01*
X197053961Y-196097960D02*
X197053961Y-196783103D01*
X173198533Y-198888910D02*
X173198533Y-197580910D01*
X173198533Y-197580910D02*
X173634533Y-198515196D01*
X173634533Y-198515196D02*
X174070533Y-197580910D01*
X174070533Y-197580910D02*
X174070533Y-198888910D01*
X174693390Y-198888910D02*
X174693390Y-198016910D01*
X174693390Y-197580910D02*
X174631104Y-197643196D01*
X174631104Y-197643196D02*
X174693390Y-197705482D01*
X174693390Y-197705482D02*
X174755676Y-197643196D01*
X174755676Y-197643196D02*
X174693390Y-197580910D01*
X174693390Y-197580910D02*
X174693390Y-197705482D01*
X175253961Y-198826625D02*
X175378533Y-198888910D01*
X175378533Y-198888910D02*
X175627676Y-198888910D01*
X175627676Y-198888910D02*
X175752247Y-198826625D01*
X175752247Y-198826625D02*
X175814533Y-198702053D01*
X175814533Y-198702053D02*
X175814533Y-198639767D01*
X175814533Y-198639767D02*
X175752247Y-198515196D01*
X175752247Y-198515196D02*
X175627676Y-198452910D01*
X175627676Y-198452910D02*
X175440819Y-198452910D01*
X175440819Y-198452910D02*
X175316247Y-198390625D01*
X175316247Y-198390625D02*
X175253961Y-198266053D01*
X175253961Y-198266053D02*
X175253961Y-198203767D01*
X175253961Y-198203767D02*
X175316247Y-198079196D01*
X175316247Y-198079196D02*
X175440819Y-198016910D01*
X175440819Y-198016910D02*
X175627676Y-198016910D01*
X175627676Y-198016910D02*
X175752247Y-198079196D01*
X176312818Y-198826625D02*
X176437390Y-198888910D01*
X176437390Y-198888910D02*
X176686533Y-198888910D01*
X176686533Y-198888910D02*
X176811104Y-198826625D01*
X176811104Y-198826625D02*
X176873390Y-198702053D01*
X176873390Y-198702053D02*
X176873390Y-198639767D01*
X176873390Y-198639767D02*
X176811104Y-198515196D01*
X176811104Y-198515196D02*
X176686533Y-198452910D01*
X176686533Y-198452910D02*
X176499676Y-198452910D01*
X176499676Y-198452910D02*
X176375104Y-198390625D01*
X176375104Y-198390625D02*
X176312818Y-198266053D01*
X176312818Y-198266053D02*
X176312818Y-198203767D01*
X176312818Y-198203767D02*
X176375104Y-198079196D01*
X176375104Y-198079196D02*
X176499676Y-198016910D01*
X176499676Y-198016910D02*
X176686533Y-198016910D01*
X176686533Y-198016910D02*
X176811104Y-198079196D01*
X177620818Y-198888910D02*
X177496247Y-198826625D01*
X177496247Y-198826625D02*
X177433961Y-198764339D01*
X177433961Y-198764339D02*
X177371675Y-198639767D01*
X177371675Y-198639767D02*
X177371675Y-198266053D01*
X177371675Y-198266053D02*
X177433961Y-198141482D01*
X177433961Y-198141482D02*
X177496247Y-198079196D01*
X177496247Y-198079196D02*
X177620818Y-198016910D01*
X177620818Y-198016910D02*
X177807675Y-198016910D01*
X177807675Y-198016910D02*
X177932247Y-198079196D01*
X177932247Y-198079196D02*
X177994533Y-198141482D01*
X177994533Y-198141482D02*
X178056818Y-198266053D01*
X178056818Y-198266053D02*
X178056818Y-198639767D01*
X178056818Y-198639767D02*
X177994533Y-198764339D01*
X177994533Y-198764339D02*
X177932247Y-198826625D01*
X177932247Y-198826625D02*
X177807675Y-198888910D01*
X177807675Y-198888910D02*
X177620818Y-198888910D01*
X179177962Y-198016910D02*
X179177962Y-198888910D01*
X178617390Y-198016910D02*
X178617390Y-198702053D01*
X178617390Y-198702053D02*
X178679676Y-198826625D01*
X178679676Y-198826625D02*
X178804247Y-198888910D01*
X178804247Y-198888910D02*
X178991104Y-198888910D01*
X178991104Y-198888910D02*
X179115676Y-198826625D01*
X179115676Y-198826625D02*
X179177962Y-198764339D01*
X179800819Y-198888910D02*
X179800819Y-198016910D01*
X179800819Y-198266053D02*
X179863105Y-198141482D01*
X179863105Y-198141482D02*
X179925391Y-198079196D01*
X179925391Y-198079196D02*
X180049962Y-198016910D01*
X180049962Y-198016910D02*
X180174533Y-198016910D01*
X180610533Y-198888910D02*
X180610533Y-198016910D01*
X180610533Y-197580910D02*
X180548247Y-197643196D01*
X180548247Y-197643196D02*
X180610533Y-197705482D01*
X180610533Y-197705482D02*
X180672819Y-197643196D01*
X180672819Y-197643196D02*
X180610533Y-197580910D01*
X180610533Y-197580910D02*
X180610533Y-197705482D01*
X182167675Y-198826625D02*
X182354533Y-198888910D01*
X182354533Y-198888910D02*
X182665961Y-198888910D01*
X182665961Y-198888910D02*
X182790533Y-198826625D01*
X182790533Y-198826625D02*
X182852818Y-198764339D01*
X182852818Y-198764339D02*
X182915104Y-198639767D01*
X182915104Y-198639767D02*
X182915104Y-198515196D01*
X182915104Y-198515196D02*
X182852818Y-198390625D01*
X182852818Y-198390625D02*
X182790533Y-198328339D01*
X182790533Y-198328339D02*
X182665961Y-198266053D01*
X182665961Y-198266053D02*
X182416818Y-198203767D01*
X182416818Y-198203767D02*
X182292247Y-198141482D01*
X182292247Y-198141482D02*
X182229961Y-198079196D01*
X182229961Y-198079196D02*
X182167675Y-197954625D01*
X182167675Y-197954625D02*
X182167675Y-197830053D01*
X182167675Y-197830053D02*
X182229961Y-197705482D01*
X182229961Y-197705482D02*
X182292247Y-197643196D01*
X182292247Y-197643196D02*
X182416818Y-197580910D01*
X182416818Y-197580910D02*
X182728247Y-197580910D01*
X182728247Y-197580910D02*
X182915104Y-197643196D01*
X184534532Y-198888910D02*
X184472247Y-198888910D01*
X184472247Y-198888910D02*
X184347675Y-198826625D01*
X184347675Y-198826625D02*
X184160818Y-198639767D01*
X184160818Y-198639767D02*
X183849389Y-198266053D01*
X183849389Y-198266053D02*
X183724818Y-198079196D01*
X183724818Y-198079196D02*
X183662532Y-197892339D01*
X183662532Y-197892339D02*
X183662532Y-197767767D01*
X183662532Y-197767767D02*
X183724818Y-197643196D01*
X183724818Y-197643196D02*
X183849389Y-197580910D01*
X183849389Y-197580910D02*
X183911675Y-197580910D01*
X183911675Y-197580910D02*
X184036247Y-197643196D01*
X184036247Y-197643196D02*
X184098532Y-197767767D01*
X184098532Y-197767767D02*
X184098532Y-197830053D01*
X184098532Y-197830053D02*
X184036247Y-197954625D01*
X184036247Y-197954625D02*
X183973961Y-198016910D01*
X183973961Y-198016910D02*
X183600247Y-198266053D01*
X183600247Y-198266053D02*
X183537961Y-198328339D01*
X183537961Y-198328339D02*
X183475675Y-198452910D01*
X183475675Y-198452910D02*
X183475675Y-198639767D01*
X183475675Y-198639767D02*
X183537961Y-198764339D01*
X183537961Y-198764339D02*
X183600247Y-198826625D01*
X183600247Y-198826625D02*
X183724818Y-198888910D01*
X183724818Y-198888910D02*
X183911675Y-198888910D01*
X183911675Y-198888910D02*
X184036247Y-198826625D01*
X184036247Y-198826625D02*
X184098532Y-198764339D01*
X184098532Y-198764339D02*
X184285389Y-198515196D01*
X184285389Y-198515196D02*
X184347675Y-198328339D01*
X184347675Y-198328339D02*
X184347675Y-198203767D01*
X184908247Y-197580910D02*
X185655676Y-197580910D01*
X185281961Y-198888910D02*
X185281961Y-197580910D01*
X186153961Y-198826625D02*
X186153961Y-198888910D01*
X186153961Y-198888910D02*
X186091675Y-199013482D01*
X186091675Y-199013482D02*
X186029389Y-199075767D01*
X187648817Y-197705482D02*
X187711103Y-197643196D01*
X187711103Y-197643196D02*
X187835675Y-197580910D01*
X187835675Y-197580910D02*
X188147103Y-197580910D01*
X188147103Y-197580910D02*
X188271675Y-197643196D01*
X188271675Y-197643196D02*
X188333960Y-197705482D01*
X188333960Y-197705482D02*
X188396246Y-197830053D01*
X188396246Y-197830053D02*
X188396246Y-197954625D01*
X188396246Y-197954625D02*
X188333960Y-198141482D01*
X188333960Y-198141482D02*
X187586532Y-198888910D01*
X187586532Y-198888910D02*
X188396246Y-198888910D01*
X189205960Y-197580910D02*
X189330531Y-197580910D01*
X189330531Y-197580910D02*
X189455103Y-197643196D01*
X189455103Y-197643196D02*
X189517389Y-197705482D01*
X189517389Y-197705482D02*
X189579674Y-197830053D01*
X189579674Y-197830053D02*
X189641960Y-198079196D01*
X189641960Y-198079196D02*
X189641960Y-198390625D01*
X189641960Y-198390625D02*
X189579674Y-198639767D01*
X189579674Y-198639767D02*
X189517389Y-198764339D01*
X189517389Y-198764339D02*
X189455103Y-198826625D01*
X189455103Y-198826625D02*
X189330531Y-198888910D01*
X189330531Y-198888910D02*
X189205960Y-198888910D01*
X189205960Y-198888910D02*
X189081389Y-198826625D01*
X189081389Y-198826625D02*
X189019103Y-198764339D01*
X189019103Y-198764339D02*
X188956817Y-198639767D01*
X188956817Y-198639767D02*
X188894531Y-198390625D01*
X188894531Y-198390625D02*
X188894531Y-198079196D01*
X188894531Y-198079196D02*
X188956817Y-197830053D01*
X188956817Y-197830053D02*
X189019103Y-197705482D01*
X189019103Y-197705482D02*
X189081389Y-197643196D01*
X189081389Y-197643196D02*
X189205960Y-197580910D01*
X190140245Y-197705482D02*
X190202531Y-197643196D01*
X190202531Y-197643196D02*
X190327103Y-197580910D01*
X190327103Y-197580910D02*
X190638531Y-197580910D01*
X190638531Y-197580910D02*
X190763103Y-197643196D01*
X190763103Y-197643196D02*
X190825388Y-197705482D01*
X190825388Y-197705482D02*
X190887674Y-197830053D01*
X190887674Y-197830053D02*
X190887674Y-197954625D01*
X190887674Y-197954625D02*
X190825388Y-198141482D01*
X190825388Y-198141482D02*
X190077960Y-198888910D01*
X190077960Y-198888910D02*
X190887674Y-198888910D01*
X192071102Y-197580910D02*
X191448245Y-197580910D01*
X191448245Y-197580910D02*
X191385959Y-198203767D01*
X191385959Y-198203767D02*
X191448245Y-198141482D01*
X191448245Y-198141482D02*
X191572817Y-198079196D01*
X191572817Y-198079196D02*
X191884245Y-198079196D01*
X191884245Y-198079196D02*
X192008817Y-198141482D01*
X192008817Y-198141482D02*
X192071102Y-198203767D01*
X192071102Y-198203767D02*
X192133388Y-198328339D01*
X192133388Y-198328339D02*
X192133388Y-198639767D01*
X192133388Y-198639767D02*
X192071102Y-198764339D01*
X192071102Y-198764339D02*
X192008817Y-198826625D01*
X192008817Y-198826625D02*
X191884245Y-198888910D01*
X191884245Y-198888910D02*
X191572817Y-198888910D01*
X191572817Y-198888910D02*
X191448245Y-198826625D01*
X191448245Y-198826625D02*
X191385959Y-198764339D01*
X173198533Y-200994717D02*
X173198533Y-199686717D01*
X173198533Y-199686717D02*
X173509962Y-199686717D01*
X173509962Y-199686717D02*
X173696819Y-199749003D01*
X173696819Y-199749003D02*
X173821390Y-199873574D01*
X173821390Y-199873574D02*
X173883676Y-199998146D01*
X173883676Y-199998146D02*
X173945962Y-200247289D01*
X173945962Y-200247289D02*
X173945962Y-200434146D01*
X173945962Y-200434146D02*
X173883676Y-200683289D01*
X173883676Y-200683289D02*
X173821390Y-200807860D01*
X173821390Y-200807860D02*
X173696819Y-200932432D01*
X173696819Y-200932432D02*
X173509962Y-200994717D01*
X173509962Y-200994717D02*
X173198533Y-200994717D01*
X174693390Y-200994717D02*
X174568819Y-200932432D01*
X174568819Y-200932432D02*
X174506533Y-200870146D01*
X174506533Y-200870146D02*
X174444247Y-200745574D01*
X174444247Y-200745574D02*
X174444247Y-200371860D01*
X174444247Y-200371860D02*
X174506533Y-200247289D01*
X174506533Y-200247289D02*
X174568819Y-200185003D01*
X174568819Y-200185003D02*
X174693390Y-200122717D01*
X174693390Y-200122717D02*
X174880247Y-200122717D01*
X174880247Y-200122717D02*
X175004819Y-200185003D01*
X175004819Y-200185003D02*
X175067105Y-200247289D01*
X175067105Y-200247289D02*
X175129390Y-200371860D01*
X175129390Y-200371860D02*
X175129390Y-200745574D01*
X175129390Y-200745574D02*
X175067105Y-200870146D01*
X175067105Y-200870146D02*
X175004819Y-200932432D01*
X175004819Y-200932432D02*
X174880247Y-200994717D01*
X174880247Y-200994717D02*
X174693390Y-200994717D01*
X175689962Y-200122717D02*
X175689962Y-200994717D01*
X175689962Y-200247289D02*
X175752248Y-200185003D01*
X175752248Y-200185003D02*
X175876819Y-200122717D01*
X175876819Y-200122717D02*
X176063676Y-200122717D01*
X176063676Y-200122717D02*
X176188248Y-200185003D01*
X176188248Y-200185003D02*
X176250534Y-200309574D01*
X176250534Y-200309574D02*
X176250534Y-200994717D01*
X177060248Y-200994717D02*
X176935677Y-200932432D01*
X176935677Y-200932432D02*
X176873391Y-200870146D01*
X176873391Y-200870146D02*
X176811105Y-200745574D01*
X176811105Y-200745574D02*
X176811105Y-200371860D01*
X176811105Y-200371860D02*
X176873391Y-200247289D01*
X176873391Y-200247289D02*
X176935677Y-200185003D01*
X176935677Y-200185003D02*
X177060248Y-200122717D01*
X177060248Y-200122717D02*
X177247105Y-200122717D01*
X177247105Y-200122717D02*
X177371677Y-200185003D01*
X177371677Y-200185003D02*
X177433963Y-200247289D01*
X177433963Y-200247289D02*
X177496248Y-200371860D01*
X177496248Y-200371860D02*
X177496248Y-200745574D01*
X177496248Y-200745574D02*
X177433963Y-200870146D01*
X177433963Y-200870146D02*
X177371677Y-200932432D01*
X177371677Y-200932432D02*
X177247105Y-200994717D01*
X177247105Y-200994717D02*
X177060248Y-200994717D01*
X177932249Y-200122717D02*
X178243677Y-200994717D01*
X178243677Y-200994717D02*
X178555106Y-200122717D01*
X179613963Y-200994717D02*
X179613963Y-200309574D01*
X179613963Y-200309574D02*
X179551677Y-200185003D01*
X179551677Y-200185003D02*
X179427105Y-200122717D01*
X179427105Y-200122717D02*
X179177963Y-200122717D01*
X179177963Y-200122717D02*
X179053391Y-200185003D01*
X179613963Y-200932432D02*
X179489391Y-200994717D01*
X179489391Y-200994717D02*
X179177963Y-200994717D01*
X179177963Y-200994717D02*
X179053391Y-200932432D01*
X179053391Y-200932432D02*
X178991105Y-200807860D01*
X178991105Y-200807860D02*
X178991105Y-200683289D01*
X178991105Y-200683289D02*
X179053391Y-200558717D01*
X179053391Y-200558717D02*
X179177963Y-200496432D01*
X179177963Y-200496432D02*
X179489391Y-200496432D01*
X179489391Y-200496432D02*
X179613963Y-200434146D01*
X180236820Y-200122717D02*
X180236820Y-200994717D01*
X180236820Y-200247289D02*
X180299106Y-200185003D01*
X180299106Y-200185003D02*
X180423677Y-200122717D01*
X180423677Y-200122717D02*
X180610534Y-200122717D01*
X180610534Y-200122717D02*
X180735106Y-200185003D01*
X180735106Y-200185003D02*
X180797392Y-200309574D01*
X180797392Y-200309574D02*
X180797392Y-200994717D01*
X182665963Y-200371860D02*
X182665963Y-200994717D01*
X182229963Y-199686717D02*
X182665963Y-200371860D01*
X182665963Y-200371860D02*
X183101963Y-199686717D01*
X184098535Y-200994717D02*
X184098535Y-200309574D01*
X184098535Y-200309574D02*
X184036249Y-200185003D01*
X184036249Y-200185003D02*
X183911677Y-200122717D01*
X183911677Y-200122717D02*
X183662535Y-200122717D01*
X183662535Y-200122717D02*
X183537963Y-200185003D01*
X184098535Y-200932432D02*
X183973963Y-200994717D01*
X183973963Y-200994717D02*
X183662535Y-200994717D01*
X183662535Y-200994717D02*
X183537963Y-200932432D01*
X183537963Y-200932432D02*
X183475677Y-200807860D01*
X183475677Y-200807860D02*
X183475677Y-200683289D01*
X183475677Y-200683289D02*
X183537963Y-200558717D01*
X183537963Y-200558717D02*
X183662535Y-200496432D01*
X183662535Y-200496432D02*
X183973963Y-200496432D01*
X183973963Y-200496432D02*
X184098535Y-200434146D01*
X184596821Y-200122717D02*
X184908249Y-200994717D01*
X184908249Y-200994717D02*
X185219678Y-200122717D01*
X185717963Y-200994717D02*
X185717963Y-200122717D01*
X185717963Y-199686717D02*
X185655677Y-199749003D01*
X185655677Y-199749003D02*
X185717963Y-199811289D01*
X185717963Y-199811289D02*
X185780249Y-199749003D01*
X185780249Y-199749003D02*
X185717963Y-199686717D01*
X185717963Y-199686717D02*
X185717963Y-199811289D01*
X186153963Y-200122717D02*
X186652249Y-200122717D01*
X186340820Y-199686717D02*
X186340820Y-200807860D01*
X186340820Y-200807860D02*
X186403106Y-200932432D01*
X186403106Y-200932432D02*
X186527677Y-200994717D01*
X186527677Y-200994717D02*
X186652249Y-200994717D01*
X186963678Y-200122717D02*
X187648821Y-200122717D01*
X187648821Y-200122717D02*
X186963678Y-200994717D01*
X186963678Y-200994717D02*
X187648821Y-200994717D01*
X188209392Y-200932432D02*
X188209392Y-200994717D01*
X188209392Y-200994717D02*
X188147106Y-201119289D01*
X188147106Y-201119289D02*
X188084820Y-201181574D01*
X189704248Y-200621003D02*
X190327106Y-200621003D01*
X189579677Y-200994717D02*
X190015677Y-199686717D01*
X190015677Y-199686717D02*
X190451677Y-200994717D01*
X191448249Y-200994717D02*
X191448249Y-199686717D01*
X191448249Y-200932432D02*
X191323677Y-200994717D01*
X191323677Y-200994717D02*
X191074534Y-200994717D01*
X191074534Y-200994717D02*
X190949963Y-200932432D01*
X190949963Y-200932432D02*
X190887677Y-200870146D01*
X190887677Y-200870146D02*
X190825391Y-200745574D01*
X190825391Y-200745574D02*
X190825391Y-200371860D01*
X190825391Y-200371860D02*
X190887677Y-200247289D01*
X190887677Y-200247289D02*
X190949963Y-200185003D01*
X190949963Y-200185003D02*
X191074534Y-200122717D01*
X191074534Y-200122717D02*
X191323677Y-200122717D01*
X191323677Y-200122717D02*
X191448249Y-200185003D01*
X192631678Y-200994717D02*
X192631678Y-200309574D01*
X192631678Y-200309574D02*
X192569392Y-200185003D01*
X192569392Y-200185003D02*
X192444820Y-200122717D01*
X192444820Y-200122717D02*
X192195678Y-200122717D01*
X192195678Y-200122717D02*
X192071106Y-200185003D01*
X192631678Y-200932432D02*
X192507106Y-200994717D01*
X192507106Y-200994717D02*
X192195678Y-200994717D01*
X192195678Y-200994717D02*
X192071106Y-200932432D01*
X192071106Y-200932432D02*
X192008820Y-200807860D01*
X192008820Y-200807860D02*
X192008820Y-200683289D01*
X192008820Y-200683289D02*
X192071106Y-200558717D01*
X192071106Y-200558717D02*
X192195678Y-200496432D01*
X192195678Y-200496432D02*
X192507106Y-200496432D01*
X192507106Y-200496432D02*
X192631678Y-200434146D01*
X193254535Y-200994717D02*
X193254535Y-200122717D01*
X193254535Y-200247289D02*
X193316821Y-200185003D01*
X193316821Y-200185003D02*
X193441392Y-200122717D01*
X193441392Y-200122717D02*
X193628249Y-200122717D01*
X193628249Y-200122717D02*
X193752821Y-200185003D01*
X193752821Y-200185003D02*
X193815107Y-200309574D01*
X193815107Y-200309574D02*
X193815107Y-200994717D01*
X193815107Y-200309574D02*
X193877392Y-200185003D01*
X193877392Y-200185003D02*
X194001964Y-200122717D01*
X194001964Y-200122717D02*
X194188821Y-200122717D01*
X194188821Y-200122717D02*
X194313392Y-200185003D01*
X194313392Y-200185003D02*
X194375678Y-200309574D01*
X194375678Y-200309574D02*
X194375678Y-200994717D01*
X195995106Y-200994717D02*
X195995106Y-199686717D01*
X196742535Y-200994717D02*
X196181963Y-200247289D01*
X196742535Y-199686717D02*
X195995106Y-200434146D01*
X197489963Y-200994717D02*
X197365392Y-200932432D01*
X197365392Y-200932432D02*
X197303106Y-200807860D01*
X197303106Y-200807860D02*
X197303106Y-199686717D01*
X198548821Y-200994717D02*
X198548821Y-200309574D01*
X198548821Y-200309574D02*
X198486535Y-200185003D01*
X198486535Y-200185003D02*
X198361963Y-200122717D01*
X198361963Y-200122717D02*
X198112821Y-200122717D01*
X198112821Y-200122717D02*
X197988249Y-200185003D01*
X198548821Y-200932432D02*
X198424249Y-200994717D01*
X198424249Y-200994717D02*
X198112821Y-200994717D01*
X198112821Y-200994717D02*
X197988249Y-200932432D01*
X197988249Y-200932432D02*
X197925963Y-200807860D01*
X197925963Y-200807860D02*
X197925963Y-200683289D01*
X197925963Y-200683289D02*
X197988249Y-200558717D01*
X197988249Y-200558717D02*
X198112821Y-200496432D01*
X198112821Y-200496432D02*
X198424249Y-200496432D01*
X198424249Y-200496432D02*
X198548821Y-200434146D01*
X199109392Y-200932432D02*
X199233964Y-200994717D01*
X199233964Y-200994717D02*
X199483107Y-200994717D01*
X199483107Y-200994717D02*
X199607678Y-200932432D01*
X199607678Y-200932432D02*
X199669964Y-200807860D01*
X199669964Y-200807860D02*
X199669964Y-200745574D01*
X199669964Y-200745574D02*
X199607678Y-200621003D01*
X199607678Y-200621003D02*
X199483107Y-200558717D01*
X199483107Y-200558717D02*
X199296250Y-200558717D01*
X199296250Y-200558717D02*
X199171678Y-200496432D01*
X199171678Y-200496432D02*
X199109392Y-200371860D01*
X199109392Y-200371860D02*
X199109392Y-200309574D01*
X199109392Y-200309574D02*
X199171678Y-200185003D01*
X199171678Y-200185003D02*
X199296250Y-200122717D01*
X199296250Y-200122717D02*
X199483107Y-200122717D01*
X199483107Y-200122717D02*
X199607678Y-200185003D01*
X200168249Y-200932432D02*
X200292821Y-200994717D01*
X200292821Y-200994717D02*
X200541964Y-200994717D01*
X200541964Y-200994717D02*
X200666535Y-200932432D01*
X200666535Y-200932432D02*
X200728821Y-200807860D01*
X200728821Y-200807860D02*
X200728821Y-200745574D01*
X200728821Y-200745574D02*
X200666535Y-200621003D01*
X200666535Y-200621003D02*
X200541964Y-200558717D01*
X200541964Y-200558717D02*
X200355107Y-200558717D01*
X200355107Y-200558717D02*
X200230535Y-200496432D01*
X200230535Y-200496432D02*
X200168249Y-200371860D01*
X200168249Y-200371860D02*
X200168249Y-200309574D01*
X200168249Y-200309574D02*
X200230535Y-200185003D01*
X200230535Y-200185003D02*
X200355107Y-200122717D01*
X200355107Y-200122717D02*
X200541964Y-200122717D01*
X200541964Y-200122717D02*
X200666535Y-200185003D01*
X201787678Y-200932432D02*
X201663106Y-200994717D01*
X201663106Y-200994717D02*
X201413964Y-200994717D01*
X201413964Y-200994717D02*
X201289392Y-200932432D01*
X201289392Y-200932432D02*
X201227106Y-200807860D01*
X201227106Y-200807860D02*
X201227106Y-200309574D01*
X201227106Y-200309574D02*
X201289392Y-200185003D01*
X201289392Y-200185003D02*
X201413964Y-200122717D01*
X201413964Y-200122717D02*
X201663106Y-200122717D01*
X201663106Y-200122717D02*
X201787678Y-200185003D01*
X201787678Y-200185003D02*
X201849964Y-200309574D01*
X201849964Y-200309574D02*
X201849964Y-200434146D01*
X201849964Y-200434146D02*
X201227106Y-200558717D01*
X202410535Y-200122717D02*
X202410535Y-200994717D01*
X202410535Y-200247289D02*
X202472821Y-200185003D01*
X202472821Y-200185003D02*
X202597392Y-200122717D01*
X202597392Y-200122717D02*
X202784249Y-200122717D01*
X202784249Y-200122717D02*
X202908821Y-200185003D01*
X202908821Y-200185003D02*
X202971107Y-200309574D01*
X202971107Y-200309574D02*
X202971107Y-200994717D01*
D10*
X203139922Y-118503819D02*
X203711350Y-118503819D01*
X203425636Y-119503819D02*
X203425636Y-118503819D01*
X203949446Y-118503819D02*
X204616112Y-119503819D01*
X204616112Y-118503819D02*
X203949446Y-119503819D01*
X194941819Y-107867220D02*
X193941819Y-107867220D01*
X193941819Y-107867220D02*
X193941819Y-107486268D01*
X193941819Y-107486268D02*
X193989438Y-107391030D01*
X193989438Y-107391030D02*
X194037057Y-107343411D01*
X194037057Y-107343411D02*
X194132295Y-107295792D01*
X194132295Y-107295792D02*
X194275152Y-107295792D01*
X194275152Y-107295792D02*
X194370390Y-107343411D01*
X194370390Y-107343411D02*
X194418009Y-107391030D01*
X194418009Y-107391030D02*
X194465628Y-107486268D01*
X194465628Y-107486268D02*
X194465628Y-107867220D01*
X194941819Y-106295792D02*
X194465628Y-106629125D01*
X194941819Y-106867220D02*
X193941819Y-106867220D01*
X193941819Y-106867220D02*
X193941819Y-106486268D01*
X193941819Y-106486268D02*
X193989438Y-106391030D01*
X193989438Y-106391030D02*
X194037057Y-106343411D01*
X194037057Y-106343411D02*
X194132295Y-106295792D01*
X194132295Y-106295792D02*
X194275152Y-106295792D01*
X194275152Y-106295792D02*
X194370390Y-106343411D01*
X194370390Y-106343411D02*
X194418009Y-106391030D01*
X194418009Y-106391030D02*
X194465628Y-106486268D01*
X194465628Y-106486268D02*
X194465628Y-106867220D01*
X193941819Y-105676744D02*
X193941819Y-105486268D01*
X193941819Y-105486268D02*
X193989438Y-105391030D01*
X193989438Y-105391030D02*
X194084676Y-105295792D01*
X194084676Y-105295792D02*
X194275152Y-105248173D01*
X194275152Y-105248173D02*
X194608485Y-105248173D01*
X194608485Y-105248173D02*
X194798961Y-105295792D01*
X194798961Y-105295792D02*
X194894200Y-105391030D01*
X194894200Y-105391030D02*
X194941819Y-105486268D01*
X194941819Y-105486268D02*
X194941819Y-105676744D01*
X194941819Y-105676744D02*
X194894200Y-105771982D01*
X194894200Y-105771982D02*
X194798961Y-105867220D01*
X194798961Y-105867220D02*
X194608485Y-105914839D01*
X194608485Y-105914839D02*
X194275152Y-105914839D01*
X194275152Y-105914839D02*
X194084676Y-105867220D01*
X194084676Y-105867220D02*
X193989438Y-105771982D01*
X193989438Y-105771982D02*
X193941819Y-105676744D01*
X193989438Y-104295792D02*
X193941819Y-104391030D01*
X193941819Y-104391030D02*
X193941819Y-104533887D01*
X193941819Y-104533887D02*
X193989438Y-104676744D01*
X193989438Y-104676744D02*
X194084676Y-104771982D01*
X194084676Y-104771982D02*
X194179914Y-104819601D01*
X194179914Y-104819601D02*
X194370390Y-104867220D01*
X194370390Y-104867220D02*
X194513247Y-104867220D01*
X194513247Y-104867220D02*
X194703723Y-104819601D01*
X194703723Y-104819601D02*
X194798961Y-104771982D01*
X194798961Y-104771982D02*
X194894200Y-104676744D01*
X194894200Y-104676744D02*
X194941819Y-104533887D01*
X194941819Y-104533887D02*
X194941819Y-104438649D01*
X194941819Y-104438649D02*
X194894200Y-104295792D01*
X194894200Y-104295792D02*
X194846580Y-104248173D01*
X194846580Y-104248173D02*
X194513247Y-104248173D01*
X194513247Y-104248173D02*
X194513247Y-104438649D01*
X199767819Y-78403220D02*
X198767819Y-78403220D01*
X198767819Y-78403220D02*
X198767819Y-78022268D01*
X198767819Y-78022268D02*
X198815438Y-77927030D01*
X198815438Y-77927030D02*
X198863057Y-77879411D01*
X198863057Y-77879411D02*
X198958295Y-77831792D01*
X198958295Y-77831792D02*
X199101152Y-77831792D01*
X199101152Y-77831792D02*
X199196390Y-77879411D01*
X199196390Y-77879411D02*
X199244009Y-77927030D01*
X199244009Y-77927030D02*
X199291628Y-78022268D01*
X199291628Y-78022268D02*
X199291628Y-78403220D01*
X198767819Y-77498458D02*
X199767819Y-77260363D01*
X199767819Y-77260363D02*
X199053533Y-77069887D01*
X199053533Y-77069887D02*
X199767819Y-76879411D01*
X199767819Y-76879411D02*
X198767819Y-76641316D01*
X199767819Y-76260363D02*
X198767819Y-76260363D01*
X198767819Y-76260363D02*
X199482104Y-75927030D01*
X199482104Y-75927030D02*
X198767819Y-75593697D01*
X198767819Y-75593697D02*
X199767819Y-75593697D01*
D12*
X168263673Y-149092266D02*
X169025578Y-149092266D01*
D10*
X219376666Y-73876819D02*
X219376666Y-74591104D01*
X219376666Y-74591104D02*
X219329047Y-74733961D01*
X219329047Y-74733961D02*
X219233809Y-74829200D01*
X219233809Y-74829200D02*
X219090952Y-74876819D01*
X219090952Y-74876819D02*
X218995714Y-74876819D01*
X219805238Y-73972057D02*
X219852857Y-73924438D01*
X219852857Y-73924438D02*
X219948095Y-73876819D01*
X219948095Y-73876819D02*
X220186190Y-73876819D01*
X220186190Y-73876819D02*
X220281428Y-73924438D01*
X220281428Y-73924438D02*
X220329047Y-73972057D01*
X220329047Y-73972057D02*
X220376666Y-74067295D01*
X220376666Y-74067295D02*
X220376666Y-74162533D01*
X220376666Y-74162533D02*
X220329047Y-74305390D01*
X220329047Y-74305390D02*
X219757619Y-74876819D01*
X219757619Y-74876819D02*
X220376666Y-74876819D01*
X238593333Y-96593819D02*
X238260000Y-96117628D01*
X238021905Y-96593819D02*
X238021905Y-95593819D01*
X238021905Y-95593819D02*
X238402857Y-95593819D01*
X238402857Y-95593819D02*
X238498095Y-95641438D01*
X238498095Y-95641438D02*
X238545714Y-95689057D01*
X238545714Y-95689057D02*
X238593333Y-95784295D01*
X238593333Y-95784295D02*
X238593333Y-95927152D01*
X238593333Y-95927152D02*
X238545714Y-96022390D01*
X238545714Y-96022390D02*
X238498095Y-96070009D01*
X238498095Y-96070009D02*
X238402857Y-96117628D01*
X238402857Y-96117628D02*
X238021905Y-96117628D01*
X239545714Y-96593819D02*
X238974286Y-96593819D01*
X239260000Y-96593819D02*
X239260000Y-95593819D01*
X239260000Y-95593819D02*
X239164762Y-95736676D01*
X239164762Y-95736676D02*
X239069524Y-95831914D01*
X239069524Y-95831914D02*
X238974286Y-95879533D01*
X207605333Y-106372819D02*
X207272000Y-105896628D01*
X207033905Y-106372819D02*
X207033905Y-105372819D01*
X207033905Y-105372819D02*
X207414857Y-105372819D01*
X207414857Y-105372819D02*
X207510095Y-105420438D01*
X207510095Y-105420438D02*
X207557714Y-105468057D01*
X207557714Y-105468057D02*
X207605333Y-105563295D01*
X207605333Y-105563295D02*
X207605333Y-105706152D01*
X207605333Y-105706152D02*
X207557714Y-105801390D01*
X207557714Y-105801390D02*
X207510095Y-105849009D01*
X207510095Y-105849009D02*
X207414857Y-105896628D01*
X207414857Y-105896628D02*
X207033905Y-105896628D01*
X208081524Y-106372819D02*
X208272000Y-106372819D01*
X208272000Y-106372819D02*
X208367238Y-106325200D01*
X208367238Y-106325200D02*
X208414857Y-106277580D01*
X208414857Y-106277580D02*
X208510095Y-106134723D01*
X208510095Y-106134723D02*
X208557714Y-105944247D01*
X208557714Y-105944247D02*
X208557714Y-105563295D01*
X208557714Y-105563295D02*
X208510095Y-105468057D01*
X208510095Y-105468057D02*
X208462476Y-105420438D01*
X208462476Y-105420438D02*
X208367238Y-105372819D01*
X208367238Y-105372819D02*
X208176762Y-105372819D01*
X208176762Y-105372819D02*
X208081524Y-105420438D01*
X208081524Y-105420438D02*
X208033905Y-105468057D01*
X208033905Y-105468057D02*
X207986286Y-105563295D01*
X207986286Y-105563295D02*
X207986286Y-105801390D01*
X207986286Y-105801390D02*
X208033905Y-105896628D01*
X208033905Y-105896628D02*
X208081524Y-105944247D01*
X208081524Y-105944247D02*
X208176762Y-105991866D01*
X208176762Y-105991866D02*
X208367238Y-105991866D01*
X208367238Y-105991866D02*
X208462476Y-105944247D01*
X208462476Y-105944247D02*
X208510095Y-105896628D01*
X208510095Y-105896628D02*
X208557714Y-105801390D01*
X205486095Y-88989819D02*
X205486095Y-89799342D01*
X205486095Y-89799342D02*
X205533714Y-89894580D01*
X205533714Y-89894580D02*
X205581333Y-89942200D01*
X205581333Y-89942200D02*
X205676571Y-89989819D01*
X205676571Y-89989819D02*
X205867047Y-89989819D01*
X205867047Y-89989819D02*
X205962285Y-89942200D01*
X205962285Y-89942200D02*
X206009904Y-89894580D01*
X206009904Y-89894580D02*
X206057523Y-89799342D01*
X206057523Y-89799342D02*
X206057523Y-88989819D01*
X206438476Y-88989819D02*
X207057523Y-88989819D01*
X207057523Y-88989819D02*
X206724190Y-89370771D01*
X206724190Y-89370771D02*
X206867047Y-89370771D01*
X206867047Y-89370771D02*
X206962285Y-89418390D01*
X206962285Y-89418390D02*
X207009904Y-89466009D01*
X207009904Y-89466009D02*
X207057523Y-89561247D01*
X207057523Y-89561247D02*
X207057523Y-89799342D01*
X207057523Y-89799342D02*
X207009904Y-89894580D01*
X207009904Y-89894580D02*
X206962285Y-89942200D01*
X206962285Y-89942200D02*
X206867047Y-89989819D01*
X206867047Y-89989819D02*
X206581333Y-89989819D01*
X206581333Y-89989819D02*
X206486095Y-89942200D01*
X206486095Y-89942200D02*
X206438476Y-89894580D01*
X207605333Y-109071580D02*
X207557714Y-109119200D01*
X207557714Y-109119200D02*
X207414857Y-109166819D01*
X207414857Y-109166819D02*
X207319619Y-109166819D01*
X207319619Y-109166819D02*
X207176762Y-109119200D01*
X207176762Y-109119200D02*
X207081524Y-109023961D01*
X207081524Y-109023961D02*
X207033905Y-108928723D01*
X207033905Y-108928723D02*
X206986286Y-108738247D01*
X206986286Y-108738247D02*
X206986286Y-108595390D01*
X206986286Y-108595390D02*
X207033905Y-108404914D01*
X207033905Y-108404914D02*
X207081524Y-108309676D01*
X207081524Y-108309676D02*
X207176762Y-108214438D01*
X207176762Y-108214438D02*
X207319619Y-108166819D01*
X207319619Y-108166819D02*
X207414857Y-108166819D01*
X207414857Y-108166819D02*
X207557714Y-108214438D01*
X207557714Y-108214438D02*
X207605333Y-108262057D01*
X208462476Y-108166819D02*
X208272000Y-108166819D01*
X208272000Y-108166819D02*
X208176762Y-108214438D01*
X208176762Y-108214438D02*
X208129143Y-108262057D01*
X208129143Y-108262057D02*
X208033905Y-108404914D01*
X208033905Y-108404914D02*
X207986286Y-108595390D01*
X207986286Y-108595390D02*
X207986286Y-108976342D01*
X207986286Y-108976342D02*
X208033905Y-109071580D01*
X208033905Y-109071580D02*
X208081524Y-109119200D01*
X208081524Y-109119200D02*
X208176762Y-109166819D01*
X208176762Y-109166819D02*
X208367238Y-109166819D01*
X208367238Y-109166819D02*
X208462476Y-109119200D01*
X208462476Y-109119200D02*
X208510095Y-109071580D01*
X208510095Y-109071580D02*
X208557714Y-108976342D01*
X208557714Y-108976342D02*
X208557714Y-108738247D01*
X208557714Y-108738247D02*
X208510095Y-108643009D01*
X208510095Y-108643009D02*
X208462476Y-108595390D01*
X208462476Y-108595390D02*
X208367238Y-108547771D01*
X208367238Y-108547771D02*
X208176762Y-108547771D01*
X208176762Y-108547771D02*
X208081524Y-108595390D01*
X208081524Y-108595390D02*
X208033905Y-108643009D01*
X208033905Y-108643009D02*
X207986286Y-108738247D01*
X167005095Y-93180819D02*
X167005095Y-93990342D01*
X167005095Y-93990342D02*
X167052714Y-94085580D01*
X167052714Y-94085580D02*
X167100333Y-94133200D01*
X167100333Y-94133200D02*
X167195571Y-94180819D01*
X167195571Y-94180819D02*
X167386047Y-94180819D01*
X167386047Y-94180819D02*
X167481285Y-94133200D01*
X167481285Y-94133200D02*
X167528904Y-94085580D01*
X167528904Y-94085580D02*
X167576523Y-93990342D01*
X167576523Y-93990342D02*
X167576523Y-93180819D01*
X168481285Y-93180819D02*
X168290809Y-93180819D01*
X168290809Y-93180819D02*
X168195571Y-93228438D01*
X168195571Y-93228438D02*
X168147952Y-93276057D01*
X168147952Y-93276057D02*
X168052714Y-93418914D01*
X168052714Y-93418914D02*
X168005095Y-93609390D01*
X168005095Y-93609390D02*
X168005095Y-93990342D01*
X168005095Y-93990342D02*
X168052714Y-94085580D01*
X168052714Y-94085580D02*
X168100333Y-94133200D01*
X168100333Y-94133200D02*
X168195571Y-94180819D01*
X168195571Y-94180819D02*
X168386047Y-94180819D01*
X168386047Y-94180819D02*
X168481285Y-94133200D01*
X168481285Y-94133200D02*
X168528904Y-94085580D01*
X168528904Y-94085580D02*
X168576523Y-93990342D01*
X168576523Y-93990342D02*
X168576523Y-93752247D01*
X168576523Y-93752247D02*
X168528904Y-93657009D01*
X168528904Y-93657009D02*
X168481285Y-93609390D01*
X168481285Y-93609390D02*
X168386047Y-93561771D01*
X168386047Y-93561771D02*
X168195571Y-93561771D01*
X168195571Y-93561771D02*
X168100333Y-93609390D01*
X168100333Y-93609390D02*
X168052714Y-93657009D01*
X168052714Y-93657009D02*
X168005095Y-93752247D01*
X179765833Y-76305580D02*
X179718214Y-76353200D01*
X179718214Y-76353200D02*
X179575357Y-76400819D01*
X179575357Y-76400819D02*
X179480119Y-76400819D01*
X179480119Y-76400819D02*
X179337262Y-76353200D01*
X179337262Y-76353200D02*
X179242024Y-76257961D01*
X179242024Y-76257961D02*
X179194405Y-76162723D01*
X179194405Y-76162723D02*
X179146786Y-75972247D01*
X179146786Y-75972247D02*
X179146786Y-75829390D01*
X179146786Y-75829390D02*
X179194405Y-75638914D01*
X179194405Y-75638914D02*
X179242024Y-75543676D01*
X179242024Y-75543676D02*
X179337262Y-75448438D01*
X179337262Y-75448438D02*
X179480119Y-75400819D01*
X179480119Y-75400819D02*
X179575357Y-75400819D01*
X179575357Y-75400819D02*
X179718214Y-75448438D01*
X179718214Y-75448438D02*
X179765833Y-75496057D01*
X180622976Y-75734152D02*
X180622976Y-76400819D01*
X180384881Y-75353200D02*
X180146786Y-76067485D01*
X180146786Y-76067485D02*
X180765833Y-76067485D01*
X232410095Y-122390819D02*
X232410095Y-123200342D01*
X232410095Y-123200342D02*
X232457714Y-123295580D01*
X232457714Y-123295580D02*
X232505333Y-123343200D01*
X232505333Y-123343200D02*
X232600571Y-123390819D01*
X232600571Y-123390819D02*
X232791047Y-123390819D01*
X232791047Y-123390819D02*
X232886285Y-123343200D01*
X232886285Y-123343200D02*
X232933904Y-123295580D01*
X232933904Y-123295580D02*
X232981523Y-123200342D01*
X232981523Y-123200342D02*
X232981523Y-122390819D01*
X233886285Y-122724152D02*
X233886285Y-123390819D01*
X233648190Y-122343200D02*
X233410095Y-123057485D01*
X233410095Y-123057485D02*
X234029142Y-123057485D01*
X207383142Y-103324819D02*
X207049809Y-102848628D01*
X206811714Y-103324819D02*
X206811714Y-102324819D01*
X206811714Y-102324819D02*
X207192666Y-102324819D01*
X207192666Y-102324819D02*
X207287904Y-102372438D01*
X207287904Y-102372438D02*
X207335523Y-102420057D01*
X207335523Y-102420057D02*
X207383142Y-102515295D01*
X207383142Y-102515295D02*
X207383142Y-102658152D01*
X207383142Y-102658152D02*
X207335523Y-102753390D01*
X207335523Y-102753390D02*
X207287904Y-102801009D01*
X207287904Y-102801009D02*
X207192666Y-102848628D01*
X207192666Y-102848628D02*
X206811714Y-102848628D01*
X208335523Y-103324819D02*
X207764095Y-103324819D01*
X208049809Y-103324819D02*
X208049809Y-102324819D01*
X208049809Y-102324819D02*
X207954571Y-102467676D01*
X207954571Y-102467676D02*
X207859333Y-102562914D01*
X207859333Y-102562914D02*
X207764095Y-102610533D01*
X208954571Y-102324819D02*
X209049809Y-102324819D01*
X209049809Y-102324819D02*
X209145047Y-102372438D01*
X209145047Y-102372438D02*
X209192666Y-102420057D01*
X209192666Y-102420057D02*
X209240285Y-102515295D01*
X209240285Y-102515295D02*
X209287904Y-102705771D01*
X209287904Y-102705771D02*
X209287904Y-102943866D01*
X209287904Y-102943866D02*
X209240285Y-103134342D01*
X209240285Y-103134342D02*
X209192666Y-103229580D01*
X209192666Y-103229580D02*
X209145047Y-103277200D01*
X209145047Y-103277200D02*
X209049809Y-103324819D01*
X209049809Y-103324819D02*
X208954571Y-103324819D01*
X208954571Y-103324819D02*
X208859333Y-103277200D01*
X208859333Y-103277200D02*
X208811714Y-103229580D01*
X208811714Y-103229580D02*
X208764095Y-103134342D01*
X208764095Y-103134342D02*
X208716476Y-102943866D01*
X208716476Y-102943866D02*
X208716476Y-102705771D01*
X208716476Y-102705771D02*
X208764095Y-102515295D01*
X208764095Y-102515295D02*
X208811714Y-102420057D01*
X208811714Y-102420057D02*
X208859333Y-102372438D01*
X208859333Y-102372438D02*
X208954571Y-102324819D01*
X158349333Y-92873069D02*
X158016000Y-92396878D01*
X157777905Y-92873069D02*
X157777905Y-91873069D01*
X157777905Y-91873069D02*
X158158857Y-91873069D01*
X158158857Y-91873069D02*
X158254095Y-91920688D01*
X158254095Y-91920688D02*
X158301714Y-91968307D01*
X158301714Y-91968307D02*
X158349333Y-92063545D01*
X158349333Y-92063545D02*
X158349333Y-92206402D01*
X158349333Y-92206402D02*
X158301714Y-92301640D01*
X158301714Y-92301640D02*
X158254095Y-92349259D01*
X158254095Y-92349259D02*
X158158857Y-92396878D01*
X158158857Y-92396878D02*
X157777905Y-92396878D01*
X159206476Y-92206402D02*
X159206476Y-92873069D01*
X158968381Y-91825450D02*
X158730286Y-92539735D01*
X158730286Y-92539735D02*
X159349333Y-92539735D01*
D14*
X231163905Y-75387419D02*
X231163905Y-74387419D01*
X231163905Y-74387419D02*
X231402000Y-74387419D01*
X231402000Y-74387419D02*
X231544857Y-74435038D01*
X231544857Y-74435038D02*
X231640095Y-74530276D01*
X231640095Y-74530276D02*
X231687714Y-74625514D01*
X231687714Y-74625514D02*
X231735333Y-74815990D01*
X231735333Y-74815990D02*
X231735333Y-74958847D01*
X231735333Y-74958847D02*
X231687714Y-75149323D01*
X231687714Y-75149323D02*
X231640095Y-75244561D01*
X231640095Y-75244561D02*
X231544857Y-75339800D01*
X231544857Y-75339800D02*
X231402000Y-75387419D01*
X231402000Y-75387419D02*
X231163905Y-75387419D01*
X232116286Y-74482657D02*
X232163905Y-74435038D01*
X232163905Y-74435038D02*
X232259143Y-74387419D01*
X232259143Y-74387419D02*
X232497238Y-74387419D01*
X232497238Y-74387419D02*
X232592476Y-74435038D01*
X232592476Y-74435038D02*
X232640095Y-74482657D01*
X232640095Y-74482657D02*
X232687714Y-74577895D01*
X232687714Y-74577895D02*
X232687714Y-74673133D01*
X232687714Y-74673133D02*
X232640095Y-74815990D01*
X232640095Y-74815990D02*
X232068667Y-75387419D01*
X232068667Y-75387419D02*
X232687714Y-75387419D01*
D10*
X160615333Y-78686819D02*
X160282000Y-78210628D01*
X160043905Y-78686819D02*
X160043905Y-77686819D01*
X160043905Y-77686819D02*
X160424857Y-77686819D01*
X160424857Y-77686819D02*
X160520095Y-77734438D01*
X160520095Y-77734438D02*
X160567714Y-77782057D01*
X160567714Y-77782057D02*
X160615333Y-77877295D01*
X160615333Y-77877295D02*
X160615333Y-78020152D01*
X160615333Y-78020152D02*
X160567714Y-78115390D01*
X160567714Y-78115390D02*
X160520095Y-78163009D01*
X160520095Y-78163009D02*
X160424857Y-78210628D01*
X160424857Y-78210628D02*
X160043905Y-78210628D01*
X161186762Y-78115390D02*
X161091524Y-78067771D01*
X161091524Y-78067771D02*
X161043905Y-78020152D01*
X161043905Y-78020152D02*
X160996286Y-77924914D01*
X160996286Y-77924914D02*
X160996286Y-77877295D01*
X160996286Y-77877295D02*
X161043905Y-77782057D01*
X161043905Y-77782057D02*
X161091524Y-77734438D01*
X161091524Y-77734438D02*
X161186762Y-77686819D01*
X161186762Y-77686819D02*
X161377238Y-77686819D01*
X161377238Y-77686819D02*
X161472476Y-77734438D01*
X161472476Y-77734438D02*
X161520095Y-77782057D01*
X161520095Y-77782057D02*
X161567714Y-77877295D01*
X161567714Y-77877295D02*
X161567714Y-77924914D01*
X161567714Y-77924914D02*
X161520095Y-78020152D01*
X161520095Y-78020152D02*
X161472476Y-78067771D01*
X161472476Y-78067771D02*
X161377238Y-78115390D01*
X161377238Y-78115390D02*
X161186762Y-78115390D01*
X161186762Y-78115390D02*
X161091524Y-78163009D01*
X161091524Y-78163009D02*
X161043905Y-78210628D01*
X161043905Y-78210628D02*
X160996286Y-78305866D01*
X160996286Y-78305866D02*
X160996286Y-78496342D01*
X160996286Y-78496342D02*
X161043905Y-78591580D01*
X161043905Y-78591580D02*
X161091524Y-78639200D01*
X161091524Y-78639200D02*
X161186762Y-78686819D01*
X161186762Y-78686819D02*
X161377238Y-78686819D01*
X161377238Y-78686819D02*
X161472476Y-78639200D01*
X161472476Y-78639200D02*
X161520095Y-78591580D01*
X161520095Y-78591580D02*
X161567714Y-78496342D01*
X161567714Y-78496342D02*
X161567714Y-78305866D01*
X161567714Y-78305866D02*
X161520095Y-78210628D01*
X161520095Y-78210628D02*
X161472476Y-78163009D01*
X161472476Y-78163009D02*
X161377238Y-78115390D01*
X179665333Y-78686819D02*
X179332000Y-78210628D01*
X179093905Y-78686819D02*
X179093905Y-77686819D01*
X179093905Y-77686819D02*
X179474857Y-77686819D01*
X179474857Y-77686819D02*
X179570095Y-77734438D01*
X179570095Y-77734438D02*
X179617714Y-77782057D01*
X179617714Y-77782057D02*
X179665333Y-77877295D01*
X179665333Y-77877295D02*
X179665333Y-78020152D01*
X179665333Y-78020152D02*
X179617714Y-78115390D01*
X179617714Y-78115390D02*
X179570095Y-78163009D01*
X179570095Y-78163009D02*
X179474857Y-78210628D01*
X179474857Y-78210628D02*
X179093905Y-78210628D01*
X180046286Y-77782057D02*
X180093905Y-77734438D01*
X180093905Y-77734438D02*
X180189143Y-77686819D01*
X180189143Y-77686819D02*
X180427238Y-77686819D01*
X180427238Y-77686819D02*
X180522476Y-77734438D01*
X180522476Y-77734438D02*
X180570095Y-77782057D01*
X180570095Y-77782057D02*
X180617714Y-77877295D01*
X180617714Y-77877295D02*
X180617714Y-77972533D01*
X180617714Y-77972533D02*
X180570095Y-78115390D01*
X180570095Y-78115390D02*
X179998667Y-78686819D01*
X179998667Y-78686819D02*
X180617714Y-78686819D01*
X166475580Y-78485809D02*
X166523200Y-78533428D01*
X166523200Y-78533428D02*
X166570819Y-78676285D01*
X166570819Y-78676285D02*
X166570819Y-78771523D01*
X166570819Y-78771523D02*
X166523200Y-78914380D01*
X166523200Y-78914380D02*
X166427961Y-79009618D01*
X166427961Y-79009618D02*
X166332723Y-79057237D01*
X166332723Y-79057237D02*
X166142247Y-79104856D01*
X166142247Y-79104856D02*
X165999390Y-79104856D01*
X165999390Y-79104856D02*
X165808914Y-79057237D01*
X165808914Y-79057237D02*
X165713676Y-79009618D01*
X165713676Y-79009618D02*
X165618438Y-78914380D01*
X165618438Y-78914380D02*
X165570819Y-78771523D01*
X165570819Y-78771523D02*
X165570819Y-78676285D01*
X165570819Y-78676285D02*
X165618438Y-78533428D01*
X165618438Y-78533428D02*
X165666057Y-78485809D01*
X166570819Y-77914380D02*
X166523200Y-78009618D01*
X166523200Y-78009618D02*
X166475580Y-78057237D01*
X166475580Y-78057237D02*
X166380342Y-78104856D01*
X166380342Y-78104856D02*
X166094628Y-78104856D01*
X166094628Y-78104856D02*
X165999390Y-78057237D01*
X165999390Y-78057237D02*
X165951771Y-78009618D01*
X165951771Y-78009618D02*
X165904152Y-77914380D01*
X165904152Y-77914380D02*
X165904152Y-77771523D01*
X165904152Y-77771523D02*
X165951771Y-77676285D01*
X165951771Y-77676285D02*
X165999390Y-77628666D01*
X165999390Y-77628666D02*
X166094628Y-77581047D01*
X166094628Y-77581047D02*
X166380342Y-77581047D01*
X166380342Y-77581047D02*
X166475580Y-77628666D01*
X166475580Y-77628666D02*
X166523200Y-77676285D01*
X166523200Y-77676285D02*
X166570819Y-77771523D01*
X166570819Y-77771523D02*
X166570819Y-77914380D01*
X165904152Y-77152475D02*
X166570819Y-77152475D01*
X165999390Y-77152475D02*
X165951771Y-77104856D01*
X165951771Y-77104856D02*
X165904152Y-77009618D01*
X165904152Y-77009618D02*
X165904152Y-76866761D01*
X165904152Y-76866761D02*
X165951771Y-76771523D01*
X165951771Y-76771523D02*
X166047009Y-76723904D01*
X166047009Y-76723904D02*
X166570819Y-76723904D01*
X165904152Y-76247713D02*
X166570819Y-76247713D01*
X165999390Y-76247713D02*
X165951771Y-76200094D01*
X165951771Y-76200094D02*
X165904152Y-76104856D01*
X165904152Y-76104856D02*
X165904152Y-75961999D01*
X165904152Y-75961999D02*
X165951771Y-75866761D01*
X165951771Y-75866761D02*
X166047009Y-75819142D01*
X166047009Y-75819142D02*
X166570819Y-75819142D01*
X166570819Y-74819142D02*
X166570819Y-75390570D01*
X166570819Y-75104856D02*
X165570819Y-75104856D01*
X165570819Y-75104856D02*
X165713676Y-75200094D01*
X165713676Y-75200094D02*
X165808914Y-75295332D01*
X165808914Y-75295332D02*
X165856533Y-75390570D01*
D14*
X194794285Y-125663609D02*
X194937142Y-125711228D01*
X194937142Y-125711228D02*
X194984761Y-125758847D01*
X194984761Y-125758847D02*
X195032380Y-125854085D01*
X195032380Y-125854085D02*
X195032380Y-125996942D01*
X195032380Y-125996942D02*
X194984761Y-126092180D01*
X194984761Y-126092180D02*
X194937142Y-126139800D01*
X194937142Y-126139800D02*
X194841904Y-126187419D01*
X194841904Y-126187419D02*
X194460952Y-126187419D01*
X194460952Y-126187419D02*
X194460952Y-125187419D01*
X194460952Y-125187419D02*
X194794285Y-125187419D01*
X194794285Y-125187419D02*
X194889523Y-125235038D01*
X194889523Y-125235038D02*
X194937142Y-125282657D01*
X194937142Y-125282657D02*
X194984761Y-125377895D01*
X194984761Y-125377895D02*
X194984761Y-125473133D01*
X194984761Y-125473133D02*
X194937142Y-125568371D01*
X194937142Y-125568371D02*
X194889523Y-125615990D01*
X194889523Y-125615990D02*
X194794285Y-125663609D01*
X194794285Y-125663609D02*
X194460952Y-125663609D01*
X195318095Y-125187419D02*
X195889523Y-125187419D01*
X195603809Y-126187419D02*
X195603809Y-125187419D01*
X196746666Y-126187419D02*
X196175238Y-126187419D01*
X196460952Y-126187419D02*
X196460952Y-125187419D01*
X196460952Y-125187419D02*
X196365714Y-125330276D01*
X196365714Y-125330276D02*
X196270476Y-125425514D01*
X196270476Y-125425514D02*
X196175238Y-125473133D01*
D10*
X184150095Y-106007819D02*
X184150095Y-106817342D01*
X184150095Y-106817342D02*
X184197714Y-106912580D01*
X184197714Y-106912580D02*
X184245333Y-106960200D01*
X184245333Y-106960200D02*
X184340571Y-107007819D01*
X184340571Y-107007819D02*
X184531047Y-107007819D01*
X184531047Y-107007819D02*
X184626285Y-106960200D01*
X184626285Y-106960200D02*
X184673904Y-106912580D01*
X184673904Y-106912580D02*
X184721523Y-106817342D01*
X184721523Y-106817342D02*
X184721523Y-106007819D01*
X185721523Y-107007819D02*
X185150095Y-107007819D01*
X185435809Y-107007819D02*
X185435809Y-106007819D01*
X185435809Y-106007819D02*
X185340571Y-106150676D01*
X185340571Y-106150676D02*
X185245333Y-106245914D01*
X185245333Y-106245914D02*
X185150095Y-106293533D01*
X223353333Y-75035580D02*
X223305714Y-75083200D01*
X223305714Y-75083200D02*
X223162857Y-75130819D01*
X223162857Y-75130819D02*
X223067619Y-75130819D01*
X223067619Y-75130819D02*
X222924762Y-75083200D01*
X222924762Y-75083200D02*
X222829524Y-74987961D01*
X222829524Y-74987961D02*
X222781905Y-74892723D01*
X222781905Y-74892723D02*
X222734286Y-74702247D01*
X222734286Y-74702247D02*
X222734286Y-74559390D01*
X222734286Y-74559390D02*
X222781905Y-74368914D01*
X222781905Y-74368914D02*
X222829524Y-74273676D01*
X222829524Y-74273676D02*
X222924762Y-74178438D01*
X222924762Y-74178438D02*
X223067619Y-74130819D01*
X223067619Y-74130819D02*
X223162857Y-74130819D01*
X223162857Y-74130819D02*
X223305714Y-74178438D01*
X223305714Y-74178438D02*
X223353333Y-74226057D01*
X224305714Y-75130819D02*
X223734286Y-75130819D01*
X224020000Y-75130819D02*
X224020000Y-74130819D01*
X224020000Y-74130819D02*
X223924762Y-74273676D01*
X223924762Y-74273676D02*
X223829524Y-74368914D01*
X223829524Y-74368914D02*
X223734286Y-74416533D01*
X160715833Y-76813580D02*
X160668214Y-76861200D01*
X160668214Y-76861200D02*
X160525357Y-76908819D01*
X160525357Y-76908819D02*
X160430119Y-76908819D01*
X160430119Y-76908819D02*
X160287262Y-76861200D01*
X160287262Y-76861200D02*
X160192024Y-76765961D01*
X160192024Y-76765961D02*
X160144405Y-76670723D01*
X160144405Y-76670723D02*
X160096786Y-76480247D01*
X160096786Y-76480247D02*
X160096786Y-76337390D01*
X160096786Y-76337390D02*
X160144405Y-76146914D01*
X160144405Y-76146914D02*
X160192024Y-76051676D01*
X160192024Y-76051676D02*
X160287262Y-75956438D01*
X160287262Y-75956438D02*
X160430119Y-75908819D01*
X160430119Y-75908819D02*
X160525357Y-75908819D01*
X160525357Y-75908819D02*
X160668214Y-75956438D01*
X160668214Y-75956438D02*
X160715833Y-76004057D01*
X161620595Y-75908819D02*
X161144405Y-75908819D01*
X161144405Y-75908819D02*
X161096786Y-76385009D01*
X161096786Y-76385009D02*
X161144405Y-76337390D01*
X161144405Y-76337390D02*
X161239643Y-76289771D01*
X161239643Y-76289771D02*
X161477738Y-76289771D01*
X161477738Y-76289771D02*
X161572976Y-76337390D01*
X161572976Y-76337390D02*
X161620595Y-76385009D01*
X161620595Y-76385009D02*
X161668214Y-76480247D01*
X161668214Y-76480247D02*
X161668214Y-76718342D01*
X161668214Y-76718342D02*
X161620595Y-76813580D01*
X161620595Y-76813580D02*
X161572976Y-76861200D01*
X161572976Y-76861200D02*
X161477738Y-76908819D01*
X161477738Y-76908819D02*
X161239643Y-76908819D01*
X161239643Y-76908819D02*
X161144405Y-76861200D01*
X161144405Y-76861200D02*
X161096786Y-76813580D01*
X156019667Y-78512200D02*
X156162524Y-78559819D01*
X156162524Y-78559819D02*
X156400619Y-78559819D01*
X156400619Y-78559819D02*
X156495857Y-78512200D01*
X156495857Y-78512200D02*
X156543476Y-78464580D01*
X156543476Y-78464580D02*
X156591095Y-78369342D01*
X156591095Y-78369342D02*
X156591095Y-78274104D01*
X156591095Y-78274104D02*
X156543476Y-78178866D01*
X156543476Y-78178866D02*
X156495857Y-78131247D01*
X156495857Y-78131247D02*
X156400619Y-78083628D01*
X156400619Y-78083628D02*
X156210143Y-78036009D01*
X156210143Y-78036009D02*
X156114905Y-77988390D01*
X156114905Y-77988390D02*
X156067286Y-77940771D01*
X156067286Y-77940771D02*
X156019667Y-77845533D01*
X156019667Y-77845533D02*
X156019667Y-77750295D01*
X156019667Y-77750295D02*
X156067286Y-77655057D01*
X156067286Y-77655057D02*
X156114905Y-77607438D01*
X156114905Y-77607438D02*
X156210143Y-77559819D01*
X156210143Y-77559819D02*
X156448238Y-77559819D01*
X156448238Y-77559819D02*
X156591095Y-77607438D01*
X156924429Y-77559819D02*
X157162524Y-78559819D01*
X157162524Y-78559819D02*
X157353000Y-77845533D01*
X157353000Y-77845533D02*
X157543476Y-78559819D01*
X157543476Y-78559819D02*
X157781572Y-77559819D01*
X158686333Y-78559819D02*
X158114905Y-78559819D01*
X158400619Y-78559819D02*
X158400619Y-77559819D01*
X158400619Y-77559819D02*
X158305381Y-77702676D01*
X158305381Y-77702676D02*
X158210143Y-77797914D01*
X158210143Y-77797914D02*
X158114905Y-77845533D01*
X207184666Y-123406819D02*
X207184666Y-124121104D01*
X207184666Y-124121104D02*
X207137047Y-124263961D01*
X207137047Y-124263961D02*
X207041809Y-124359200D01*
X207041809Y-124359200D02*
X206898952Y-124406819D01*
X206898952Y-124406819D02*
X206803714Y-124406819D01*
X208184666Y-124406819D02*
X207613238Y-124406819D01*
X207898952Y-124406819D02*
X207898952Y-123406819D01*
X207898952Y-123406819D02*
X207803714Y-123549676D01*
X207803714Y-123549676D02*
X207708476Y-123644914D01*
X207708476Y-123644914D02*
X207613238Y-123692533D01*
X236140666Y-70320819D02*
X236140666Y-71035104D01*
X236140666Y-71035104D02*
X236093047Y-71177961D01*
X236093047Y-71177961D02*
X235997809Y-71273200D01*
X235997809Y-71273200D02*
X235854952Y-71320819D01*
X235854952Y-71320819D02*
X235759714Y-71320819D01*
X236521619Y-70320819D02*
X237140666Y-70320819D01*
X237140666Y-70320819D02*
X236807333Y-70701771D01*
X236807333Y-70701771D02*
X236950190Y-70701771D01*
X236950190Y-70701771D02*
X237045428Y-70749390D01*
X237045428Y-70749390D02*
X237093047Y-70797009D01*
X237093047Y-70797009D02*
X237140666Y-70892247D01*
X237140666Y-70892247D02*
X237140666Y-71130342D01*
X237140666Y-71130342D02*
X237093047Y-71225580D01*
X237093047Y-71225580D02*
X237045428Y-71273200D01*
X237045428Y-71273200D02*
X236950190Y-71320819D01*
X236950190Y-71320819D02*
X236664476Y-71320819D01*
X236664476Y-71320819D02*
X236569238Y-71273200D01*
X236569238Y-71273200D02*
X236521619Y-71225580D01*
X184001580Y-78485809D02*
X184049200Y-78533428D01*
X184049200Y-78533428D02*
X184096819Y-78676285D01*
X184096819Y-78676285D02*
X184096819Y-78771523D01*
X184096819Y-78771523D02*
X184049200Y-78914380D01*
X184049200Y-78914380D02*
X183953961Y-79009618D01*
X183953961Y-79009618D02*
X183858723Y-79057237D01*
X183858723Y-79057237D02*
X183668247Y-79104856D01*
X183668247Y-79104856D02*
X183525390Y-79104856D01*
X183525390Y-79104856D02*
X183334914Y-79057237D01*
X183334914Y-79057237D02*
X183239676Y-79009618D01*
X183239676Y-79009618D02*
X183144438Y-78914380D01*
X183144438Y-78914380D02*
X183096819Y-78771523D01*
X183096819Y-78771523D02*
X183096819Y-78676285D01*
X183096819Y-78676285D02*
X183144438Y-78533428D01*
X183144438Y-78533428D02*
X183192057Y-78485809D01*
X184096819Y-77914380D02*
X184049200Y-78009618D01*
X184049200Y-78009618D02*
X184001580Y-78057237D01*
X184001580Y-78057237D02*
X183906342Y-78104856D01*
X183906342Y-78104856D02*
X183620628Y-78104856D01*
X183620628Y-78104856D02*
X183525390Y-78057237D01*
X183525390Y-78057237D02*
X183477771Y-78009618D01*
X183477771Y-78009618D02*
X183430152Y-77914380D01*
X183430152Y-77914380D02*
X183430152Y-77771523D01*
X183430152Y-77771523D02*
X183477771Y-77676285D01*
X183477771Y-77676285D02*
X183525390Y-77628666D01*
X183525390Y-77628666D02*
X183620628Y-77581047D01*
X183620628Y-77581047D02*
X183906342Y-77581047D01*
X183906342Y-77581047D02*
X184001580Y-77628666D01*
X184001580Y-77628666D02*
X184049200Y-77676285D01*
X184049200Y-77676285D02*
X184096819Y-77771523D01*
X184096819Y-77771523D02*
X184096819Y-77914380D01*
X183430152Y-77152475D02*
X184096819Y-77152475D01*
X183525390Y-77152475D02*
X183477771Y-77104856D01*
X183477771Y-77104856D02*
X183430152Y-77009618D01*
X183430152Y-77009618D02*
X183430152Y-76866761D01*
X183430152Y-76866761D02*
X183477771Y-76771523D01*
X183477771Y-76771523D02*
X183573009Y-76723904D01*
X183573009Y-76723904D02*
X184096819Y-76723904D01*
X183430152Y-76247713D02*
X184096819Y-76247713D01*
X183525390Y-76247713D02*
X183477771Y-76200094D01*
X183477771Y-76200094D02*
X183430152Y-76104856D01*
X183430152Y-76104856D02*
X183430152Y-75961999D01*
X183430152Y-75961999D02*
X183477771Y-75866761D01*
X183477771Y-75866761D02*
X183573009Y-75819142D01*
X183573009Y-75819142D02*
X184096819Y-75819142D01*
X183192057Y-75390570D02*
X183144438Y-75342951D01*
X183144438Y-75342951D02*
X183096819Y-75247713D01*
X183096819Y-75247713D02*
X183096819Y-75009618D01*
X183096819Y-75009618D02*
X183144438Y-74914380D01*
X183144438Y-74914380D02*
X183192057Y-74866761D01*
X183192057Y-74866761D02*
X183287295Y-74819142D01*
X183287295Y-74819142D02*
X183382533Y-74819142D01*
X183382533Y-74819142D02*
X183525390Y-74866761D01*
X183525390Y-74866761D02*
X184096819Y-75438189D01*
X184096819Y-75438189D02*
X184096819Y-74819142D01*
X161798095Y-106896819D02*
X161798095Y-107706342D01*
X161798095Y-107706342D02*
X161845714Y-107801580D01*
X161845714Y-107801580D02*
X161893333Y-107849200D01*
X161893333Y-107849200D02*
X161988571Y-107896819D01*
X161988571Y-107896819D02*
X162179047Y-107896819D01*
X162179047Y-107896819D02*
X162274285Y-107849200D01*
X162274285Y-107849200D02*
X162321904Y-107801580D01*
X162321904Y-107801580D02*
X162369523Y-107706342D01*
X162369523Y-107706342D02*
X162369523Y-106896819D01*
X162798095Y-106992057D02*
X162845714Y-106944438D01*
X162845714Y-106944438D02*
X162940952Y-106896819D01*
X162940952Y-106896819D02*
X163179047Y-106896819D01*
X163179047Y-106896819D02*
X163274285Y-106944438D01*
X163274285Y-106944438D02*
X163321904Y-106992057D01*
X163321904Y-106992057D02*
X163369523Y-107087295D01*
X163369523Y-107087295D02*
X163369523Y-107182533D01*
X163369523Y-107182533D02*
X163321904Y-107325390D01*
X163321904Y-107325390D02*
X162750476Y-107896819D01*
X162750476Y-107896819D02*
X163369523Y-107896819D01*
X171537333Y-85544819D02*
X171204000Y-85068628D01*
X170965905Y-85544819D02*
X170965905Y-84544819D01*
X170965905Y-84544819D02*
X171346857Y-84544819D01*
X171346857Y-84544819D02*
X171442095Y-84592438D01*
X171442095Y-84592438D02*
X171489714Y-84640057D01*
X171489714Y-84640057D02*
X171537333Y-84735295D01*
X171537333Y-84735295D02*
X171537333Y-84878152D01*
X171537333Y-84878152D02*
X171489714Y-84973390D01*
X171489714Y-84973390D02*
X171442095Y-85021009D01*
X171442095Y-85021009D02*
X171346857Y-85068628D01*
X171346857Y-85068628D02*
X170965905Y-85068628D01*
X171870667Y-84544819D02*
X172489714Y-84544819D01*
X172489714Y-84544819D02*
X172156381Y-84925771D01*
X172156381Y-84925771D02*
X172299238Y-84925771D01*
X172299238Y-84925771D02*
X172394476Y-84973390D01*
X172394476Y-84973390D02*
X172442095Y-85021009D01*
X172442095Y-85021009D02*
X172489714Y-85116247D01*
X172489714Y-85116247D02*
X172489714Y-85354342D01*
X172489714Y-85354342D02*
X172442095Y-85449580D01*
X172442095Y-85449580D02*
X172394476Y-85497200D01*
X172394476Y-85497200D02*
X172299238Y-85544819D01*
X172299238Y-85544819D02*
X172013524Y-85544819D01*
X172013524Y-85544819D02*
X171918286Y-85497200D01*
X171918286Y-85497200D02*
X171870667Y-85449580D01*
X169886333Y-110214580D02*
X169838714Y-110262200D01*
X169838714Y-110262200D02*
X169695857Y-110309819D01*
X169695857Y-110309819D02*
X169600619Y-110309819D01*
X169600619Y-110309819D02*
X169457762Y-110262200D01*
X169457762Y-110262200D02*
X169362524Y-110166961D01*
X169362524Y-110166961D02*
X169314905Y-110071723D01*
X169314905Y-110071723D02*
X169267286Y-109881247D01*
X169267286Y-109881247D02*
X169267286Y-109738390D01*
X169267286Y-109738390D02*
X169314905Y-109547914D01*
X169314905Y-109547914D02*
X169362524Y-109452676D01*
X169362524Y-109452676D02*
X169457762Y-109357438D01*
X169457762Y-109357438D02*
X169600619Y-109309819D01*
X169600619Y-109309819D02*
X169695857Y-109309819D01*
X169695857Y-109309819D02*
X169838714Y-109357438D01*
X169838714Y-109357438D02*
X169886333Y-109405057D01*
X170219667Y-109309819D02*
X170838714Y-109309819D01*
X170838714Y-109309819D02*
X170505381Y-109690771D01*
X170505381Y-109690771D02*
X170648238Y-109690771D01*
X170648238Y-109690771D02*
X170743476Y-109738390D01*
X170743476Y-109738390D02*
X170791095Y-109786009D01*
X170791095Y-109786009D02*
X170838714Y-109881247D01*
X170838714Y-109881247D02*
X170838714Y-110119342D01*
X170838714Y-110119342D02*
X170791095Y-110214580D01*
X170791095Y-110214580D02*
X170743476Y-110262200D01*
X170743476Y-110262200D02*
X170648238Y-110309819D01*
X170648238Y-110309819D02*
X170362524Y-110309819D01*
X170362524Y-110309819D02*
X170267286Y-110262200D01*
X170267286Y-110262200D02*
X170219667Y-110214580D01*
X171664333Y-94307819D02*
X171331000Y-93831628D01*
X171092905Y-94307819D02*
X171092905Y-93307819D01*
X171092905Y-93307819D02*
X171473857Y-93307819D01*
X171473857Y-93307819D02*
X171569095Y-93355438D01*
X171569095Y-93355438D02*
X171616714Y-93403057D01*
X171616714Y-93403057D02*
X171664333Y-93498295D01*
X171664333Y-93498295D02*
X171664333Y-93641152D01*
X171664333Y-93641152D02*
X171616714Y-93736390D01*
X171616714Y-93736390D02*
X171569095Y-93784009D01*
X171569095Y-93784009D02*
X171473857Y-93831628D01*
X171473857Y-93831628D02*
X171092905Y-93831628D01*
X172521476Y-93307819D02*
X172331000Y-93307819D01*
X172331000Y-93307819D02*
X172235762Y-93355438D01*
X172235762Y-93355438D02*
X172188143Y-93403057D01*
X172188143Y-93403057D02*
X172092905Y-93545914D01*
X172092905Y-93545914D02*
X172045286Y-93736390D01*
X172045286Y-93736390D02*
X172045286Y-94117342D01*
X172045286Y-94117342D02*
X172092905Y-94212580D01*
X172092905Y-94212580D02*
X172140524Y-94260200D01*
X172140524Y-94260200D02*
X172235762Y-94307819D01*
X172235762Y-94307819D02*
X172426238Y-94307819D01*
X172426238Y-94307819D02*
X172521476Y-94260200D01*
X172521476Y-94260200D02*
X172569095Y-94212580D01*
X172569095Y-94212580D02*
X172616714Y-94117342D01*
X172616714Y-94117342D02*
X172616714Y-93879247D01*
X172616714Y-93879247D02*
X172569095Y-93784009D01*
X172569095Y-93784009D02*
X172521476Y-93736390D01*
X172521476Y-93736390D02*
X172426238Y-93688771D01*
X172426238Y-93688771D02*
X172235762Y-93688771D01*
X172235762Y-93688771D02*
X172140524Y-93736390D01*
X172140524Y-93736390D02*
X172092905Y-93784009D01*
X172092905Y-93784009D02*
X172045286Y-93879247D01*
X163536333Y-89989819D02*
X163203000Y-89513628D01*
X162964905Y-89989819D02*
X162964905Y-88989819D01*
X162964905Y-88989819D02*
X163345857Y-88989819D01*
X163345857Y-88989819D02*
X163441095Y-89037438D01*
X163441095Y-89037438D02*
X163488714Y-89085057D01*
X163488714Y-89085057D02*
X163536333Y-89180295D01*
X163536333Y-89180295D02*
X163536333Y-89323152D01*
X163536333Y-89323152D02*
X163488714Y-89418390D01*
X163488714Y-89418390D02*
X163441095Y-89466009D01*
X163441095Y-89466009D02*
X163345857Y-89513628D01*
X163345857Y-89513628D02*
X162964905Y-89513628D01*
X163869667Y-88989819D02*
X164536333Y-88989819D01*
X164536333Y-88989819D02*
X164107762Y-89989819D01*
X167132095Y-84544819D02*
X167132095Y-85354342D01*
X167132095Y-85354342D02*
X167179714Y-85449580D01*
X167179714Y-85449580D02*
X167227333Y-85497200D01*
X167227333Y-85497200D02*
X167322571Y-85544819D01*
X167322571Y-85544819D02*
X167513047Y-85544819D01*
X167513047Y-85544819D02*
X167608285Y-85497200D01*
X167608285Y-85497200D02*
X167655904Y-85449580D01*
X167655904Y-85449580D02*
X167703523Y-85354342D01*
X167703523Y-85354342D02*
X167703523Y-84544819D01*
X168655904Y-84544819D02*
X168179714Y-84544819D01*
X168179714Y-84544819D02*
X168132095Y-85021009D01*
X168132095Y-85021009D02*
X168179714Y-84973390D01*
X168179714Y-84973390D02*
X168274952Y-84925771D01*
X168274952Y-84925771D02*
X168513047Y-84925771D01*
X168513047Y-84925771D02*
X168608285Y-84973390D01*
X168608285Y-84973390D02*
X168655904Y-85021009D01*
X168655904Y-85021009D02*
X168703523Y-85116247D01*
X168703523Y-85116247D02*
X168703523Y-85354342D01*
X168703523Y-85354342D02*
X168655904Y-85449580D01*
X168655904Y-85449580D02*
X168608285Y-85497200D01*
X168608285Y-85497200D02*
X168513047Y-85544819D01*
X168513047Y-85544819D02*
X168274952Y-85544819D01*
X168274952Y-85544819D02*
X168179714Y-85497200D01*
X168179714Y-85497200D02*
X168132095Y-85449580D01*
X157757905Y-99006819D02*
X157757905Y-98006819D01*
X157757905Y-98006819D02*
X157996000Y-98006819D01*
X157996000Y-98006819D02*
X158138857Y-98054438D01*
X158138857Y-98054438D02*
X158234095Y-98149676D01*
X158234095Y-98149676D02*
X158281714Y-98244914D01*
X158281714Y-98244914D02*
X158329333Y-98435390D01*
X158329333Y-98435390D02*
X158329333Y-98578247D01*
X158329333Y-98578247D02*
X158281714Y-98768723D01*
X158281714Y-98768723D02*
X158234095Y-98863961D01*
X158234095Y-98863961D02*
X158138857Y-98959200D01*
X158138857Y-98959200D02*
X157996000Y-99006819D01*
X157996000Y-99006819D02*
X157757905Y-99006819D01*
X158662667Y-98006819D02*
X159281714Y-98006819D01*
X159281714Y-98006819D02*
X158948381Y-98387771D01*
X158948381Y-98387771D02*
X159091238Y-98387771D01*
X159091238Y-98387771D02*
X159186476Y-98435390D01*
X159186476Y-98435390D02*
X159234095Y-98483009D01*
X159234095Y-98483009D02*
X159281714Y-98578247D01*
X159281714Y-98578247D02*
X159281714Y-98816342D01*
X159281714Y-98816342D02*
X159234095Y-98911580D01*
X159234095Y-98911580D02*
X159186476Y-98959200D01*
X159186476Y-98959200D02*
X159091238Y-99006819D01*
X159091238Y-99006819D02*
X158805524Y-99006819D01*
X158805524Y-99006819D02*
X158710286Y-98959200D01*
X158710286Y-98959200D02*
X158662667Y-98911580D01*
X163536333Y-98498819D02*
X163203000Y-98022628D01*
X162964905Y-98498819D02*
X162964905Y-97498819D01*
X162964905Y-97498819D02*
X163345857Y-97498819D01*
X163345857Y-97498819D02*
X163441095Y-97546438D01*
X163441095Y-97546438D02*
X163488714Y-97594057D01*
X163488714Y-97594057D02*
X163536333Y-97689295D01*
X163536333Y-97689295D02*
X163536333Y-97832152D01*
X163536333Y-97832152D02*
X163488714Y-97927390D01*
X163488714Y-97927390D02*
X163441095Y-97975009D01*
X163441095Y-97975009D02*
X163345857Y-98022628D01*
X163345857Y-98022628D02*
X162964905Y-98022628D01*
X164441095Y-97498819D02*
X163964905Y-97498819D01*
X163964905Y-97498819D02*
X163917286Y-97975009D01*
X163917286Y-97975009D02*
X163964905Y-97927390D01*
X163964905Y-97927390D02*
X164060143Y-97879771D01*
X164060143Y-97879771D02*
X164298238Y-97879771D01*
X164298238Y-97879771D02*
X164393476Y-97927390D01*
X164393476Y-97927390D02*
X164441095Y-97975009D01*
X164441095Y-97975009D02*
X164488714Y-98070247D01*
X164488714Y-98070247D02*
X164488714Y-98308342D01*
X164488714Y-98308342D02*
X164441095Y-98403580D01*
X164441095Y-98403580D02*
X164393476Y-98451200D01*
X164393476Y-98451200D02*
X164298238Y-98498819D01*
X164298238Y-98498819D02*
X164060143Y-98498819D01*
X164060143Y-98498819D02*
X163964905Y-98451200D01*
X163964905Y-98451200D02*
X163917286Y-98403580D01*
X196786667Y-101753200D02*
X196929524Y-101800819D01*
X196929524Y-101800819D02*
X197167619Y-101800819D01*
X197167619Y-101800819D02*
X197262857Y-101753200D01*
X197262857Y-101753200D02*
X197310476Y-101705580D01*
X197310476Y-101705580D02*
X197358095Y-101610342D01*
X197358095Y-101610342D02*
X197358095Y-101515104D01*
X197358095Y-101515104D02*
X197310476Y-101419866D01*
X197310476Y-101419866D02*
X197262857Y-101372247D01*
X197262857Y-101372247D02*
X197167619Y-101324628D01*
X197167619Y-101324628D02*
X196977143Y-101277009D01*
X196977143Y-101277009D02*
X196881905Y-101229390D01*
X196881905Y-101229390D02*
X196834286Y-101181771D01*
X196834286Y-101181771D02*
X196786667Y-101086533D01*
X196786667Y-101086533D02*
X196786667Y-100991295D01*
X196786667Y-100991295D02*
X196834286Y-100896057D01*
X196834286Y-100896057D02*
X196881905Y-100848438D01*
X196881905Y-100848438D02*
X196977143Y-100800819D01*
X196977143Y-100800819D02*
X197215238Y-100800819D01*
X197215238Y-100800819D02*
X197358095Y-100848438D01*
X197691429Y-100800819D02*
X197929524Y-101800819D01*
X197929524Y-101800819D02*
X198120000Y-101086533D01*
X198120000Y-101086533D02*
X198310476Y-101800819D01*
X198310476Y-101800819D02*
X198548572Y-100800819D01*
X198977143Y-101800819D02*
X199167619Y-101800819D01*
X199167619Y-101800819D02*
X199262857Y-101753200D01*
X199262857Y-101753200D02*
X199310476Y-101705580D01*
X199310476Y-101705580D02*
X199405714Y-101562723D01*
X199405714Y-101562723D02*
X199453333Y-101372247D01*
X199453333Y-101372247D02*
X199453333Y-100991295D01*
X199453333Y-100991295D02*
X199405714Y-100896057D01*
X199405714Y-100896057D02*
X199358095Y-100848438D01*
X199358095Y-100848438D02*
X199262857Y-100800819D01*
X199262857Y-100800819D02*
X199072381Y-100800819D01*
X199072381Y-100800819D02*
X198977143Y-100848438D01*
X198977143Y-100848438D02*
X198929524Y-100896057D01*
X198929524Y-100896057D02*
X198881905Y-100991295D01*
X198881905Y-100991295D02*
X198881905Y-101229390D01*
X198881905Y-101229390D02*
X198929524Y-101324628D01*
X198929524Y-101324628D02*
X198977143Y-101372247D01*
X198977143Y-101372247D02*
X199072381Y-101419866D01*
X199072381Y-101419866D02*
X199262857Y-101419866D01*
X199262857Y-101419866D02*
X199358095Y-101372247D01*
X199358095Y-101372247D02*
X199405714Y-101324628D01*
X199405714Y-101324628D02*
X199453333Y-101229390D01*
X196786667Y-114072200D02*
X196929524Y-114119819D01*
X196929524Y-114119819D02*
X197167619Y-114119819D01*
X197167619Y-114119819D02*
X197262857Y-114072200D01*
X197262857Y-114072200D02*
X197310476Y-114024580D01*
X197310476Y-114024580D02*
X197358095Y-113929342D01*
X197358095Y-113929342D02*
X197358095Y-113834104D01*
X197358095Y-113834104D02*
X197310476Y-113738866D01*
X197310476Y-113738866D02*
X197262857Y-113691247D01*
X197262857Y-113691247D02*
X197167619Y-113643628D01*
X197167619Y-113643628D02*
X196977143Y-113596009D01*
X196977143Y-113596009D02*
X196881905Y-113548390D01*
X196881905Y-113548390D02*
X196834286Y-113500771D01*
X196834286Y-113500771D02*
X196786667Y-113405533D01*
X196786667Y-113405533D02*
X196786667Y-113310295D01*
X196786667Y-113310295D02*
X196834286Y-113215057D01*
X196834286Y-113215057D02*
X196881905Y-113167438D01*
X196881905Y-113167438D02*
X196977143Y-113119819D01*
X196977143Y-113119819D02*
X197215238Y-113119819D01*
X197215238Y-113119819D02*
X197358095Y-113167438D01*
X197691429Y-113119819D02*
X197929524Y-114119819D01*
X197929524Y-114119819D02*
X198120000Y-113405533D01*
X198120000Y-113405533D02*
X198310476Y-114119819D01*
X198310476Y-114119819D02*
X198548572Y-113119819D01*
X199072381Y-113548390D02*
X198977143Y-113500771D01*
X198977143Y-113500771D02*
X198929524Y-113453152D01*
X198929524Y-113453152D02*
X198881905Y-113357914D01*
X198881905Y-113357914D02*
X198881905Y-113310295D01*
X198881905Y-113310295D02*
X198929524Y-113215057D01*
X198929524Y-113215057D02*
X198977143Y-113167438D01*
X198977143Y-113167438D02*
X199072381Y-113119819D01*
X199072381Y-113119819D02*
X199262857Y-113119819D01*
X199262857Y-113119819D02*
X199358095Y-113167438D01*
X199358095Y-113167438D02*
X199405714Y-113215057D01*
X199405714Y-113215057D02*
X199453333Y-113310295D01*
X199453333Y-113310295D02*
X199453333Y-113357914D01*
X199453333Y-113357914D02*
X199405714Y-113453152D01*
X199405714Y-113453152D02*
X199358095Y-113500771D01*
X199358095Y-113500771D02*
X199262857Y-113548390D01*
X199262857Y-113548390D02*
X199072381Y-113548390D01*
X199072381Y-113548390D02*
X198977143Y-113596009D01*
X198977143Y-113596009D02*
X198929524Y-113643628D01*
X198929524Y-113643628D02*
X198881905Y-113738866D01*
X198881905Y-113738866D02*
X198881905Y-113929342D01*
X198881905Y-113929342D02*
X198929524Y-114024580D01*
X198929524Y-114024580D02*
X198977143Y-114072200D01*
X198977143Y-114072200D02*
X199072381Y-114119819D01*
X199072381Y-114119819D02*
X199262857Y-114119819D01*
X199262857Y-114119819D02*
X199358095Y-114072200D01*
X199358095Y-114072200D02*
X199405714Y-114024580D01*
X199405714Y-114024580D02*
X199453333Y-113929342D01*
X199453333Y-113929342D02*
X199453333Y-113738866D01*
X199453333Y-113738866D02*
X199405714Y-113643628D01*
X199405714Y-113643628D02*
X199358095Y-113596009D01*
X199358095Y-113596009D02*
X199262857Y-113548390D01*
X165568333Y-110214580D02*
X165520714Y-110262200D01*
X165520714Y-110262200D02*
X165377857Y-110309819D01*
X165377857Y-110309819D02*
X165282619Y-110309819D01*
X165282619Y-110309819D02*
X165139762Y-110262200D01*
X165139762Y-110262200D02*
X165044524Y-110166961D01*
X165044524Y-110166961D02*
X164996905Y-110071723D01*
X164996905Y-110071723D02*
X164949286Y-109881247D01*
X164949286Y-109881247D02*
X164949286Y-109738390D01*
X164949286Y-109738390D02*
X164996905Y-109547914D01*
X164996905Y-109547914D02*
X165044524Y-109452676D01*
X165044524Y-109452676D02*
X165139762Y-109357438D01*
X165139762Y-109357438D02*
X165282619Y-109309819D01*
X165282619Y-109309819D02*
X165377857Y-109309819D01*
X165377857Y-109309819D02*
X165520714Y-109357438D01*
X165520714Y-109357438D02*
X165568333Y-109405057D01*
X165949286Y-109405057D02*
X165996905Y-109357438D01*
X165996905Y-109357438D02*
X166092143Y-109309819D01*
X166092143Y-109309819D02*
X166330238Y-109309819D01*
X166330238Y-109309819D02*
X166425476Y-109357438D01*
X166425476Y-109357438D02*
X166473095Y-109405057D01*
X166473095Y-109405057D02*
X166520714Y-109500295D01*
X166520714Y-109500295D02*
X166520714Y-109595533D01*
X166520714Y-109595533D02*
X166473095Y-109738390D01*
X166473095Y-109738390D02*
X165901667Y-110309819D01*
X165901667Y-110309819D02*
X166520714Y-110309819D01*
D14*
X173378905Y-115773419D02*
X173378905Y-114773419D01*
X173378905Y-114773419D02*
X173617000Y-114773419D01*
X173617000Y-114773419D02*
X173759857Y-114821038D01*
X173759857Y-114821038D02*
X173855095Y-114916276D01*
X173855095Y-114916276D02*
X173902714Y-115011514D01*
X173902714Y-115011514D02*
X173950333Y-115201990D01*
X173950333Y-115201990D02*
X173950333Y-115344847D01*
X173950333Y-115344847D02*
X173902714Y-115535323D01*
X173902714Y-115535323D02*
X173855095Y-115630561D01*
X173855095Y-115630561D02*
X173759857Y-115725800D01*
X173759857Y-115725800D02*
X173617000Y-115773419D01*
X173617000Y-115773419D02*
X173378905Y-115773419D01*
X174902714Y-115773419D02*
X174331286Y-115773419D01*
X174617000Y-115773419D02*
X174617000Y-114773419D01*
X174617000Y-114773419D02*
X174521762Y-114916276D01*
X174521762Y-114916276D02*
X174426524Y-115011514D01*
X174426524Y-115011514D02*
X174331286Y-115059133D01*
D15*
%TO.C,J2*%
X202312000Y-57118000D02*
X202312000Y-78668000D01*
X218562000Y-57118000D02*
X202312000Y-57118000D01*
X218562000Y-57118000D02*
X218562000Y-78668000D01*
X218562000Y-78668000D02*
X202312000Y-78668000D01*
%TO.C,R1*%
X238237500Y-98552724D02*
X238237500Y-98043276D01*
X239282500Y-98552724D02*
X239282500Y-98043276D01*
%TO.C,R9*%
X207517276Y-106665500D02*
X208026724Y-106665500D01*
X207517276Y-107710500D02*
X208026724Y-107710500D01*
D16*
%TO.C,U3*%
X175768000Y-80772000D02*
X236728000Y-80772000D01*
X175768000Y-98552000D02*
X175768000Y-80772000D01*
X236728000Y-80772000D02*
X236728000Y-85632000D01*
X236728000Y-85632000D02*
X237428000Y-85632000D01*
X236728000Y-93692000D02*
X237428000Y-93692000D01*
X236728000Y-98552000D02*
X175768000Y-98552000D01*
X236728000Y-98552000D02*
X236728000Y-93692000D01*
X237428000Y-85632000D02*
X237428000Y-93692000D01*
D12*
X230478000Y-80162000D02*
G75*
G02*
X230278000Y-80162000I-100000J0D01*
G01*
X230278000Y-80162000D02*
G75*
G02*
X230478000Y-80162000I100000J0D01*
G01*
D15*
%TO.C,C6*%
X207625733Y-109472000D02*
X207918267Y-109472000D01*
X207625733Y-110492000D02*
X207918267Y-110492000D01*
%TO.C,U6*%
X165467000Y-95630500D02*
X165817000Y-95630500D01*
X165467000Y-100330500D02*
X165467000Y-95630500D01*
X165817000Y-100330500D02*
X165467000Y-100330500D01*
X168387000Y-95630500D02*
X167147000Y-95630500D01*
X168387000Y-100330500D02*
X167147000Y-100330500D01*
X169717000Y-100330500D02*
X170067000Y-100330500D01*
X170067000Y-95630500D02*
X169717000Y-95630500D01*
X170067000Y-100330500D02*
X170067000Y-95630500D01*
X165817000Y-100955500D02*
X165487000Y-101195500D01*
X165487000Y-100715500D01*
X165817000Y-100955500D01*
G36*
X165817000Y-100955500D02*
G01*
X165487000Y-101195500D01*
X165487000Y-100715500D01*
X165817000Y-100955500D01*
G37*
%TO.C,C4*%
X177184267Y-75436000D02*
X176891733Y-75436000D01*
X177184267Y-76456000D02*
X176891733Y-76456000D01*
D10*
%TO.C,H5*%
X170896283Y-199136000D02*
G75*
G02*
X162859717Y-199136000I-4018283J0D01*
G01*
X162859717Y-199136000D02*
G75*
G02*
X170896283Y-199136000I4018283J0D01*
G01*
D15*
%TO.C,U4*%
X212886000Y-105820000D02*
X212886000Y-104920000D01*
X212886000Y-124340000D02*
X212886000Y-123750000D01*
X215571000Y-104920000D02*
X212886000Y-104920000D01*
X230796000Y-124340000D02*
X212886000Y-124340000D01*
X231106000Y-104920000D02*
X228421000Y-104920000D01*
X231106000Y-105820000D02*
X231106000Y-104920000D01*
X231106000Y-124280000D02*
X231106000Y-123780000D01*
X231606000Y-123780000D01*
X231106000Y-124280000D01*
G36*
X231106000Y-124280000D02*
G01*
X231106000Y-123780000D01*
X231606000Y-123780000D01*
X231106000Y-124280000D01*
G37*
%TO.C,R10*%
X207517276Y-103871500D02*
X208026724Y-103871500D01*
X207517276Y-104916500D02*
X208026724Y-104916500D01*
%TO.C,R4*%
X157973500Y-94742724D02*
X157973500Y-94233276D01*
X159018500Y-94742724D02*
X159018500Y-94233276D01*
%TO.C,D2*%
X230342000Y-77216000D02*
X230342000Y-76566000D01*
X230342000Y-77216000D02*
X230342000Y-77866000D01*
X233462000Y-77216000D02*
X233462000Y-76566000D01*
X233462000Y-77216000D02*
X233462000Y-77866000D01*
X233742000Y-76293500D02*
X233412000Y-76053500D01*
X233742000Y-75813500D01*
X233742000Y-76293500D01*
G36*
X233742000Y-76293500D02*
G01*
X233412000Y-76053500D01*
X233742000Y-75813500D01*
X233742000Y-76293500D01*
G37*
%TO.C,R8*%
X163830724Y-77709500D02*
X163321276Y-77709500D01*
X163830724Y-78754500D02*
X163321276Y-78754500D01*
%TO.C,R2*%
X176833276Y-77709500D02*
X177342724Y-77709500D01*
X176833276Y-78754500D02*
X177342724Y-78754500D01*
%TO.C,Conn1*%
X167328000Y-74344000D02*
X167328000Y-75594000D01*
X167628000Y-74644000D02*
X167628000Y-79364000D01*
X167628000Y-75954000D02*
X168238000Y-75954000D01*
X167628000Y-77254000D02*
X168238000Y-77254000D01*
X167628000Y-79364000D02*
X173748000Y-79364000D01*
X168238000Y-75254000D02*
X168238000Y-78754000D01*
X168238000Y-78754000D02*
X173138000Y-78754000D01*
X168578000Y-74344000D02*
X167328000Y-74344000D01*
X169088000Y-74444000D02*
X169088000Y-74644000D01*
X169388000Y-74444000D02*
X169088000Y-74444000D01*
X169388000Y-74544000D02*
X169088000Y-74544000D01*
X169388000Y-74644000D02*
X169388000Y-74444000D01*
X170188000Y-74644000D02*
X170188000Y-75254000D01*
X170188000Y-75254000D02*
X168238000Y-75254000D01*
X170588000Y-78254000D02*
X170788000Y-78254000D01*
X170588000Y-78754000D02*
X170588000Y-78254000D01*
X170688000Y-78754000D02*
X170688000Y-78254000D01*
X170788000Y-78254000D02*
X170788000Y-78754000D01*
X171188000Y-75254000D02*
X171188000Y-74644000D01*
X173138000Y-75254000D02*
X171188000Y-75254000D01*
X173138000Y-78754000D02*
X173138000Y-75254000D01*
X173748000Y-74644000D02*
X167628000Y-74644000D01*
X173748000Y-75954000D02*
X173138000Y-75954000D01*
X173748000Y-77254000D02*
X173138000Y-77254000D01*
X173748000Y-79364000D02*
X173748000Y-74644000D01*
D10*
%TO.C,H4*%
X161799638Y-130508645D02*
G75*
G02*
X153763072Y-130508645I-4018283J0D01*
G01*
X153763072Y-130508645D02*
G75*
G02*
X161799638Y-130508645I4018283J0D01*
G01*
%TO.C,H3*%
X245064283Y-130556000D02*
G75*
G02*
X237027717Y-130556000I-4018283J0D01*
G01*
X237027717Y-130556000D02*
G75*
G02*
X245064283Y-130556000I4018283J0D01*
G01*
%TO.C,BT1*%
D14*
X170390000Y-126746000D02*
X228390000Y-126746000D01*
X228390000Y-189746000D01*
X170390000Y-189746000D01*
X170390000Y-126746000D01*
D15*
%TO.C,U1*%
X179052000Y-100730000D02*
X188492000Y-100730000D01*
X179052000Y-122770000D02*
X179052000Y-100730000D01*
X181372000Y-123150000D02*
X183372000Y-123150000D01*
X188492000Y-100730000D02*
X188492000Y-122770000D01*
X188492000Y-122770000D02*
X179052000Y-122770000D01*
%TO.C,C1*%
X223010000Y-76561733D02*
X223010000Y-76854267D01*
X224030000Y-76561733D02*
X224030000Y-76854267D01*
%TO.C,C5*%
X163429733Y-75436000D02*
X163722267Y-75436000D01*
X163429733Y-76456000D02*
X163722267Y-76456000D01*
D10*
%TO.C,H6*%
X235920283Y-199136000D02*
G75*
G02*
X227883717Y-199136000I-4018283J0D01*
G01*
X227883717Y-199136000D02*
G75*
G02*
X235920283Y-199136000I4018283J0D01*
G01*
D15*
%TO.C,SW1*%
X154926000Y-79742000D02*
X154926000Y-81942000D01*
X154926000Y-86042000D02*
X154926000Y-88342000D01*
X159526000Y-79742000D02*
X159526000Y-88342000D01*
%TO.C,J1*%
X206188000Y-112716000D02*
X207518000Y-112716000D01*
X206188000Y-114046000D02*
X206188000Y-112716000D01*
X206188000Y-115316000D02*
X206188000Y-122996000D01*
X206188000Y-115316000D02*
X208848000Y-115316000D01*
X206188000Y-122996000D02*
X208848000Y-122996000D01*
X208848000Y-115316000D02*
X208848000Y-122996000D01*
D10*
%TO.C,H1*%
X245064283Y-65024000D02*
G75*
G02*
X237027717Y-65024000I-4018283J0D01*
G01*
X237027717Y-65024000D02*
G75*
G02*
X245064283Y-65024000I4018283J0D01*
G01*
D15*
%TO.C,J3*%
X221036000Y-57030000D02*
X221036000Y-57550000D01*
X221036000Y-57550000D02*
X221686000Y-57550000D01*
X221686000Y-65660000D02*
X221686000Y-57550000D01*
X221686000Y-72510000D02*
X221686000Y-69180000D01*
X232746000Y-72730000D02*
X230946000Y-72730000D01*
X235006000Y-57550000D02*
X235006000Y-65660000D01*
X235006000Y-57550000D02*
X235656000Y-57550000D01*
X235006000Y-72510000D02*
X221686000Y-72510000D01*
X235006000Y-72510000D02*
X235006000Y-69180000D01*
X235656000Y-57030000D02*
X221036000Y-57030000D01*
X235656000Y-57550000D02*
X235656000Y-57030000D01*
D10*
%TO.C,H2*%
X161752283Y-65024000D02*
G75*
G02*
X153715717Y-65024000I-4018283J0D01*
G01*
X153715717Y-65024000D02*
G75*
G02*
X161752283Y-65024000I4018283J0D01*
G01*
D15*
%TO.C,Conn2*%
X184616000Y-74344000D02*
X184616000Y-75594000D01*
X184916000Y-74644000D02*
X184916000Y-79364000D01*
X184916000Y-75954000D02*
X185526000Y-75954000D01*
X184916000Y-77254000D02*
X185526000Y-77254000D01*
X184916000Y-79364000D02*
X193036000Y-79364000D01*
X185526000Y-75254000D02*
X185526000Y-78754000D01*
X185526000Y-78754000D02*
X192426000Y-78754000D01*
X185866000Y-74344000D02*
X184616000Y-74344000D01*
X186376000Y-74444000D02*
X186376000Y-74644000D01*
X186676000Y-74444000D02*
X186376000Y-74444000D01*
X186676000Y-74544000D02*
X186376000Y-74544000D01*
X186676000Y-74644000D02*
X186676000Y-74444000D01*
X187476000Y-74644000D02*
X187476000Y-75254000D01*
X187476000Y-75254000D02*
X185526000Y-75254000D01*
X187876000Y-78254000D02*
X188076000Y-78254000D01*
X187876000Y-78754000D02*
X187876000Y-78254000D01*
X187976000Y-78754000D02*
X187976000Y-78254000D01*
X188076000Y-78254000D02*
X188076000Y-78754000D01*
X189876000Y-78254000D02*
X190076000Y-78254000D01*
X189876000Y-78754000D02*
X189876000Y-78254000D01*
X189976000Y-78754000D02*
X189976000Y-78254000D01*
X190076000Y-78254000D02*
X190076000Y-78754000D01*
X190476000Y-75254000D02*
X190476000Y-74644000D01*
X192426000Y-75254000D02*
X190476000Y-75254000D01*
X192426000Y-78754000D02*
X192426000Y-75254000D01*
X193036000Y-74644000D02*
X184916000Y-74644000D01*
X193036000Y-75954000D02*
X192426000Y-75954000D01*
X193036000Y-77254000D02*
X192426000Y-77254000D01*
X193036000Y-79364000D02*
X193036000Y-74644000D01*
%TO.C,U2*%
X167767000Y-103358000D02*
X165817000Y-103358000D01*
X167767000Y-103358000D02*
X169717000Y-103358000D01*
X167767000Y-108478000D02*
X165817000Y-108478000D01*
X167767000Y-108478000D02*
X169717000Y-108478000D01*
X170707000Y-108713000D02*
X170227000Y-108713000D01*
X170467000Y-108383000D01*
X170707000Y-108713000D01*
G36*
X170707000Y-108713000D02*
G01*
X170227000Y-108713000D01*
X170467000Y-108383000D01*
X170707000Y-108713000D01*
G37*
%TO.C,R3*%
X171308500Y-86954276D02*
X171308500Y-87463724D01*
X172353500Y-86954276D02*
X172353500Y-87463724D01*
%TO.C,C3*%
X169906733Y-110996000D02*
X170199267Y-110996000D01*
X169906733Y-112016000D02*
X170199267Y-112016000D01*
%TO.C,R6*%
X171308500Y-95693776D02*
X171308500Y-96203224D01*
X172353500Y-95693776D02*
X172353500Y-96203224D01*
%TO.C,R7*%
X163180500Y-91225276D02*
X163180500Y-91734724D01*
X164225500Y-91225276D02*
X164225500Y-91734724D01*
%TO.C,U5*%
X165467000Y-86994500D02*
X165817000Y-86994500D01*
X165467000Y-91694500D02*
X165467000Y-86994500D01*
X165817000Y-91694500D02*
X165467000Y-91694500D01*
X168387000Y-86994500D02*
X167147000Y-86994500D01*
X168387000Y-91694500D02*
X167147000Y-91694500D01*
X169717000Y-91694500D02*
X170067000Y-91694500D01*
X170067000Y-86994500D02*
X169717000Y-86994500D01*
X170067000Y-91694500D02*
X170067000Y-86994500D01*
X165817000Y-92319500D02*
X165487000Y-92559500D01*
X165487000Y-92079500D01*
X165817000Y-92319500D01*
G36*
X165817000Y-92319500D02*
G01*
X165487000Y-92559500D01*
X165487000Y-92079500D01*
X165817000Y-92319500D01*
G37*
%TO.C,D3*%
X160041000Y-99548000D02*
X156951000Y-99548000D01*
X158496462Y-105098000D02*
G75*
G02*
X156951170Y-99548000I-462J2990000D01*
G01*
X160040830Y-99548000D02*
G75*
G02*
X158495538Y-105098000I-1544830J-2560000D01*
G01*
X160996000Y-102108000D02*
G75*
G02*
X155996000Y-102108000I-2500000J0D01*
G01*
X155996000Y-102108000D02*
G75*
G02*
X160996000Y-102108000I2500000J0D01*
G01*
D17*
%TO.C,G\u002A\u002A\u002A*%
G36*
X200902411Y-195878107D02*
G01*
X200899455Y-195881063D01*
X200896499Y-195878107D01*
X200899455Y-195875150D01*
X200902411Y-195878107D01*
G37*
G36*
X201533108Y-192963716D02*
G01*
X201555056Y-192965082D01*
X201571552Y-192967906D01*
X201585777Y-192972657D01*
X201595511Y-192977099D01*
X201616284Y-192989072D01*
X201634404Y-193003932D01*
X201650342Y-193022779D01*
X201664570Y-193046718D01*
X201677558Y-193076851D01*
X201689779Y-193114279D01*
X201701702Y-193160107D01*
X201713800Y-193215436D01*
X201726543Y-193281369D01*
X201727302Y-193285486D01*
X201738141Y-193343068D01*
X201747734Y-193390653D01*
X201756519Y-193429948D01*
X201764939Y-193462660D01*
X201773434Y-193490494D01*
X201782445Y-193515158D01*
X201792412Y-193538358D01*
X201792844Y-193539295D01*
X201807070Y-193567858D01*
X201820861Y-193591560D01*
X201833142Y-193608868D01*
X201842835Y-193618249D01*
X201848540Y-193618563D01*
X201851464Y-193611491D01*
X201856718Y-193594877D01*
X201863742Y-193570644D01*
X201871978Y-193540714D01*
X201880052Y-193510160D01*
X201900099Y-193436584D01*
X201919804Y-193371628D01*
X201938880Y-193316142D01*
X201957039Y-193270980D01*
X201968481Y-193247054D01*
X201988687Y-193215077D01*
X202014927Y-193183342D01*
X202044538Y-193154425D01*
X202074858Y-193130903D01*
X202103222Y-193115351D01*
X202105600Y-193114426D01*
X202158170Y-193098503D01*
X202204388Y-193092453D01*
X202244431Y-193096286D01*
X202278475Y-193110017D01*
X202301420Y-193128044D01*
X202321614Y-193154364D01*
X202333077Y-193184969D01*
X202336254Y-193221620D01*
X202333404Y-193254560D01*
X202329250Y-193278909D01*
X202323446Y-193303100D01*
X202315228Y-193329415D01*
X202303831Y-193360133D01*
X202288490Y-193397537D01*
X202274712Y-193429566D01*
X202244049Y-193509062D01*
X202223372Y-193584238D01*
X202212314Y-193656490D01*
X202211119Y-193672405D01*
X202209956Y-193706935D01*
X202210908Y-193741664D01*
X202214242Y-193778697D01*
X202220222Y-193820139D01*
X202229112Y-193868092D01*
X202241178Y-193924662D01*
X202245035Y-193941770D01*
X202259137Y-194005725D01*
X202270016Y-194060089D01*
X202277836Y-194106600D01*
X202282762Y-194146996D01*
X202284958Y-194183015D01*
X202284589Y-194216396D01*
X202281820Y-194248877D01*
X202277122Y-194280444D01*
X202263485Y-194342912D01*
X202245302Y-194396342D01*
X202221207Y-194443084D01*
X202189835Y-194485489D01*
X202149822Y-194525907D01*
X202119987Y-194551070D01*
X202077162Y-194586929D01*
X202043355Y-194619579D01*
X202017013Y-194651112D01*
X201996584Y-194683618D01*
X201980516Y-194719188D01*
X201968735Y-194754736D01*
X201966142Y-194764862D01*
X201964002Y-194776520D01*
X201962269Y-194790919D01*
X201960893Y-194809269D01*
X201959826Y-194832778D01*
X201959020Y-194862658D01*
X201958428Y-194900116D01*
X201958001Y-194946363D01*
X201957691Y-195002608D01*
X201957562Y-195035579D01*
X201957267Y-195089983D01*
X201956789Y-195142085D01*
X201956157Y-195190385D01*
X201955399Y-195233386D01*
X201954542Y-195269588D01*
X201953613Y-195297492D01*
X201952642Y-195315601D01*
X201952293Y-195319378D01*
X201943462Y-195378333D01*
X201930868Y-195429278D01*
X201913333Y-195475742D01*
X201889676Y-195521251D01*
X201878879Y-195538961D01*
X201835185Y-195619162D01*
X201801811Y-195704849D01*
X201778868Y-195795543D01*
X201766470Y-195890764D01*
X201764726Y-195990030D01*
X201766464Y-196022962D01*
X201770688Y-196069369D01*
X201776977Y-196111251D01*
X201786131Y-196151756D01*
X201798949Y-196194032D01*
X201816230Y-196241228D01*
X201831549Y-196279211D01*
X201916562Y-196495792D01*
X201990676Y-196709089D01*
X202054087Y-196919893D01*
X202106997Y-197128996D01*
X202149604Y-197337191D01*
X202182106Y-197545271D01*
X202204704Y-197754028D01*
X202205996Y-197769626D01*
X202213582Y-197882699D01*
X202218085Y-197995408D01*
X202219556Y-198106226D01*
X202218044Y-198213625D01*
X202213599Y-198316079D01*
X202206271Y-198412060D01*
X202196112Y-198500041D01*
X202183169Y-198578496D01*
X202178787Y-198599780D01*
X202158275Y-198680212D01*
X202133724Y-198749967D01*
X202104740Y-198809621D01*
X202070932Y-198859746D01*
X202031905Y-198900916D01*
X201987266Y-198933704D01*
X201936623Y-198958684D01*
X201931271Y-198960752D01*
X201914039Y-198966696D01*
X201897090Y-198970957D01*
X201877680Y-198973902D01*
X201853068Y-198975901D01*
X201820509Y-198977320D01*
X201804064Y-198977825D01*
X201715377Y-198980347D01*
X201678159Y-198955458D01*
X201659284Y-198941482D01*
X201639696Y-198924034D01*
X201618609Y-198902157D01*
X201595233Y-198874890D01*
X201568782Y-198841277D01*
X201538469Y-198800357D01*
X201503505Y-198751173D01*
X201466937Y-198698358D01*
X201426271Y-198639417D01*
X201391005Y-198589136D01*
X201360145Y-198546228D01*
X201332694Y-198509407D01*
X201307658Y-198477387D01*
X201284039Y-198448882D01*
X201260843Y-198422606D01*
X201237075Y-198397272D01*
X201221685Y-198381547D01*
X201161282Y-198325055D01*
X201102030Y-198278990D01*
X201042187Y-198242309D01*
X200980007Y-198213974D01*
X200913748Y-198192946D01*
X200899455Y-198189432D01*
X200864550Y-198183727D01*
X200822003Y-198180590D01*
X200775710Y-198180013D01*
X200729570Y-198181990D01*
X200687481Y-198186516D01*
X200668868Y-198189796D01*
X200615008Y-198202666D01*
X200561933Y-198219026D01*
X200508713Y-198239420D01*
X200454415Y-198264395D01*
X200398109Y-198294497D01*
X200338864Y-198330273D01*
X200275748Y-198372269D01*
X200207831Y-198421031D01*
X200134179Y-198477106D01*
X200053864Y-198541038D01*
X200012583Y-198574750D01*
X199945551Y-198629257D01*
X199884478Y-198677629D01*
X199829908Y-198719459D01*
X199782380Y-198754339D01*
X199742437Y-198781861D01*
X199714291Y-198799495D01*
X199652080Y-198832333D01*
X199594695Y-198855014D01*
X199541302Y-198867759D01*
X199491065Y-198870794D01*
X199459732Y-198867668D01*
X199422221Y-198859955D01*
X199393340Y-198849966D01*
X199369916Y-198836180D01*
X199348779Y-198817077D01*
X199344489Y-198812419D01*
X199328481Y-198791854D01*
X199315084Y-198768145D01*
X199304218Y-198740418D01*
X199295804Y-198707801D01*
X199289764Y-198669420D01*
X199286017Y-198624402D01*
X199284485Y-198571873D01*
X199285090Y-198510960D01*
X199286763Y-198466867D01*
X199443596Y-198466867D01*
X199446368Y-198531851D01*
X199452517Y-198586381D01*
X199462036Y-198630522D01*
X199474917Y-198664339D01*
X199487638Y-198684002D01*
X199496393Y-198693726D01*
X199504454Y-198699106D01*
X199515378Y-198701135D01*
X199532724Y-198700802D01*
X199545199Y-198700043D01*
X199570914Y-198696799D01*
X199597121Y-198689979D01*
X199624730Y-198678983D01*
X199654651Y-198663216D01*
X199687793Y-198642078D01*
X199725065Y-198614972D01*
X199767379Y-198581300D01*
X199815642Y-198540466D01*
X199870766Y-198491871D01*
X199894334Y-198470674D01*
X199960792Y-198411085D01*
X200020003Y-198359043D01*
X200073042Y-198313696D01*
X200120986Y-198274191D01*
X200164910Y-198239676D01*
X200205890Y-198209299D01*
X200245003Y-198182208D01*
X200283323Y-198157549D01*
X200309978Y-198141442D01*
X200404399Y-198091395D01*
X200498354Y-198052725D01*
X200591538Y-198025437D01*
X200683644Y-198009537D01*
X200774369Y-198005028D01*
X200863406Y-198011916D01*
X200950451Y-198030205D01*
X201035197Y-198059900D01*
X201117340Y-198101006D01*
X201160721Y-198128093D01*
X201203972Y-198158700D01*
X201245734Y-198191816D01*
X201286824Y-198228357D01*
X201328056Y-198269242D01*
X201370249Y-198315390D01*
X201414217Y-198367719D01*
X201460778Y-198427148D01*
X201510747Y-198494594D01*
X201564941Y-198570977D01*
X201601860Y-198624452D01*
X201636862Y-198674923D01*
X201666505Y-198716101D01*
X201691485Y-198748848D01*
X201712499Y-198774028D01*
X201730244Y-198792502D01*
X201745417Y-198805134D01*
X201750515Y-198808498D01*
X201768126Y-198814852D01*
X201793576Y-198818648D01*
X201823132Y-198819756D01*
X201853059Y-198818045D01*
X201879624Y-198813386D01*
X201880926Y-198813038D01*
X201907602Y-198801877D01*
X201931251Y-198783447D01*
X201952102Y-198757162D01*
X201970380Y-198722435D01*
X201986311Y-198678682D01*
X202000123Y-198625317D01*
X202012043Y-198561754D01*
X202022295Y-198487408D01*
X202028245Y-198432297D01*
X202034160Y-198363274D01*
X202039066Y-198288035D01*
X202042950Y-198208365D01*
X202045796Y-198126048D01*
X202047589Y-198042870D01*
X202048315Y-197960615D01*
X202047957Y-197881069D01*
X202046503Y-197806016D01*
X202043936Y-197737242D01*
X202040242Y-197676532D01*
X202035407Y-197625670D01*
X202034996Y-197622287D01*
X202005498Y-197425527D01*
X201965115Y-197224197D01*
X201913856Y-197018327D01*
X201851730Y-196807946D01*
X201778745Y-196593084D01*
X201694912Y-196373768D01*
X201600239Y-196150029D01*
X201520482Y-195975857D01*
X201494117Y-195921009D01*
X201465841Y-195863867D01*
X201436184Y-195805380D01*
X201405676Y-195746498D01*
X201374848Y-195688169D01*
X201344228Y-195631344D01*
X201314348Y-195576970D01*
X201285738Y-195525997D01*
X201258928Y-195479375D01*
X201234448Y-195438052D01*
X201212828Y-195402978D01*
X201194598Y-195375101D01*
X201180290Y-195355371D01*
X201170432Y-195344736D01*
X201167033Y-195343108D01*
X201155505Y-195344638D01*
X201146764Y-195346633D01*
X201139067Y-195349470D01*
X201136816Y-195354620D01*
X201139500Y-195365560D01*
X201142657Y-195374637D01*
X201159000Y-195435838D01*
X201167306Y-195502995D01*
X201167678Y-195573481D01*
X201160217Y-195644673D01*
X201145026Y-195713947D01*
X201127395Y-195766177D01*
X201089769Y-195845013D01*
X201042593Y-195917426D01*
X200986592Y-195982847D01*
X200922491Y-196040707D01*
X200851014Y-196090434D01*
X200772886Y-196131460D01*
X200688832Y-196163216D01*
X200599576Y-196185130D01*
X200592808Y-196186341D01*
X200547322Y-196191711D01*
X200495309Y-196193665D01*
X200440836Y-196192353D01*
X200387970Y-196187923D01*
X200340777Y-196180526D01*
X200323144Y-196176444D01*
X200244643Y-196150753D01*
X200173495Y-196116800D01*
X200110286Y-196074986D01*
X200055601Y-196025718D01*
X200010028Y-195969398D01*
X199999756Y-195953669D01*
X199973048Y-195910817D01*
X199915953Y-195950207D01*
X199893438Y-195965745D01*
X199874750Y-195978650D01*
X199861884Y-195987546D01*
X199856856Y-195991038D01*
X199854981Y-195997182D01*
X199850949Y-196013899D01*
X199844972Y-196040174D01*
X199837265Y-196074995D01*
X199828041Y-196117349D01*
X199817513Y-196166223D01*
X199805896Y-196220604D01*
X199793403Y-196279480D01*
X199780247Y-196341836D01*
X199766643Y-196406660D01*
X199752804Y-196472940D01*
X199738944Y-196539662D01*
X199725276Y-196605813D01*
X199712014Y-196670381D01*
X199699372Y-196732352D01*
X199687563Y-196790714D01*
X199676802Y-196844453D01*
X199676145Y-196847753D01*
X199637875Y-197043302D01*
X199603062Y-197227610D01*
X199571699Y-197400743D01*
X199543780Y-197562767D01*
X199519298Y-197713746D01*
X199498246Y-197853746D01*
X199480618Y-197982834D01*
X199466407Y-198101074D01*
X199455606Y-198208531D01*
X199448208Y-198305273D01*
X199444207Y-198391363D01*
X199443596Y-198466867D01*
X199286763Y-198466867D01*
X199287752Y-198440790D01*
X199292391Y-198360489D01*
X199297300Y-198290701D01*
X199299792Y-198255625D01*
X199301740Y-198224794D01*
X199303048Y-198200067D01*
X199303617Y-198183306D01*
X199303349Y-198176371D01*
X199303309Y-198176312D01*
X199299523Y-198179580D01*
X199292650Y-198190558D01*
X199288946Y-198197498D01*
X199276475Y-198217552D01*
X199261220Y-198236640D01*
X199258516Y-198239458D01*
X199244134Y-198251532D01*
X199229459Y-198256813D01*
X199212466Y-198257791D01*
X199165012Y-198253150D01*
X199118081Y-198240365D01*
X199075252Y-198220700D01*
X199042753Y-198197799D01*
X199018129Y-198170719D01*
X199003140Y-198140119D01*
X198996693Y-198103451D01*
X198996252Y-198089373D01*
X198997292Y-198065743D01*
X199001046Y-198043362D01*
X199008282Y-198020848D01*
X199019768Y-197996816D01*
X199036273Y-197969884D01*
X199058563Y-197938667D01*
X199087409Y-197901784D01*
X199123576Y-197857849D01*
X199127218Y-197853501D01*
X199169791Y-197800679D01*
X199204198Y-197753124D01*
X199231609Y-197708846D01*
X199253194Y-197665857D01*
X199270126Y-197622169D01*
X199277589Y-197598136D01*
X199283162Y-197576791D01*
X199286995Y-197556318D01*
X199289391Y-197533671D01*
X199290655Y-197505805D01*
X199291090Y-197469676D01*
X199291103Y-197462650D01*
X199290741Y-197423269D01*
X199289273Y-197389358D01*
X199286246Y-197358247D01*
X199281205Y-197327265D01*
X199273696Y-197293741D01*
X199263266Y-197255006D01*
X199249459Y-197208387D01*
X199245856Y-197196589D01*
X199230018Y-197143131D01*
X199218063Y-197097794D01*
X199209551Y-197057695D01*
X199204045Y-197019948D01*
X199201329Y-196984575D01*
X199326301Y-196984575D01*
X199328354Y-197015798D01*
X199334354Y-197050141D01*
X199344630Y-197089321D01*
X199359508Y-197135057D01*
X199379315Y-197189065D01*
X199386738Y-197208354D01*
X199420563Y-197295454D01*
X199451366Y-197121859D01*
X199460469Y-197071025D01*
X199470162Y-197017710D01*
X199479911Y-196964803D01*
X199489179Y-196915194D01*
X199497431Y-196871772D01*
X199503486Y-196840673D01*
X199513846Y-196784909D01*
X199520683Y-196739675D01*
X199524058Y-196704231D01*
X199524032Y-196677838D01*
X199520665Y-196659757D01*
X199518683Y-196655209D01*
X199508319Y-196644914D01*
X199494458Y-196644569D01*
X199477849Y-196653089D01*
X199459243Y-196669388D01*
X199439388Y-196692379D01*
X199419034Y-196720978D01*
X199398930Y-196754098D01*
X199379826Y-196790652D01*
X199362472Y-196829557D01*
X199347616Y-196869724D01*
X199336009Y-196910070D01*
X199332732Y-196924615D01*
X199327869Y-196954753D01*
X199326301Y-196984575D01*
X199201329Y-196984575D01*
X199201106Y-196981667D01*
X199200295Y-196939968D01*
X199200917Y-196900965D01*
X199202125Y-196863405D01*
X199203681Y-196834978D01*
X199205935Y-196812991D01*
X199209236Y-196794754D01*
X199213933Y-196777572D01*
X199218792Y-196763167D01*
X199230795Y-196732730D01*
X199245617Y-196701840D01*
X199264278Y-196668798D01*
X199287800Y-196631904D01*
X199317203Y-196589460D01*
X199350911Y-196543260D01*
X199402868Y-196472092D01*
X199447703Y-196407842D01*
X199486382Y-196348797D01*
X199519869Y-196293247D01*
X199549127Y-196239480D01*
X199575122Y-196185785D01*
X199598817Y-196130449D01*
X199621176Y-196071762D01*
X199629055Y-196049568D01*
X199648123Y-195991613D01*
X199664155Y-195934999D01*
X199677636Y-195877296D01*
X199689052Y-195816078D01*
X199698886Y-195748917D01*
X199707624Y-195673383D01*
X199710749Y-195641952D01*
X200028375Y-195641952D01*
X200033710Y-195705218D01*
X200048671Y-195767832D01*
X200072829Y-195828058D01*
X200105753Y-195884163D01*
X200147015Y-195934411D01*
X200152037Y-195939499D01*
X200204601Y-195983582D01*
X200264016Y-196018658D01*
X200329185Y-196044476D01*
X200399010Y-196060786D01*
X200472396Y-196067336D01*
X200548246Y-196063876D01*
X200625462Y-196050154D01*
X200630387Y-196048931D01*
X200705134Y-196024348D01*
X200775221Y-195989989D01*
X200839454Y-195946790D01*
X200896639Y-195895682D01*
X200945581Y-195837600D01*
X200985086Y-195773477D01*
X200986599Y-195770512D01*
X201006841Y-195728832D01*
X201021498Y-195693754D01*
X201031404Y-195661946D01*
X201037390Y-195630076D01*
X201040287Y-195594813D01*
X201040928Y-195552920D01*
X201038809Y-195496046D01*
X201032479Y-195447822D01*
X201021147Y-195405578D01*
X201004024Y-195366644D01*
X200980319Y-195328352D01*
X200970421Y-195314739D01*
X200929776Y-195270330D01*
X200880017Y-195232627D01*
X200822192Y-195202293D01*
X200757351Y-195179993D01*
X200757321Y-195179985D01*
X200735867Y-195175188D01*
X200712367Y-195171995D01*
X200684014Y-195170179D01*
X200648001Y-195169514D01*
X200627481Y-195169536D01*
X200590415Y-195169992D01*
X200561531Y-195171185D01*
X200537191Y-195173544D01*
X200513756Y-195177494D01*
X200487586Y-195183463D01*
X200469458Y-195188088D01*
X200392300Y-195212644D01*
X200319763Y-195244512D01*
X200252915Y-195282848D01*
X200192824Y-195326810D01*
X200140556Y-195375558D01*
X200097179Y-195428247D01*
X200063761Y-195484037D01*
X200048299Y-195520402D01*
X200033094Y-195579769D01*
X200028375Y-195641952D01*
X199710749Y-195641952D01*
X199711077Y-195638651D01*
X199722972Y-195507288D01*
X199733715Y-195374995D01*
X199743300Y-195242460D01*
X199751721Y-195110369D01*
X199758971Y-194979411D01*
X199765044Y-194850271D01*
X199769934Y-194723636D01*
X199773634Y-194600194D01*
X199776140Y-194480632D01*
X199777444Y-194365635D01*
X199777540Y-194255892D01*
X199776422Y-194152088D01*
X199774084Y-194054912D01*
X199770521Y-193965049D01*
X199765724Y-193883188D01*
X199759690Y-193810014D01*
X199752410Y-193746214D01*
X199743880Y-193692476D01*
X199734093Y-193649487D01*
X199729076Y-193633246D01*
X199724178Y-193617944D01*
X199721797Y-193608291D01*
X199721824Y-193606792D01*
X199727222Y-193609176D01*
X199740575Y-193617304D01*
X199760219Y-193630038D01*
X199784492Y-193646241D01*
X199811733Y-193664775D01*
X199840278Y-193684502D01*
X199868466Y-193704284D01*
X199894633Y-193722985D01*
X199917119Y-193739467D01*
X199930106Y-193749329D01*
X200039744Y-193837912D01*
X200152997Y-193935972D01*
X200268562Y-194042231D01*
X200385135Y-194155414D01*
X200501412Y-194274244D01*
X200616090Y-194397444D01*
X200727864Y-194523737D01*
X200763604Y-194565537D01*
X200929080Y-194767741D01*
X201084642Y-194972434D01*
X201232201Y-195182231D01*
X201373665Y-195399747D01*
X201377017Y-195405108D01*
X201400505Y-195442214D01*
X201419221Y-195470472D01*
X201434239Y-195491313D01*
X201446634Y-195506169D01*
X201457480Y-195516469D01*
X201464576Y-195521637D01*
X201503048Y-195539863D01*
X201544512Y-195547819D01*
X201587660Y-195546250D01*
X201631181Y-195535900D01*
X201673766Y-195517514D01*
X201714105Y-195491836D01*
X201750889Y-195459610D01*
X201782807Y-195421582D01*
X201808550Y-195378495D01*
X201826808Y-195331095D01*
X201831284Y-195313177D01*
X201834246Y-195290856D01*
X201835964Y-195259162D01*
X201836523Y-195220475D01*
X201836008Y-195177171D01*
X201834505Y-195131630D01*
X201832098Y-195086228D01*
X201828873Y-195043345D01*
X201824915Y-195005358D01*
X201820309Y-194974645D01*
X201818917Y-194967683D01*
X201803865Y-194909716D01*
X201785667Y-194860313D01*
X201764737Y-194820270D01*
X201741488Y-194790381D01*
X201716809Y-194771686D01*
X201702561Y-194766136D01*
X201680716Y-194759677D01*
X201655322Y-194753468D01*
X201647646Y-194751834D01*
X201616144Y-194744052D01*
X201585185Y-194733326D01*
X201552328Y-194718557D01*
X201515133Y-194698647D01*
X201471160Y-194672496D01*
X201470395Y-194672026D01*
X201423639Y-194644315D01*
X201383912Y-194623282D01*
X201349206Y-194607979D01*
X201317512Y-194597460D01*
X201306264Y-194594618D01*
X201286195Y-194590608D01*
X201267169Y-194588613D01*
X201246971Y-194588845D01*
X201223381Y-194591515D01*
X201194184Y-194596835D01*
X201157161Y-194605017D01*
X201130041Y-194611442D01*
X201078938Y-194622484D01*
X201037184Y-194628272D01*
X201003341Y-194628387D01*
X200975967Y-194622413D01*
X200953623Y-194609932D01*
X200934868Y-194590527D01*
X200918262Y-194563779D01*
X200910434Y-194547782D01*
X200898110Y-194511006D01*
X200893285Y-194472734D01*
X200896056Y-194436436D01*
X200906453Y-194405707D01*
X200931580Y-194370234D01*
X200967757Y-194337369D01*
X201014433Y-194307420D01*
X201071058Y-194280694D01*
X201137084Y-194257496D01*
X201203169Y-194240099D01*
X201228617Y-194234092D01*
X201249524Y-194228757D01*
X201263353Y-194224765D01*
X201267575Y-194223037D01*
X201265120Y-194217727D01*
X201256007Y-194205928D01*
X201241836Y-194189614D01*
X201230879Y-194177745D01*
X201163790Y-194099209D01*
X201100993Y-194010323D01*
X201042274Y-193910763D01*
X201003190Y-193833938D01*
X200963298Y-193746651D01*
X200930022Y-193665209D01*
X200903661Y-193590442D01*
X200884515Y-193523179D01*
X200875183Y-193478821D01*
X200870035Y-193423846D01*
X200874755Y-193375360D01*
X200889419Y-193333222D01*
X200914107Y-193297289D01*
X200948895Y-193267418D01*
X200993862Y-193243466D01*
X201006165Y-193238587D01*
X201040755Y-193228928D01*
X201071757Y-193227753D01*
X201100011Y-193235611D01*
X201126359Y-193253048D01*
X201151644Y-193280612D01*
X201176707Y-193318850D01*
X201200954Y-193365304D01*
X201217151Y-193399094D01*
X201235345Y-193437083D01*
X201252802Y-193473562D01*
X201261821Y-193492422D01*
X201277538Y-193523614D01*
X201295585Y-193556819D01*
X201313216Y-193587086D01*
X201322311Y-193601558D01*
X201336213Y-193621191D01*
X201353282Y-193642938D01*
X201371912Y-193665040D01*
X201390495Y-193685734D01*
X201407423Y-193703259D01*
X201421088Y-193715854D01*
X201429883Y-193721757D01*
X201431939Y-193721662D01*
X201431439Y-193715326D01*
X201428402Y-193699257D01*
X201423205Y-193675182D01*
X201416227Y-193644829D01*
X201407843Y-193609925D01*
X201405001Y-193598383D01*
X201386238Y-193519484D01*
X201371443Y-193449631D01*
X201360383Y-193386819D01*
X201352826Y-193329042D01*
X201348538Y-193274292D01*
X201347286Y-193220564D01*
X201348839Y-193165851D01*
X201350949Y-193132656D01*
X201355547Y-193086562D01*
X201362050Y-193050539D01*
X201371128Y-193022894D01*
X201383447Y-193001938D01*
X201399678Y-192985980D01*
X201412227Y-192977723D01*
X201424765Y-192971222D01*
X201437120Y-192967013D01*
X201452310Y-192964616D01*
X201473349Y-192963551D01*
X201502527Y-192963336D01*
X201533108Y-192963716D01*
G37*
D15*
%TO.C,R5*%
X163180500Y-99861276D02*
X163180500Y-100370724D01*
X164225500Y-99861276D02*
X164225500Y-100370724D01*
%TO.C,SW9*%
X195726000Y-104012000D02*
X195726000Y-108752000D01*
X195726000Y-104012000D02*
X196126000Y-104012000D01*
X195726000Y-108752000D02*
X196126000Y-108752000D01*
X197066000Y-104012000D02*
X199126000Y-104012000D01*
X197066000Y-108752000D02*
X199126000Y-108752000D01*
X200466000Y-104012000D02*
X200066000Y-104012000D01*
X200466000Y-104012000D02*
X200466000Y-108752000D01*
X200466000Y-108752000D02*
X200066000Y-108752000D01*
%TO.C,SW8*%
X195726000Y-116546000D02*
X195726000Y-121286000D01*
X195726000Y-116546000D02*
X196126000Y-116546000D01*
X195726000Y-121286000D02*
X196126000Y-121286000D01*
X197066000Y-116546000D02*
X199126000Y-116546000D01*
X197066000Y-121286000D02*
X199126000Y-121286000D01*
X200466000Y-116546000D02*
X200066000Y-116546000D01*
X200466000Y-116546000D02*
X200466000Y-121286000D01*
X200466000Y-121286000D02*
X200066000Y-121286000D01*
%TO.C,C2*%
X165881267Y-110996000D02*
X165588733Y-110996000D01*
X165881267Y-112016000D02*
X165588733Y-112016000D01*
%TO.C,D1*%
X174068500Y-116550000D02*
X173418500Y-116550000D01*
X174068500Y-116550000D02*
X174718500Y-116550000D01*
X174068500Y-119670000D02*
X173418500Y-119670000D01*
X174068500Y-119670000D02*
X174718500Y-119670000D01*
X172906000Y-116600000D02*
X172666000Y-116270000D01*
X173146000Y-116270000D01*
X172906000Y-116600000D01*
G36*
X172906000Y-116600000D02*
G01*
X172666000Y-116270000D01*
X173146000Y-116270000D01*
X172906000Y-116600000D01*
G37*
%TD*%
M02*
