M48
; DRILL file {KiCad 8.0.5} date 2024-11-15T14:25:45-0600
; FORMAT={-:-/ absolute / inch / decimal}
; #@! TF.CreationDate,2024-11-15T14:25:45-06:00
; #@! TF.GenerationSoftware,Kicad,Pcbnew,8.0.5
; #@! TF.FileFunction,Plated,1,2,PTH
FMAT,2
INCH
; #@! TA.AperFunction,Plated,PTH,ComponentDrill
T1C0.0079
; #@! TA.AperFunction,Plated,PTH,ViaDrill
T2C0.0157
; #@! TA.AperFunction,Plated,PTH,ComponentDrill
T3C0.0276
; #@! TA.AperFunction,Plated,PTH,ComponentDrill
T4C0.0295
; #@! TA.AperFunction,Plated,PTH,ComponentDrill
T5C0.0315
; #@! TA.AperFunction,Plated,PTH,ComponentDrill
T6C0.0354
; #@! TA.AperFunction,Plated,PTH,ComponentDrill
T7C0.0374
; #@! TA.AperFunction,Plated,PTH,ComponentDrill
T8C0.0394
; #@! TA.AperFunction,Plated,PTH,ComponentDrill
T9C0.0402
; #@! TA.AperFunction,Plated,PTH,ComponentDrill
T10C0.0591
; #@! TA.AperFunction,Plated,PTH,ComponentDrill
T11C0.0630
; #@! TA.AperFunction,Plated,PTH,ComponentDrill
T12C0.0906
; #@! TA.AperFunction,Plated,PTH,ComponentDrill
T13C0.1280
%
G90
G05
T1
X8.7439Y-4.5276
X8.7439Y-4.5827
X8.7715Y-4.5
X8.7715Y-4.5551
X8.7715Y-4.6102
X8.7991Y-4.5276
X8.7991Y-4.5827
X8.8266Y-4.5
X8.8266Y-4.5551
X8.8266Y-4.6102
X8.8542Y-4.5276
X8.8542Y-4.5827
T2
X6.24Y-4.46
X6.39Y-4.37
X6.41Y-3.21
X6.43Y-4.61
X6.47Y-4.82
X6.485Y-3.4675
X6.485Y-3.7975
X6.6Y-5.2
X6.6Y-5.6
X6.6Y-7.0
X6.6Y-7.4
X6.66Y-4.505
X6.7Y-3.3
X6.72Y-4.61
X6.755Y-3.64
X6.76Y-3.94
X6.8Y-6.6
X6.83Y-4.15
X6.84Y-4.32
X6.91Y-4.82
X7.1Y-3.37
X7.1Y-3.54
X7.1Y-3.72
X7.1Y-5.2
X7.1Y-5.6
X7.1Y-7.0
X7.1Y-7.4
X7.16Y-3.03
X7.29Y-6.04
X7.37Y-3.37
X7.37Y-3.54
X7.37Y-3.72
X7.565Y-6.335
X7.6Y-7.0
X7.6Y-7.4
X7.67Y-3.37
X7.67Y-3.54
X7.67Y-3.72
X7.71Y-6.18
X7.76Y-6.04
X7.8Y-6.6
X7.82Y-5.9
X7.88Y-5.78
X7.94Y-3.03
X7.97Y-3.37
X7.97Y-3.72
X8.03Y-4.01
X8.07Y-3.37
X8.07Y-3.72
X8.07Y-4.11
X8.07Y-4.22
X8.1Y-4.05
X8.1Y-5.2
X8.1Y-5.6
X8.1Y-7.0
X8.1Y-7.4
X8.18Y-3.97
X8.23Y-3.54
X8.23Y-3.72
X8.26Y-2.77
X8.43Y-3.4
X8.43Y-3.72
X8.57Y-2.96
X8.57Y-3.13
X8.6Y-5.2
X8.6Y-5.6
X8.6Y-7.0
X8.6Y-7.4
X8.68Y-3.03
X8.89Y-3.44
X8.89Y-3.68
X8.91Y-4.8
X8.92Y-3.97
X8.99Y-2.59
X9.0Y-3.09
X9.02Y-4.01
X9.09Y-4.05
X9.1Y-5.2
X9.1Y-5.6
X9.1Y-7.0
X9.1Y-7.4
X9.11Y-3.49
X9.22Y-3.8915
X9.22Y-4.21
X9.28Y-3.93
X9.28Y-4.51
X9.28Y-4.73
X9.31Y-3.0
X9.33Y-4.05
X9.33Y-4.41
X9.38Y-3.97
X9.38Y-4.31
X9.39Y-3.68
X9.43Y-4.01
X9.43Y-4.11
T3
X8.6806Y-3.5761
X8.6806Y-3.6548
X8.6806Y-3.7335
X8.7594Y-3.5761
X8.7594Y-3.6548
X8.7594Y-3.7335
T4
X6.6806Y-3.01
X6.7594Y-3.01
X7.3613Y-3.01
X7.44Y-3.01
X7.5187Y-3.01
X8.62Y-3.3501
X8.72Y-3.3501
X8.82Y-3.3501
X8.92Y-3.3501
X9.02Y-3.3501
T5
X6.97Y-3.23
X6.97Y-3.83
X7.07Y-3.23
X7.07Y-3.83
X7.17Y-3.23
X7.17Y-3.83
X7.27Y-3.23
X7.27Y-3.83
X7.37Y-3.23
X7.37Y-3.83
X7.47Y-3.23
X7.47Y-3.33
X7.47Y-3.43
X7.47Y-3.53
X7.47Y-3.63
X7.47Y-3.73
X7.47Y-3.83
X7.57Y-3.23
X7.57Y-3.83
X7.67Y-3.23
X7.67Y-3.83
X7.77Y-3.23
X7.77Y-3.83
X7.87Y-3.23
X7.87Y-3.83
X7.97Y-3.23
X7.97Y-3.83
X8.07Y-3.23
X8.07Y-3.83
X8.17Y-3.23
X8.17Y-3.83
X8.27Y-3.23
X8.27Y-3.83
X8.37Y-3.23
X8.37Y-3.83
X8.47Y-3.23
X8.47Y-3.83
X8.57Y-3.23
X8.57Y-3.83
X8.67Y-3.23
X8.67Y-3.83
X8.77Y-3.23
X8.77Y-3.83
X8.87Y-3.23
X8.87Y-3.83
X8.97Y-3.23
X8.97Y-3.83
X9.07Y-3.23
X9.07Y-3.83
X9.17Y-3.23
X9.17Y-3.73
X9.17Y-3.83
X9.27Y-3.23
X9.27Y-3.83
T6
X6.19Y-3.23
X6.19Y-3.3087
X6.19Y-3.3875
X6.24Y-3.97
X6.24Y-4.07
X8.1099Y-3.0318
X8.1599Y-2.9318
X8.2099Y-3.0318
X8.2599Y-2.9318
X8.3099Y-3.0318
X8.3599Y-2.9318
X8.4099Y-3.0318
X8.4599Y-2.9318
T7
X8.8522Y-2.761
X8.9506Y-2.761
X9.0294Y-2.761
X9.1278Y-2.761
T8
X6.8028Y-5.3719
X6.8028Y-5.8719
X7.18Y-4.05
X7.18Y-4.15
X7.18Y-4.25
X7.18Y-4.35
X7.18Y-4.55
X7.18Y-4.65
X7.18Y-4.75
X8.17Y-4.49
X8.17Y-4.59
X8.17Y-4.69
X8.17Y-4.79
X9.5335Y-3.21
X9.5335Y-3.31
X9.5335Y-3.41
X9.5335Y-3.51
X9.5335Y-3.61
X9.5335Y-3.71
X9.5335Y-3.81
X9.5335Y-3.91
X9.5335Y-4.01
X9.5335Y-4.11
X9.5335Y-4.21
X9.5335Y-4.31
X9.5335Y-4.41
X9.5335Y-4.51
T9
X8.0359Y-2.5523
X8.1359Y-2.4818
X8.4339Y-2.5523
X8.5339Y-2.4818
T10
X6.19Y-3.1473
X6.19Y-3.4702
T11
X7.9749Y-2.8019
X8.595Y-2.8019
T12
X8.7313Y-2.6543
X9.2487Y-2.6543
T13
X8.0599Y-2.6818
X8.5099Y-2.6818
M30
