%TF.GenerationSoftware,KiCad,Pcbnew,8.0.5*%
%TF.CreationDate,2024-11-15T14:25:53-06:00*%
%TF.ProjectId,Hardware,48617264-7761-4726-952e-6b696361645f,rev?*%
%TF.SameCoordinates,Original*%
%TF.FileFunction,Soldermask,Bot*%
%TF.FilePolarity,Negative*%
%FSLAX46Y46*%
G04 Gerber Fmt 4.6, Leading zero omitted, Abs format (unit mm)*
G04 Created by KiCad (PCBNEW 8.0.5) date 2024-11-15 14:25:53*
%MOMM*%
%LPD*%
G01*
G04 APERTURE LIST*
G04 Aperture macros list*
%AMRoundRect*
0 Rectangle with rounded corners*
0 $1 Rounding radius*
0 $2 $3 $4 $5 $6 $7 $8 $9 X,Y pos of 4 corners*
0 Add a 4 corners polygon primitive as box body*
4,1,4,$2,$3,$4,$5,$6,$7,$8,$9,$2,$3,0*
0 Add four circle primitives for the rounded corners*
1,1,$1+$1,$2,$3*
1,1,$1+$1,$4,$5*
1,1,$1+$1,$6,$7*
1,1,$1+$1,$8,$9*
0 Add four rect primitives between the rounded corners*
20,1,$1+$1,$2,$3,$4,$5,0*
20,1,$1+$1,$4,$5,$6,$7,0*
20,1,$1+$1,$6,$7,$8,$9,0*
20,1,$1+$1,$8,$9,$2,$3,0*%
G04 Aperture macros list end*
%ADD10C,1.100000*%
%ADD11C,1.400000*%
%ADD12C,4.000000*%
%ADD13C,2.000000*%
%ADD14C,1.308000*%
%ADD15C,1.258000*%
%ADD16C,1.208000*%
%ADD17C,2.946400*%
%ADD18RoundRect,0.250000X-0.350000X-0.625000X0.350000X-0.625000X0.350000X0.625000X-0.350000X0.625000X0*%
%ADD19O,1.200000X1.750000*%
%ADD20C,1.800000*%
%ADD21R,3.000000X1.500000*%
%ADD22O,3.000000X1.500000*%
%ADD23O,3.500000X2.200000*%
%ADD24R,2.500000X1.500000*%
%ADD25O,2.500000X1.500000*%
%ADD26R,1.700000X1.700000*%
%ADD27O,1.700000X1.700000*%
%ADD28R,1.600000X1.500000*%
%ADD29C,1.600000*%
%ADD30C,3.000000*%
%ADD31R,1.800000X1.800000*%
%ADD32RoundRect,0.102000X-1.050000X-0.700000X1.050000X-0.700000X1.050000X0.700000X-1.050000X0.700000X0*%
G04 APERTURE END LIST*
D10*
%TO.C,J2*%
X214882000Y-74468000D03*
X213612000Y-77008000D03*
X212342000Y-74468000D03*
X211072000Y-77008000D03*
X209802000Y-74468000D03*
X208532000Y-77008000D03*
X207262000Y-74468000D03*
X205992000Y-77008000D03*
D11*
X216762000Y-63038000D03*
X214222000Y-64828000D03*
X206652000Y-63038000D03*
X204112000Y-64828000D03*
D12*
X216152000Y-68118000D03*
X204722000Y-68118000D03*
D13*
X218312000Y-71168000D03*
X202562000Y-71168000D03*
%TD*%
D14*
%TO.C,U3*%
X232918000Y-82042000D03*
X230378000Y-82042000D03*
X227838000Y-82042000D03*
X225298000Y-82042000D03*
X199898000Y-82042000D03*
X230378000Y-97282000D03*
X189738000Y-87122000D03*
X222758000Y-82042000D03*
X220218000Y-82042000D03*
D15*
X229108000Y-85092000D03*
D14*
X217678000Y-82042000D03*
X215138000Y-82042000D03*
X212598000Y-82042000D03*
X210058000Y-82042000D03*
X207518000Y-82042000D03*
X204978000Y-82042000D03*
X202438000Y-82042000D03*
X202438000Y-97282000D03*
X204978000Y-97282000D03*
X207518000Y-97282000D03*
X210058000Y-97282000D03*
X212598000Y-97282000D03*
X215138000Y-97282000D03*
X217678000Y-97282000D03*
X220218000Y-97282000D03*
X222758000Y-97282000D03*
X225298000Y-97282000D03*
X227838000Y-97282000D03*
X197358000Y-82042000D03*
X194818000Y-82042000D03*
X192278000Y-82042000D03*
X189738000Y-82042000D03*
X187198000Y-82042000D03*
X184658000Y-82042000D03*
X182118000Y-82042000D03*
X179578000Y-82042000D03*
X177038000Y-82042000D03*
X177038000Y-97282000D03*
X179578000Y-97282000D03*
X182118000Y-97282000D03*
X184658000Y-97282000D03*
X187198000Y-97282000D03*
X189738000Y-97282000D03*
X192278000Y-97282000D03*
X194818000Y-97282000D03*
X197358000Y-97282000D03*
D15*
X224028000Y-85092000D03*
X226568000Y-85092000D03*
D14*
X235458000Y-82042000D03*
X199898000Y-97282000D03*
X232918000Y-97282000D03*
X189738000Y-89662000D03*
D16*
X220488000Y-92832000D03*
X222488000Y-92832000D03*
D14*
X189738000Y-94742000D03*
X189738000Y-92202000D03*
D16*
X222488000Y-94832000D03*
X220488000Y-94832000D03*
X220488000Y-90832000D03*
X222488000Y-90832000D03*
D15*
X221488000Y-85092000D03*
X218948000Y-85092000D03*
D14*
X189738000Y-84582000D03*
X235458000Y-97282000D03*
X232918000Y-94742000D03*
%TD*%
D17*
%TO.C,H5*%
X166878000Y-199136000D03*
%TD*%
D18*
%TO.C,Conn1*%
X169688000Y-76454000D03*
D19*
X171688000Y-76454000D03*
%TD*%
D17*
%TO.C,H4*%
X157781355Y-130508645D03*
%TD*%
%TO.C,H3*%
X241046000Y-130556000D03*
%TD*%
%TO.C,BT1*%
X199390000Y-128746000D03*
X199390000Y-187196000D03*
D20*
X172790000Y-136446000D03*
X172790000Y-149146000D03*
%TD*%
D21*
%TO.C,U1*%
X182372000Y-120650000D03*
D22*
X182372000Y-118110000D03*
X182372000Y-115570000D03*
X182372000Y-110490000D03*
X182372000Y-107950000D03*
X182372000Y-105410000D03*
X182372000Y-102870000D03*
%TD*%
D17*
%TO.C,H6*%
X231902000Y-199136000D03*
%TD*%
D23*
%TO.C,SW1*%
X157226000Y-79942000D03*
X157226000Y-88142000D03*
D24*
X157226000Y-82042000D03*
D25*
X157226000Y-84042000D03*
X157226000Y-86042000D03*
%TD*%
D26*
%TO.C,J1*%
X207518000Y-114046000D03*
D27*
X207518000Y-116586000D03*
X207518000Y-119126000D03*
X207518000Y-121666000D03*
%TD*%
D17*
%TO.C,H1*%
X241046000Y-65024000D03*
%TD*%
D28*
%TO.C,J3*%
X231846000Y-70130000D03*
D29*
X229346000Y-70130000D03*
X227346000Y-70130000D03*
X224846000Y-70130000D03*
D30*
X234916000Y-67420000D03*
X221776000Y-67420000D03*
%TD*%
D17*
%TO.C,H2*%
X157734000Y-65024000D03*
%TD*%
D18*
%TO.C,Conn2*%
X186976000Y-76454000D03*
D19*
X188976000Y-76454000D03*
X190976000Y-76454000D03*
%TD*%
D31*
%TO.C,D3*%
X158496000Y-100838000D03*
D20*
X158496000Y-103378000D03*
%TD*%
D32*
%TO.C,SW2*%
X165630000Y-158750000D03*
X174730000Y-158750000D03*
X165630000Y-154250000D03*
X174730000Y-154250000D03*
%TD*%
%TO.C,SW3*%
X179600000Y-166370000D03*
X188700000Y-166370000D03*
X179600000Y-161870000D03*
X188700000Y-161870000D03*
%TD*%
%TO.C,SW5*%
X215160000Y-153380000D03*
X224260000Y-153380000D03*
X215160000Y-148880000D03*
X224260000Y-148880000D03*
%TD*%
%TO.C,SW4*%
X206270000Y-162270000D03*
X215370000Y-162270000D03*
X206270000Y-157770000D03*
X215370000Y-157770000D03*
%TD*%
%TO.C,SW7*%
X224050000Y-162270000D03*
X233150000Y-162270000D03*
X224050000Y-157770000D03*
X233150000Y-157770000D03*
%TD*%
%TO.C,SW6*%
X215160000Y-171160000D03*
X224260000Y-171160000D03*
X215160000Y-166660000D03*
X224260000Y-166660000D03*
%TD*%
D17*
%TO.C,U7*%
X241150000Y-73524000D03*
X157850000Y-73524000D03*
X241150000Y-122564000D03*
X157850000Y-122564000D03*
D26*
X242150000Y-81534000D03*
D27*
X242150000Y-84074000D03*
X242150000Y-86614000D03*
X242150000Y-89154000D03*
X242150000Y-91694000D03*
X242150000Y-94234000D03*
X242150000Y-96774000D03*
X242150000Y-99314000D03*
X242150000Y-101854000D03*
X242150000Y-104394000D03*
X242150000Y-106934000D03*
X242150000Y-109474000D03*
X242150000Y-112014000D03*
X242150000Y-114554000D03*
%TD*%
M02*
