%TF.GenerationSoftware,KiCad,Pcbnew,8.0.5*%
%TF.CreationDate,2024-11-15T14:25:52-06:00*%
%TF.ProjectId,Hardware,48617264-7761-4726-952e-6b696361645f,rev?*%
%TF.SameCoordinates,Original*%
%TF.FileFunction,Paste,Top*%
%TF.FilePolarity,Positive*%
%FSLAX46Y46*%
G04 Gerber Fmt 4.6, Leading zero omitted, Abs format (unit mm)*
G04 Created by KiCad (PCBNEW 8.0.5) date 2024-11-15 14:25:52*
%MOMM*%
%LPD*%
G01*
G04 APERTURE LIST*
G04 Aperture macros list*
%AMRoundRect*
0 Rectangle with rounded corners*
0 $1 Rounding radius*
0 $2 $3 $4 $5 $6 $7 $8 $9 X,Y pos of 4 corners*
0 Add a 4 corners polygon primitive as box body*
4,1,4,$2,$3,$4,$5,$6,$7,$8,$9,$2,$3,0*
0 Add four circle primitives for the rounded corners*
1,1,$1+$1,$2,$3*
1,1,$1+$1,$4,$5*
1,1,$1+$1,$6,$7*
1,1,$1+$1,$8,$9*
0 Add four rect primitives between the rounded corners*
20,1,$1+$1,$2,$3,$4,$5,0*
20,1,$1+$1,$4,$5,$6,$7,0*
20,1,$1+$1,$6,$7,$8,$9,0*
20,1,$1+$1,$8,$9,$2,$3,0*%
G04 Aperture macros list end*
%ADD10RoundRect,0.237500X0.237500X-0.250000X0.237500X0.250000X-0.237500X0.250000X-0.237500X-0.250000X0*%
%ADD11RoundRect,0.237500X-0.250000X-0.237500X0.250000X-0.237500X0.250000X0.237500X-0.250000X0.237500X0*%
%ADD12RoundRect,0.237500X-0.300000X-0.237500X0.300000X-0.237500X0.300000X0.237500X-0.300000X0.237500X0*%
%ADD13R,0.800000X1.200000*%
%ADD14RoundRect,0.237500X0.300000X0.237500X-0.300000X0.237500X-0.300000X-0.237500X0.300000X-0.237500X0*%
%ADD15R,1.500000X0.900000*%
%ADD16R,0.900000X1.500000*%
%ADD17R,0.900000X0.900000*%
%ADD18RoundRect,0.150000X-0.150000X0.587500X-0.150000X-0.587500X0.150000X-0.587500X0.150000X0.587500X0*%
%ADD19RoundRect,0.237500X0.250000X0.237500X-0.250000X0.237500X-0.250000X-0.237500X0.250000X-0.237500X0*%
%ADD20RoundRect,0.237500X-0.237500X0.300000X-0.237500X-0.300000X0.237500X-0.300000X0.237500X0.300000X0*%
%ADD21RoundRect,0.150000X0.825000X0.150000X-0.825000X0.150000X-0.825000X-0.150000X0.825000X-0.150000X0*%
%ADD22RoundRect,0.237500X-0.237500X0.250000X-0.237500X-0.250000X0.237500X-0.250000X0.237500X0.250000X0*%
%ADD23R,1.400000X1.600000*%
%ADD24RoundRect,0.150000X-0.587500X-0.150000X0.587500X-0.150000X0.587500X0.150000X-0.587500X0.150000X0*%
G04 APERTURE END LIST*
D10*
%TO.C,R1*%
X238760000Y-99210500D03*
X238760000Y-97385500D03*
%TD*%
D11*
%TO.C,R9*%
X206859500Y-107188000D03*
X208684500Y-107188000D03*
%TD*%
D12*
%TO.C,C6*%
X206909500Y-109982000D03*
X208634500Y-109982000D03*
%TD*%
D13*
%TO.C,U6*%
X166497000Y-100980500D03*
X169037000Y-100980500D03*
X169037000Y-94980500D03*
X166497000Y-94980500D03*
%TD*%
D14*
%TO.C,C4*%
X177900500Y-75946000D03*
X176175500Y-75946000D03*
%TD*%
D15*
%TO.C,U4*%
X230746000Y-123040000D03*
X230746000Y-121770000D03*
X230746000Y-120500000D03*
X230746000Y-119230000D03*
X230746000Y-117960000D03*
X230746000Y-116690000D03*
X230746000Y-115420000D03*
X230746000Y-114150000D03*
X230746000Y-112880000D03*
X230746000Y-111610000D03*
X230746000Y-110340000D03*
X230746000Y-109070000D03*
X230746000Y-107800000D03*
X230746000Y-106530000D03*
D16*
X227711000Y-105280000D03*
X226441000Y-105280000D03*
X225171000Y-105280000D03*
X223901000Y-105280000D03*
X222631000Y-105280000D03*
X221361000Y-105280000D03*
X220091000Y-105280000D03*
X218821000Y-105280000D03*
X217551000Y-105280000D03*
X216281000Y-105280000D03*
D15*
X213246000Y-106530000D03*
X213246000Y-107800000D03*
X213246000Y-109070000D03*
X213246000Y-110340000D03*
X213246000Y-111610000D03*
X213246000Y-112880000D03*
X213246000Y-114150000D03*
X213246000Y-115420000D03*
X213246000Y-116690000D03*
X213246000Y-117960000D03*
X213246000Y-119230000D03*
X213246000Y-120500000D03*
X213246000Y-121770000D03*
X213246000Y-123040000D03*
D17*
X224896000Y-117100000D03*
X224896000Y-115700000D03*
X224896000Y-114300000D03*
X223496000Y-117100000D03*
X223496000Y-115700000D03*
X223496000Y-114300000D03*
X222096000Y-117100000D03*
X222096000Y-115700000D03*
X222096000Y-114300000D03*
%TD*%
D11*
%TO.C,R10*%
X206859500Y-104394000D03*
X208684500Y-104394000D03*
%TD*%
D10*
%TO.C,R4*%
X158496000Y-95400500D03*
X158496000Y-93575500D03*
%TD*%
D18*
%TO.C,D2*%
X231902000Y-78153500D03*
X230952000Y-76278500D03*
X232852000Y-76278500D03*
%TD*%
D19*
%TO.C,R8*%
X164488500Y-78232000D03*
X162663500Y-78232000D03*
%TD*%
D11*
%TO.C,R2*%
X176175500Y-78232000D03*
X178000500Y-78232000D03*
%TD*%
D20*
%TO.C,C1*%
X223520000Y-75845500D03*
X223520000Y-77570500D03*
%TD*%
D12*
%TO.C,C5*%
X162713500Y-75946000D03*
X164438500Y-75946000D03*
%TD*%
D21*
%TO.C,U2*%
X170242000Y-107823000D03*
X170242000Y-106553000D03*
X170242000Y-105283000D03*
X170242000Y-104013000D03*
X165292000Y-104013000D03*
X165292000Y-105283000D03*
X165292000Y-106553000D03*
X165292000Y-107823000D03*
%TD*%
D22*
%TO.C,R3*%
X171831000Y-86296500D03*
X171831000Y-88121500D03*
%TD*%
D12*
%TO.C,C3*%
X169190500Y-111506000D03*
X170915500Y-111506000D03*
%TD*%
D22*
%TO.C,R6*%
X171831000Y-95036000D03*
X171831000Y-96861000D03*
%TD*%
%TO.C,R7*%
X163703000Y-90567500D03*
X163703000Y-92392500D03*
%TD*%
D13*
%TO.C,U5*%
X166497000Y-92344500D03*
X169037000Y-92344500D03*
X169037000Y-86344500D03*
X166497000Y-86344500D03*
%TD*%
D22*
%TO.C,R5*%
X163703000Y-99203500D03*
X163703000Y-101028500D03*
%TD*%
D23*
%TO.C,SW9*%
X199596000Y-102782000D03*
X199596000Y-109982000D03*
X196596000Y-102782000D03*
X196596000Y-109982000D03*
%TD*%
%TO.C,SW8*%
X199596000Y-115316000D03*
X199596000Y-122516000D03*
X196596000Y-115316000D03*
X196596000Y-122516000D03*
%TD*%
D14*
%TO.C,C2*%
X166597500Y-111506000D03*
X164872500Y-111506000D03*
%TD*%
D24*
%TO.C,D1*%
X175006000Y-118110000D03*
X173131000Y-119060000D03*
X173131000Y-117160000D03*
%TD*%
M02*
